<svg width="607" height="340" viewBox="0 0 607 340" fill="none" xmlns="http://www.w3.org/2000/svg">
<g clip-path="url(#clip0_770_314)">
<path d="M7.22555 128.071C7.25661 130.119 7.28687 132.291 7.31646 134.585C7.64565 151.955 7.62547 177.025 8.35002 207.957C8.73408 223.402 9.32573 240.365 10.5604 258.478C11.113 267.494 11.9676 276.715 14.6871 285.662C17.3635 294.567 22.1222 303.075 29.4483 309.755C36.8615 316.354 46.1023 321.652 56.3974 324.581C66.735 327.634 78.038 328.644 89.6052 328.959C113.133 329.059 137.527 329.205 162.484 329.355C212.398 329.736 260.015 330.103 303.304 329.789C346.549 329.516 385.509 328.479 418.188 327.037C434.353 326.56 449.012 324.354 460.565 319.835C463.388 318.664 465.996 317.287 468.173 315.661C470.306 313.995 472.225 311.917 473.883 310.002C477.199 306.089 479.348 301.842 480.758 297.877C483.493 289.864 483.664 283.065 484.037 278.562C484.135 276.678 484.231 275.122 484.411 273.976C483.597 272.537 483.646 271.473 483.906 271.515C484.08 271.475 484.295 271.681 484.683 272.093C484.728 271.725 484.772 271.561 484.859 271.562C484.946 271.562 485.117 271.973 485.199 272.711C485.672 273.246 486.448 273.947 487.483 274.732C489.986 276.467 494.09 278.54 499.408 280.456C510.13 284.371 525.794 288.07 543.291 289.321C560.832 290.696 576.831 288.949 587.769 285.86C595.842 283.615 601.274 280.862 603.707 279.893C600.845 280.163 594.131 279.836 584.911 278.224C572.446 276.019 555.664 270.88 538.47 262.42C530.003 258.109 522.188 253.475 515.413 248.764C508.769 243.932 502.991 239.309 498.772 234.737C496.488 232.634 494.855 230.33 493.263 228.477C491.845 226.503 490.686 224.693 489.785 223.295C488.33 220.173 487.691 218.367 488.038 218.246C487.735 218.244 487.579 215.376 487.482 209.886C487.471 204.438 487.433 196.409 487.321 186.085C487.296 175.762 487.199 163.104 486.94 148.437C486.811 141.104 486.555 133.238 486.214 124.961C485.874 116.725 485.277 107.833 485.203 98.5334C484.998 89.2744 484.969 79.6887 483.945 69.7694C483.411 64.8505 482.618 59.8892 481.304 55.0066C479.989 50.2879 477.896 45.2778 475.584 40.5941C473.229 35.9101 470.265 31.5502 466.256 28.1262C462.291 24.6615 457.323 22.133 451.875 20.0931C440.763 16.2169 428.603 13.5633 416.046 12.0543C390.76 8.91242 363.718 9.73348 335.55 10.2201C307.297 10.5423 278.225 10.2042 248.415 10.0256C218.605 9.84691 189.488 9.71337 161.364 10.2002C147.367 10.4031 133.542 10.7708 120.064 11.2226C106.585 11.8382 93.2804 12.1681 80.835 13.773C68.3464 15.3777 56.4114 18.5832 46.154 23.847C35.8106 28.9874 27.661 36.8036 22.2345 45.7421C11.0768 63.8631 11.5574 84.8803 9.28176 103.095C8.44958 111.816 7.79313 120.127 7.26913 128.03L7.22555 128.071Z" fill="#E49928"/>
<g style="mix-blend-mode:multiply" opacity="0.37">
<path d="M15.0268 272.392C39.0665 302.726 83.3281 313.56 121.178 317.023C169.854 321.493 220.604 319.667 269.363 317.583C297.535 316.4 325.712 314.357 353.762 311.658C379.168 309.229 405.825 307.832 430.686 302.206C440.709 299.931 450.698 296.14 456.123 287.365C462.511 277.04 463.157 263.321 464.961 251.534C478.279 256.079 490.567 266.23 504.872 265.332C507.299 265.183 508.095 262.443 506.11 261.12C452.075 225.445 459.294 156.055 450.696 101.235C447.776 82.4152 440.784 63.4071 424.695 51.1035C411.842 41.2362 395.444 37.2054 379.338 35.1426C352.71 31.706 325.368 31.9517 298.551 31.1766C263.503 30.1472 228.409 29.5273 193.35 30.5051C166.307 31.2442 139.01 31.1626 112.004 33.0898C88.8555 34.7535 64.2674 38.0881 44.1786 49.8062C24.6118 61.1997 15.3297 77.2427 10.0662 95.1533C11.5929 78.9818 12.652 61.3328 22.1907 45.8648C27.6172 36.9262 35.7667 29.1101 46.1101 23.9697C56.3678 18.6649 68.3025 15.5003 80.7911 13.8957C93.2798 12.291 106.541 11.9608 120.02 11.3452C133.498 10.8935 147.323 10.5257 161.32 10.3229C189.444 9.87698 218.561 9.96956 248.371 10.1482C278.181 10.3269 307.253 10.665 335.506 10.3427C363.717 9.89735 390.717 9.03507 416.003 12.177C428.559 13.6859 440.719 16.3805 451.832 20.2157C457.279 22.2556 462.247 24.7842 466.212 28.2489C470.222 31.6729 473.185 36.0328 475.54 40.7168C477.852 45.4005 479.945 50.4106 481.26 55.1293C482.574 59.9709 483.368 64.9732 483.901 69.892C484.925 79.7704 484.998 89.3973 485.159 98.656C485.19 107.955 485.83 116.848 486.17 125.084C486.511 133.401 486.724 141.227 486.896 148.56C487.198 163.227 487.253 175.844 487.277 186.208C487.345 196.531 487.427 204.561 487.438 210.009C487.535 215.499 487.735 218.367 487.994 218.369C487.647 218.49 488.286 220.255 489.741 223.418C490.642 224.816 491.801 226.666 493.219 228.6C494.855 230.412 496.444 232.757 498.728 234.859C502.99 239.432 508.726 244.013 515.369 248.887C522.101 253.597 529.959 258.232 538.426 262.543C555.577 271.002 572.402 276.142 584.868 278.347C594.087 279.958 600.758 280.244 603.663 280.016C601.231 280.984 595.754 283.737 587.725 285.983C576.788 289.031 560.788 290.819 543.248 289.444C525.75 288.151 510.086 284.494 499.364 280.579C494.046 278.663 489.942 276.59 487.439 274.854C486.404 274.07 485.628 273.41 485.155 272.833C485.073 272.096 484.902 271.685 484.815 271.684C484.729 271.684 484.684 271.847 484.639 272.216C484.251 271.804 484.079 271.598 483.862 271.638C483.602 271.595 483.553 272.619 484.367 274.099C484.231 275.245 484.091 276.76 483.993 278.684C483.62 283.188 483.449 289.987 480.714 297.999C479.304 301.923 477.156 306.171 473.839 310.124C472.181 312.081 470.262 314.158 468.129 315.784C465.953 317.41 463.344 318.787 460.521 319.958C448.925 324.476 434.31 326.642 418.144 327.159C385.465 328.602 346.505 329.638 303.26 329.912C260.015 330.226 212.354 329.858 162.44 329.477C137.44 329.327 113.089 329.181 89.5613 329.081C77.9941 328.766 66.691 327.756 56.3534 324.704C46.0584 321.775 36.774 316.517 29.4044 309.878C22.0783 303.198 17.3197 294.69 14.6433 285.784C12.8167 279.67 11.8572 273.479 11.2446 267.249C12.4473 269.017 13.6499 270.786 14.983 272.473L15.0268 272.392Z" fill="#E49928"/>
</g>
<path d="M1.43551 190.506C1.77685 198.619 2.21326 205.339 2.65919 210.462C2.78082 211.856 2.94624 213.168 3.06912 214.356C3.64306 219.808 4.27628 222.597 4.49293 222.599C4.79648 222.559 4.77033 219.692 4.67298 214.243C4.61899 208.795 4.45047 200.765 4.55567 190.443C4.69352 174.672 5.29705 153.498 7.18291 128.03C7.7069 120.127 8.36329 111.815 9.19548 103.095C11.4712 84.8798 11.0341 63.8219 22.1483 45.7416C27.5748 36.8031 35.7244 28.9869 46.0677 23.8465C56.3254 18.5417 68.2601 15.3771 80.7488 13.7725C93.2375 12.1678 106.498 11.8377 119.978 11.2221C133.456 10.7703 147.281 10.4026 161.277 10.1997C189.401 9.7538 218.518 9.84638 248.328 10.025C278.138 10.2037 307.211 10.5418 335.464 10.2196C363.674 9.77417 390.674 8.9119 415.96 12.0538C428.517 13.5628 440.676 16.2573 451.789 20.0926C457.237 22.1324 462.204 24.661 466.17 28.1257C470.179 31.5497 473.143 35.9096 475.498 40.5936C477.81 45.2773 479.903 50.2874 481.218 55.0061C482.532 59.8477 483.325 64.85 483.859 69.7688C484.883 79.6472 484.955 89.2741 485.117 98.5329C485.148 107.832 485.787 116.725 486.128 124.96C486.468 133.278 486.681 141.103 486.854 148.437C487.156 163.104 487.21 175.721 487.235 186.085C487.303 196.408 487.385 204.437 487.396 209.886C487.493 215.375 487.692 218.244 487.952 218.246C488.212 218.247 488.576 215.382 488.999 209.936C489.464 204.491 489.946 196.465 490.398 186.145C490.85 175.825 491.186 163.128 491.361 148.382C491.405 141.05 491.409 133.144 491.242 124.786C491.119 116.388 490.695 107.701 490.836 98.4852C490.849 89.2275 490.95 79.4788 490.058 69.2325C489.569 64.1091 488.821 58.8613 487.466 53.5279C486.025 48.1121 484.019 43.0206 481.58 37.8855C479.055 32.7499 475.706 27.5274 470.878 23.3202C466.138 19.0725 460.306 16.1292 454.383 13.8816C442.58 9.59165 430.031 6.77188 416.998 5.09619C390.934 1.74482 363.502 2.48161 335.422 2.84585C307.429 3.04675 278.271 2.62622 248.417 2.4473C218.564 2.26838 189.36 2.17528 161.192 2.74381C147.108 2.98711 133.283 3.43678 119.718 4.0109C106.195 4.6672 92.89 5.07902 79.7504 6.84364C66.6541 8.60851 53.9375 12.0961 42.7229 18.0096C31.3791 23.7994 22.2699 32.6749 16.4474 42.6351C10.4946 52.6356 7.65718 63.351 6.29597 73.5838C4.97805 83.8168 4.35735 93.3986 3.56507 102.693C0.830061 139.707 0.649837 169.774 1.43551 190.506Z" fill="url(#paint0_linear_770_314)"/>
<path d="M2.6736 208.005L2.65887 210.462C2.69972 225.332 2.99267 241.515 3.88539 258.848C4.3075 267.944 5.07255 277.657 7.83023 287.464C10.5881 297.23 15.9022 307.052 24.219 314.721C32.4495 322.308 42.684 328.104 54.1028 331.491C65.435 334.877 77.4741 335.973 89.4311 336.331C112.958 336.513 137.439 336.701 162.439 336.892C212.396 337.273 260.101 337.436 303.392 336.753C346.77 336.071 385.82 334.462 418.503 332.364C435.017 331.479 450.068 328.907 462.449 323.656C465.533 322.282 468.403 320.66 470.885 318.627C473.411 316.512 475.243 314.352 476.946 312.15C480.439 307.747 482.461 302.966 483.743 298.714C486.178 290.003 485.787 283.078 485.641 278.53C485.604 277.383 485.523 276.399 485.485 275.498C485.406 274.269 485.325 273.367 485.199 272.67C485.117 271.932 484.946 271.521 484.859 271.521C484.773 271.52 484.728 271.684 484.683 272.052C484.594 272.42 484.504 273.034 484.412 273.894C484.275 275.04 484.136 276.555 484.038 278.48C483.664 282.983 483.493 289.782 480.759 297.795C479.349 301.719 477.2 305.966 473.883 309.92C472.225 311.876 470.306 313.954 468.173 315.58C465.997 317.205 463.389 318.582 460.565 319.753C448.969 324.272 434.354 326.437 418.189 326.955C385.509 328.397 346.549 329.434 303.304 329.707C260.059 330.021 212.398 329.654 162.485 329.273C137.484 329.123 113.133 328.977 89.6058 328.877C78.0386 328.562 66.7354 327.552 56.3979 324.5C46.1029 321.57 36.8184 316.312 29.4488 309.673C22.1227 302.993 17.3641 294.485 14.6877 285.58C12.0115 276.634 11.1569 267.412 10.5609 258.396C9.32628 240.283 8.77799 223.321 8.35059 207.875C7.62605 176.943 7.64626 151.873 7.31704 134.503C7.28748 132.209 7.2574 129.996 7.2261 127.989C7.08618 122.417 6.93988 117.91 6.7867 114.55C6.55422 109.961 6.30849 107.584 6.00518 107.582C5.7019 107.58 5.47074 109.995 5.14022 114.54C4.80966 119.085 4.55257 125.843 4.19746 134.484C3.57367 151.808 2.68659 176.913 2.67409 207.923L2.6736 208.005Z" fill="url(#paint1_linear_770_314)"/>
<path d="M484.411 273.976C484.668 274.469 484.969 274.962 485.442 275.539C485.614 275.785 485.829 275.951 486.001 276.156C488.326 278.628 492.427 281.315 497.785 283.805C508.587 288.786 524.637 293.142 542.784 294.439C560.931 295.899 577.714 293.46 588.918 289.308C600.209 285.157 605.656 280.028 605.225 279.575C605.096 279.41 604.619 279.53 603.75 279.893C603.75 279.934 603.706 279.934 603.663 279.893C601.231 280.861 595.755 283.614 587.725 285.86C576.788 288.908 560.789 290.696 543.248 289.321C525.751 288.028 510.087 284.371 499.365 280.456C494.047 278.54 489.943 276.467 487.44 274.731C486.405 273.947 485.629 273.287 485.155 272.71C484.897 272.463 484.768 272.298 484.639 272.134C484.251 271.722 484.079 271.516 483.862 271.556C483.603 271.513 483.553 272.537 484.368 274.017L484.411 273.976Z" fill="url(#paint2_linear_770_314)"/>
<path d="M489.785 223.377C490.686 224.775 491.845 226.625 493.263 228.559C494.899 230.371 496.488 232.716 498.772 234.819C503.034 239.391 508.77 243.973 515.414 248.846C522.145 253.556 530.003 258.191 538.47 262.502C555.621 270.962 572.446 276.101 584.912 278.306C594.131 279.918 600.802 280.204 603.707 279.975C603.75 280.016 603.793 280.017 603.794 279.976C604.747 279.94 605.268 279.821 605.269 279.657C605.274 278.838 597.61 277.809 585.799 274.788C573.815 271.726 557.73 266.182 541.054 257.971C532.803 253.784 525.073 249.396 518.383 245.054C511.78 240.591 505.912 236.377 501.517 232.295C499.145 230.438 497.424 228.42 495.614 226.812C494.021 225.041 492.73 223.518 491.568 222.282C489.634 219.689 488.386 218.207 488.038 218.369C487.691 218.49 488.33 220.255 489.785 223.418L489.785 223.377Z" fill="url(#paint3_linear_770_314)"/>
<path d="M300.885 94.5337C301.652 94.5337 302.191 95.0311 302.191 95.7565C302.191 96.5026 301.652 97 300.885 97L293.942 97C293.03 97 292.512 96.4611 292.512 95.5907L292.512 83.8808C292.512 82.9689 293.113 82.3886 293.963 82.3886C294.813 82.3886 295.414 82.9689 295.414 83.8808L295.414 94.5337L300.885 94.5337ZM308.82 97.2694C305.442 97.2694 302.996 94.8031 302.996 91.3005C302.996 87.7979 305.442 85.3316 308.82 85.3316C312.219 85.3316 314.665 87.7979 314.665 91.3005C314.665 94.8031 312.219 97.2694 308.82 97.2694ZM305.649 91.3005C305.649 93.3316 306.996 94.8031 308.82 94.8031C310.644 94.8031 312.012 93.3316 312.012 91.3005C312.012 89.2694 310.644 87.7979 308.82 87.7979C306.996 87.7979 305.649 89.2694 305.649 91.3005ZM318.08 97.1036C317.271 97.1036 316.712 96.5233 316.712 95.715L316.712 86.7617C316.712 86.0155 317.188 85.4974 317.893 85.4974C318.618 85.4974 319.178 85.9741 319.24 86.658L319.302 88.2124C319.779 86.7824 320.96 85.5181 322.37 85.5181C323.178 85.5181 323.738 86.0363 323.738 86.7824C323.738 87.5907 323.199 88.1295 322.266 88.1917C320.504 88.2746 319.447 89.6425 319.447 91.9845L319.447 95.715C319.447 96.5233 318.888 97.1036 318.08 97.1036ZM324.043 91.3005C324.043 87.9223 326.468 85.3731 329.764 85.3731C333.308 85.3731 335.339 88.171 335.38 91.1347C335.401 91.8394 334.924 92.2953 334.157 92.2953L326.613 92.2953C326.966 93.8705 328.168 94.9067 329.764 94.9067C330.593 94.9067 331.359 94.5959 332.085 94.0777C332.707 93.6839 333.39 93.7461 333.764 94.2642C334.095 94.7617 333.971 95.4663 333.39 95.943C332.437 96.772 331.235 97.228 329.743 97.228C326.468 97.228 324.043 94.658 324.043 91.3005ZM326.593 90.4301L332.852 90.4301C332.603 89 331.567 87.7565 329.764 87.7565C328.147 87.7565 326.924 88.8135 326.593 90.4301ZM338.587 97.1036C337.779 97.1036 337.219 96.544 337.219 95.715L337.219 86.9067C337.219 86.0984 337.779 85.4974 338.587 85.4974C339.396 85.4974 339.934 86.0984 339.934 86.9067L339.934 87.2591C340.66 86.057 341.717 85.4145 343.147 85.4145C344.743 85.4145 345.883 86.2228 346.422 87.5285C347.147 86.1813 348.473 85.4145 350.194 85.4145C352.556 85.4145 354.214 87.0104 354.214 89.7254L354.214 95.715C354.214 96.544 353.655 97.1036 352.846 97.1036C352.059 97.1036 351.499 96.544 351.499 95.715L351.499 90.1399C351.499 88.6684 350.587 87.715 349.302 87.715C347.997 87.715 347.085 88.6684 347.085 90.1399L347.085 95.715C347.085 96.544 346.504 97.1036 345.717 97.1036C344.929 97.1036 344.349 96.544 344.349 95.715L344.349 90.1399C344.349 88.6684 343.458 87.715 342.235 87.715C340.888 87.715 339.934 88.6684 339.934 90.1399L339.934 95.715C339.934 96.544 339.396 97.1036 338.587 97.1036ZM362.52 83.8601C362.52 82.9896 363.1 82.3886 363.971 82.3886C364.862 82.3886 365.422 82.9896 365.422 83.8601L365.422 95.6321C365.422 96.5026 364.862 97.1036 363.971 97.1036C363.1 97.1036 362.52 96.5026 362.52 95.6321L362.52 83.8601ZM374.594 85.4352C377.62 85.4352 379.838 87.9637 379.838 91.3005C379.838 94.6373 377.62 97.1658 374.594 97.1658C372.936 97.1658 371.651 96.4819 370.802 95.2798L370.802 99.8601C370.802 100.689 370.263 101.249 369.455 101.249C368.646 101.249 368.087 100.689 368.087 99.8601L368.087 86.9689C368.087 86.0777 368.605 85.4767 369.351 85.4767C370.097 85.4767 370.657 86.0984 370.719 86.9689L370.739 87.4041C371.568 86.1606 372.895 85.4352 374.594 85.4352ZM370.822 91.3005C370.822 93.3109 372.19 94.8031 373.993 94.8031C375.817 94.8031 377.123 93.3109 377.123 91.3005C377.123 89.2902 375.817 87.7979 373.993 87.7979C372.19 87.7979 370.822 89.2902 370.822 91.3005ZM389.505 86.8446C389.981 87.342 390.044 87.9637 389.691 88.399C389.318 88.8756 388.634 88.9171 388.095 88.4819C387.246 87.7772 386.562 87.4663 385.65 87.4663C384.676 87.4663 383.93 87.8394 383.93 88.6269C383.93 89.4974 384.821 89.8083 386.541 90.2435C388.862 90.8238 390.5 91.6114 390.5 93.8705C390.5 96.2539 388.261 97.2902 385.981 97.2902C383.847 97.2902 382.375 96.6891 381.525 95.5699C381.049 94.9689 381.069 94.2435 381.525 93.7668C381.961 93.3316 382.665 93.3731 383.163 93.8497C384.116 94.7824 384.904 95.0725 385.836 95.0725C386.914 95.0725 387.784 94.6995 387.784 93.8497C387.784 93.0415 387.018 92.6477 385.525 92.2746C383.639 91.7772 381.194 91.0104 381.194 88.7098C381.194 86.4301 383.287 85.3109 385.525 85.3109C387.411 85.3109 388.634 85.8912 389.505 86.8446ZM400.079 86.886C400.079 86.0777 400.618 85.4974 401.426 85.4974C402.255 85.4974 402.794 86.0777 402.794 86.886L402.752 92.399C402.752 95.2383 400.68 97.2073 397.592 97.2073C394.483 97.2073 392.369 95.2383 392.369 92.399L392.369 86.886C392.369 86.0777 392.928 85.4974 393.757 85.4974C394.566 85.4974 395.105 86.0777 395.105 86.886L395.105 92.2539C395.105 93.7668 396.099 94.8031 397.592 94.8031C399.084 94.8031 400.079 93.7668 400.079 92.2539L400.079 86.886ZM406.72 97.1036C405.912 97.1036 405.352 96.544 405.352 95.715L405.352 86.9067C405.352 86.0984 405.912 85.4974 406.72 85.4974C407.528 85.4974 408.067 86.0984 408.067 86.9067L408.067 87.2591C408.793 86.057 409.85 85.4145 411.28 85.4145C412.876 85.4145 414.015 86.2228 414.554 87.5285C415.28 86.1813 416.606 85.4145 418.326 85.4145C420.689 85.4145 422.347 87.0104 422.347 89.7254L422.347 95.715C422.347 96.544 421.787 97.1036 420.979 97.1036C420.192 97.1036 419.632 96.544 419.632 95.715L419.632 90.1399C419.632 88.6684 418.72 87.715 417.435 87.715C416.129 87.715 415.218 88.6684 415.218 90.1399L415.218 95.715C415.218 96.544 414.637 97.1036 413.85 97.1036C413.062 97.1036 412.482 96.544 412.482 95.715L412.482 90.1399C412.482 88.6684 411.591 87.715 410.368 87.715C409.021 87.715 408.067 88.6684 408.067 90.1399L408.067 95.715C408.067 96.544 407.528 97.1036 406.72 97.1036ZM119.549 136.534C120.316 136.534 120.855 137.031 120.855 137.756C120.855 138.503 120.316 139 119.549 139L112.606 139C111.695 139 111.176 138.461 111.176 137.591L111.176 125.881C111.176 124.969 111.777 124.389 112.627 124.389C113.477 124.389 114.078 124.969 114.078 125.881L114.078 136.534L119.549 136.534ZM127.484 139.269C124.106 139.269 121.661 136.803 121.661 133.301C121.661 129.798 124.106 127.332 127.484 127.332C130.883 127.332 133.329 129.798 133.329 133.301C133.329 136.803 130.883 139.269 127.484 139.269ZM124.313 133.301C124.313 135.332 125.661 136.803 127.484 136.803C129.308 136.803 130.676 135.332 130.676 133.301C130.676 131.269 129.308 129.798 127.484 129.798C125.661 129.798 124.313 131.269 124.313 133.301ZM136.744 139.104C135.935 139.104 135.376 138.523 135.376 137.715L135.376 128.762C135.376 128.016 135.852 127.497 136.557 127.497C137.282 127.497 137.842 127.974 137.904 128.658L137.966 130.212C138.443 128.782 139.624 127.518 141.034 127.518C141.842 127.518 142.402 128.036 142.402 128.782C142.402 129.591 141.863 130.13 140.93 130.192C139.168 130.275 138.111 131.642 138.111 133.984L138.111 137.715C138.111 138.523 137.552 139.104 136.744 139.104ZM142.707 133.301C142.707 129.922 145.132 127.373 148.428 127.373C151.972 127.373 154.003 130.171 154.044 133.135C154.065 133.839 153.588 134.295 152.821 134.295L145.277 134.295C145.63 135.87 146.832 136.907 148.428 136.907C149.257 136.907 150.023 136.596 150.749 136.078C151.371 135.684 152.055 135.746 152.428 136.264C152.759 136.762 152.635 137.466 152.055 137.943C151.101 138.772 149.899 139.228 148.407 139.228C145.132 139.228 142.707 136.658 142.707 133.301ZM145.257 132.43L151.516 132.43C151.267 131 150.231 129.756 148.428 129.756C146.811 129.756 145.588 130.813 145.257 132.43ZM157.251 139.104C156.443 139.104 155.884 138.544 155.884 137.715L155.884 128.907C155.884 128.098 156.443 127.497 157.251 127.497C158.06 127.497 158.599 128.098 158.599 128.907L158.599 129.259C159.324 128.057 160.381 127.415 161.811 127.415C163.407 127.415 164.547 128.223 165.086 129.528C165.811 128.181 167.137 127.415 168.858 127.415C171.22 127.415 172.878 129.01 172.878 131.725L172.878 137.715C172.878 138.544 172.319 139.104 171.51 139.104C170.723 139.104 170.163 138.544 170.163 137.715L170.163 132.14C170.163 130.668 169.251 129.715 167.966 129.715C166.661 129.715 165.749 130.668 165.749 132.14L165.749 137.715C165.749 138.544 165.168 139.104 164.381 139.104C163.593 139.104 163.013 138.544 163.013 137.715L163.013 132.14C163.013 130.668 162.122 129.715 160.899 129.715C159.552 129.715 158.599 130.668 158.599 132.14L158.599 137.715C158.599 138.544 158.06 139.104 157.251 139.104ZM182.283 139.104C181.474 139.104 180.915 138.544 180.915 137.715L180.915 128.886C180.915 128.057 181.474 127.497 182.283 127.497C183.091 127.497 183.63 128.057 183.63 128.886L183.63 137.715C183.63 138.544 183.091 139.104 182.283 139.104ZM180.666 124.451C180.666 123.56 181.371 122.855 182.283 122.855C183.195 122.855 183.878 123.56 183.878 124.451C183.878 125.383 183.195 126.088 182.283 126.088C181.371 126.088 180.666 125.383 180.666 124.451ZM192.883 127.435C195.909 127.435 198.127 129.964 198.127 133.301C198.127 136.637 195.909 139.166 192.883 139.166C191.225 139.166 189.94 138.482 189.091 137.28L189.091 141.86C189.091 142.689 188.552 143.249 187.744 143.249C186.935 143.249 186.376 142.689 186.376 141.86L186.376 128.969C186.376 128.078 186.894 127.477 187.64 127.477C188.386 127.477 188.946 128.098 189.008 128.969L189.029 129.404C189.858 128.161 191.184 127.435 192.883 127.435ZM189.111 133.301C189.111 135.311 190.479 136.803 192.282 136.803C194.106 136.803 195.412 135.311 195.412 133.301C195.412 131.29 194.106 129.798 192.282 129.798C190.479 129.798 189.111 131.29 189.111 133.301ZM207.794 128.845C208.27 129.342 208.333 129.964 207.98 130.399C207.607 130.876 206.923 130.917 206.384 130.482C205.535 129.777 204.851 129.466 203.939 129.466C202.965 129.466 202.219 129.839 202.219 130.627C202.219 131.497 203.11 131.808 204.83 132.244C207.151 132.824 208.789 133.611 208.789 135.87C208.789 138.254 206.55 139.29 204.27 139.29C202.136 139.29 200.664 138.689 199.814 137.57C199.338 136.969 199.359 136.244 199.814 135.767C200.25 135.332 200.954 135.373 201.452 135.85C202.405 136.782 203.193 137.073 204.125 137.073C205.203 137.073 206.074 136.699 206.074 135.85C206.074 135.041 205.307 134.648 203.814 134.275C201.928 133.777 199.483 133.01 199.483 130.71C199.483 128.43 201.576 127.311 203.814 127.311C205.7 127.311 206.923 127.891 207.794 128.845ZM218.368 128.886C218.368 128.078 218.907 127.497 219.715 127.497C220.544 127.497 221.083 128.078 221.083 128.886L221.041 134.399C221.041 137.238 218.969 139.207 215.881 139.207C212.772 139.207 210.658 137.238 210.658 134.399L210.658 128.886C210.658 128.078 211.217 127.497 212.047 127.497C212.855 127.497 213.394 128.078 213.394 128.886L213.394 134.254C213.394 135.767 214.388 136.803 215.881 136.803C217.373 136.803 218.368 135.767 218.368 134.254L218.368 128.886ZM225.009 139.104C224.201 139.104 223.641 138.544 223.641 137.715L223.641 128.907C223.641 128.098 224.201 127.497 225.009 127.497C225.817 127.497 226.356 128.098 226.356 128.907L226.356 129.259C227.082 128.057 228.139 127.415 229.569 127.415C231.165 127.415 232.305 128.223 232.843 129.528C233.569 128.181 234.895 127.415 236.615 127.415C238.978 127.415 240.636 129.01 240.636 131.725L240.636 137.715C240.636 138.544 240.077 139.104 239.268 139.104C238.481 139.104 237.921 138.544 237.921 137.715L237.921 132.14C237.921 130.668 237.009 129.715 235.724 129.715C234.419 129.715 233.507 130.668 233.507 132.14L233.507 137.715C233.507 138.544 232.926 139.104 232.139 139.104C231.351 139.104 230.771 138.544 230.771 137.715L230.771 132.14C230.771 130.668 229.88 129.715 228.657 129.715C227.31 129.715 226.356 130.668 226.356 132.14L226.356 137.715C226.356 138.544 225.817 139.104 225.009 139.104ZM250.04 139.104C249.232 139.104 248.673 138.544 248.673 137.715L248.673 128.886C248.673 128.057 249.232 127.497 250.04 127.497C250.849 127.497 251.388 128.057 251.388 128.886L251.388 137.715C251.388 138.544 250.849 139.104 250.04 139.104ZM248.424 124.451C248.424 123.56 249.129 122.855 250.04 122.855C250.952 122.855 251.636 123.56 251.636 124.451C251.636 125.383 250.952 126.088 250.04 126.088C249.129 126.088 248.424 125.383 248.424 124.451ZM261.864 128.845C262.341 129.342 262.403 129.964 262.051 130.399C261.678 130.876 260.994 130.917 260.455 130.482C259.605 129.777 258.921 129.466 258.009 129.466C257.035 129.466 256.289 129.839 256.289 130.627C256.289 131.497 257.18 131.808 258.9 132.244C261.222 132.824 262.859 133.611 262.859 135.87C262.859 138.254 260.621 139.29 258.341 139.29C256.206 139.29 254.735 138.689 253.885 137.57C253.408 136.969 253.429 136.244 253.885 135.767C254.32 135.332 255.025 135.373 255.522 135.85C256.475 136.782 257.263 137.073 258.196 137.073C259.273 137.073 260.144 136.699 260.144 135.85C260.144 135.041 259.377 134.648 257.885 134.275C255.999 133.777 253.553 133.01 253.553 130.71C253.553 128.43 255.646 127.311 257.885 127.311C259.771 127.311 260.994 127.891 261.864 128.845ZM276.907 127.435C279.933 127.435 282.15 129.964 282.15 133.301C282.15 136.637 279.933 139.166 276.907 139.166C275.249 139.166 273.964 138.482 273.114 137.28L273.114 141.86C273.114 142.689 272.575 143.249 271.767 143.249C270.959 143.249 270.399 142.689 270.399 141.86L270.399 128.969C270.399 128.078 270.917 127.477 271.663 127.477C272.409 127.477 272.969 128.098 273.031 128.969L273.052 129.404C273.881 128.161 275.207 127.435 276.907 127.435ZM273.135 133.301C273.135 135.311 274.503 136.803 276.306 136.803C278.13 136.803 279.435 135.311 279.435 133.301C279.435 131.29 278.13 129.798 276.306 129.798C274.503 129.798 273.135 131.29 273.135 133.301ZM285.572 139.124C284.743 139.124 284.204 138.544 284.204 137.715L284.204 124.741C284.204 123.933 284.743 123.352 285.572 123.352C286.401 123.352 286.919 123.933 286.919 124.741L286.919 137.715C286.919 138.544 286.401 139.124 285.572 139.124ZM298.183 139.124C297.561 139.124 296.981 138.751 296.836 138.047C296.048 138.751 294.908 139.187 293.603 139.187C290.929 139.187 288.981 137.591 288.981 135.332C288.981 133.031 290.929 131.415 293.665 131.415C294.908 131.415 295.965 131.788 296.732 132.43C296.732 130.44 295.613 129.57 293.748 129.57C292.794 129.57 291.882 129.819 291.136 130.13C290.556 130.378 289.955 130.212 289.727 129.736C289.457 129.218 289.727 128.617 290.328 128.306C291.385 127.746 292.711 127.373 294.204 127.373C297.375 127.373 299.468 128.865 299.468 132.409L299.468 137.653C299.468 138.523 298.97 139.124 298.183 139.124ZM291.675 135.228C291.675 136.451 292.753 137.28 294.266 137.28C295.779 137.28 296.815 136.451 296.815 135.228C296.815 134.026 295.779 133.155 294.266 133.155C292.753 133.155 291.675 134.026 291.675 135.228ZM307.109 139.228C303.69 139.228 301.286 136.782 301.286 133.301C301.286 129.819 303.69 127.373 307.109 127.373C308.809 127.373 310.26 128.161 311.151 129.197C311.669 129.798 311.71 130.544 311.254 131C310.778 131.518 309.969 131.435 309.348 130.855C308.705 130.212 308.001 129.819 307.109 129.819C305.244 129.819 303.918 131.269 303.918 133.301C303.918 135.332 305.244 136.782 307.109 136.782C307.98 136.782 308.747 136.347 309.451 135.684C310.032 135.207 310.778 135.166 311.254 135.642C311.71 136.119 311.69 136.824 311.192 137.404C310.26 138.503 308.83 139.228 307.109 139.228ZM312.746 133.301C312.746 129.922 315.171 127.373 318.467 127.373C322.011 127.373 324.042 130.171 324.083 133.135C324.104 133.839 323.627 134.295 322.86 134.295L315.316 134.295C315.669 135.87 316.871 136.907 318.467 136.907C319.296 136.907 320.063 136.596 320.788 136.078C321.41 135.684 322.094 135.746 322.467 136.264C322.798 136.762 322.674 137.466 322.094 137.943C321.14 138.772 319.938 139.228 318.446 139.228C315.171 139.228 312.746 136.658 312.746 133.301ZM315.296 132.43L321.555 132.43C321.306 131 320.27 129.756 318.467 129.756C316.85 129.756 315.627 130.813 315.296 132.43ZM327.29 139.124C326.482 139.124 325.923 138.565 325.923 137.736L325.923 124.72C325.923 123.891 326.482 123.332 327.29 123.332C328.099 123.332 328.638 123.891 328.638 124.72L328.638 129.259C329.467 128.119 330.772 127.477 332.327 127.477C335.042 127.477 336.658 129.363 336.658 132.637L336.658 137.736C336.658 138.565 336.099 139.124 335.29 139.124C334.503 139.124 333.923 138.565 333.923 137.736L333.923 132.762C333.923 130.959 332.886 129.777 331.311 129.777C329.715 129.777 328.638 130.959 328.638 132.762L328.638 137.736C328.638 138.565 328.099 139.124 327.29 139.124ZM344.305 139.269C340.926 139.269 338.481 136.803 338.481 133.301C338.481 129.798 340.926 127.332 344.305 127.332C347.704 127.332 350.149 129.798 350.149 133.301C350.149 136.803 347.704 139.269 344.305 139.269ZM341.134 133.301C341.134 135.332 342.481 136.803 344.305 136.803C346.128 136.803 347.496 135.332 347.496 133.301C347.496 131.269 346.128 129.798 344.305 129.798C342.481 129.798 341.134 131.269 341.134 133.301ZM353.564 139.124C352.735 139.124 352.196 138.544 352.196 137.715L352.196 124.741C352.196 123.933 352.735 123.352 353.564 123.352C354.393 123.352 354.911 123.933 354.911 124.741L354.911 137.715C354.911 138.544 354.393 139.124 353.564 139.124ZM362.217 139.166C359.191 139.166 356.973 136.637 356.973 133.301C356.973 129.964 359.191 127.435 362.217 127.435C363.875 127.435 365.16 128.119 366.009 129.321L366.009 124.741C366.009 123.912 366.548 123.352 367.356 123.352C368.165 123.352 368.724 123.912 368.724 124.741L368.724 137.632C368.724 138.523 368.206 139.124 367.46 139.124C366.714 139.124 366.154 138.503 366.092 137.632L366.071 137.197C365.242 138.44 363.916 139.166 362.217 139.166ZM359.688 133.301C359.688 135.311 360.994 136.803 362.818 136.803C364.621 136.803 365.989 135.311 365.989 133.301C365.989 131.29 364.621 129.798 362.818 129.798C360.994 129.798 359.688 131.29 359.688 133.301ZM370.778 133.301C370.778 129.922 373.203 127.373 376.498 127.373C380.042 127.373 382.073 130.171 382.114 133.135C382.135 133.839 381.659 134.295 380.892 134.295L373.348 134.295C373.7 135.87 374.902 136.907 376.498 136.907C377.327 136.907 378.094 136.596 378.819 136.078C379.441 135.684 380.125 135.746 380.498 136.264C380.83 136.762 380.705 137.466 380.125 137.943C379.171 138.772 377.969 139.228 376.477 139.228C373.203 139.228 370.778 136.658 370.778 133.301ZM373.327 132.43L379.586 132.43C379.337 131 378.301 129.756 376.498 129.756C374.881 129.756 373.659 130.813 373.327 132.43ZM385.322 139.104C384.513 139.104 383.954 138.523 383.954 137.715L383.954 128.762C383.954 128.016 384.43 127.497 385.135 127.497C385.861 127.497 386.42 127.974 386.482 128.658L386.544 130.212C387.021 128.782 388.203 127.518 389.612 127.518C390.42 127.518 390.98 128.036 390.98 128.782C390.98 129.591 390.441 130.13 389.508 130.192C387.747 130.275 386.69 131.642 386.69 133.984L386.69 137.715C386.69 138.523 386.13 139.104 385.322 139.104ZM397.235 128.658C397.235 128.036 397.691 127.601 398.375 127.601L398.893 127.601L398.893 126.088C398.893 125.259 399.432 124.699 400.24 124.699C401.049 124.699 401.608 125.259 401.608 126.088L401.608 127.601L403.142 127.601C403.805 127.601 404.261 128.036 404.261 128.658C404.261 129.28 403.805 129.715 403.142 129.715L401.608 129.715L401.608 135.124C401.608 136.181 401.94 136.617 402.686 136.617C402.935 136.617 403.204 136.513 403.494 136.513C404.157 136.513 404.593 136.927 404.593 137.674C404.593 138.399 404.012 139.083 402.106 139.083C399.847 139.083 398.893 137.777 398.893 135.539L398.893 129.715L398.375 129.715C397.691 129.715 397.235 129.28 397.235 128.658ZM405.207 133.301C405.207 129.922 407.632 127.373 410.928 127.373C414.472 127.373 416.503 130.171 416.544 133.135C416.565 133.839 416.088 134.295 415.321 134.295L407.777 134.295C408.13 135.87 409.332 136.907 410.928 136.907C411.757 136.907 412.523 136.596 413.249 136.078C413.871 135.684 414.555 135.746 414.928 136.264C415.259 136.762 415.135 137.466 414.555 137.943C413.601 138.772 412.399 139.228 410.907 139.228C407.632 139.228 405.207 136.658 405.207 133.301ZM407.757 132.43L414.016 132.43C413.767 131 412.731 129.756 410.928 129.756C409.311 129.756 408.088 130.813 407.757 132.43ZM417.521 138.917C416.982 138.482 416.941 137.694 417.459 137.01L420.423 133.135L417.811 129.674C417.293 128.969 417.355 128.161 417.956 127.684C418.578 127.207 419.345 127.394 419.842 128.119L422.205 131.415L424.588 128.119C425.086 127.394 425.853 127.207 426.474 127.684C427.096 128.14 427.158 128.969 426.619 129.674L423.967 133.135L426.91 137.01C427.428 137.694 427.386 138.482 426.847 138.917C426.226 139.415 425.397 139.249 424.878 138.523L422.205 135.021L419.511 138.523C418.992 139.228 418.163 139.415 417.521 138.917ZM428.196 128.658C428.196 128.036 428.652 127.601 429.336 127.601L429.854 127.601L429.854 126.088C429.854 125.259 430.393 124.699 431.201 124.699C432.01 124.699 432.569 125.259 432.569 126.088L432.569 127.601L434.103 127.601C434.766 127.601 435.222 128.036 435.222 128.658C435.222 129.28 434.766 129.715 434.103 129.715L432.569 129.715L432.569 135.124C432.569 136.181 432.901 136.617 433.647 136.617C433.896 136.617 434.165 136.513 434.455 136.513C435.118 136.513 435.554 136.927 435.554 137.674C435.554 138.399 434.973 139.083 433.067 139.083C430.807 139.083 429.854 137.777 429.854 135.539L429.854 129.715L429.336 129.715C428.652 129.715 428.196 129.28 428.196 128.658ZM69.1953 181.228C65.7756 181.228 63.3714 178.782 63.3714 175.301C63.3714 171.819 65.7756 169.373 69.1953 169.373C70.8948 169.373 72.3455 170.161 73.2367 171.197C73.7549 171.798 73.7963 172.544 73.3403 173C72.8637 173.518 72.0554 173.435 71.4336 172.855C70.7911 172.212 70.0865 171.819 69.1953 171.819C67.33 171.819 66.0036 173.269 66.0036 175.301C66.0036 177.332 67.33 178.782 69.1953 178.782C70.0657 178.782 70.8326 178.347 71.5372 177.684C72.1176 177.207 72.8637 177.166 73.3403 177.642C73.7963 178.119 73.7756 178.824 73.2782 179.404C72.3455 180.503 70.9155 181.228 69.1953 181.228ZM80.6562 181.269C77.278 181.269 74.8324 178.803 74.8324 175.301C74.8324 171.798 77.278 169.332 80.6562 169.332C84.0552 169.332 86.5008 171.798 86.5008 175.301C86.5008 178.803 84.0552 181.269 80.6562 181.269ZM77.4852 175.301C77.4852 177.332 78.8324 178.803 80.6562 178.803C82.48 178.803 83.8479 177.332 83.8479 175.301C83.8479 173.269 82.48 171.798 80.6562 171.798C78.8324 171.798 77.4852 173.269 77.4852 175.301ZM89.9154 181.104C89.1071 181.104 88.5476 180.544 88.5476 179.715L88.5476 170.907C88.5476 170.098 89.1071 169.497 89.9154 169.497C90.7237 169.497 91.2626 170.098 91.2626 170.907L91.2626 171.259C91.988 170.057 93.045 169.415 94.475 169.415C96.0709 169.415 97.2108 170.223 97.7496 171.528C98.475 170.181 99.8014 169.415 101.522 169.415C103.884 169.415 105.542 171.01 105.542 173.725L105.542 179.715C105.542 180.544 104.983 181.104 104.175 181.104C103.387 181.104 102.827 180.544 102.827 179.715L102.827 174.14C102.827 172.668 101.915 171.715 100.63 171.715C99.3248 171.715 98.4128 172.668 98.4128 174.14L98.4128 179.715C98.4128 180.544 97.8325 181.104 97.045 181.104C96.2574 181.104 95.6771 180.544 95.6771 179.715L95.6771 174.14C95.6771 172.668 94.7859 171.715 93.5631 171.715C92.216 171.715 91.2626 172.668 91.2626 174.14L91.2626 179.715C91.2626 180.544 90.7237 181.104 89.9154 181.104ZM109.462 181.104C108.654 181.104 108.094 180.544 108.094 179.715L108.094 170.907C108.094 170.098 108.654 169.497 109.462 169.497C110.271 169.497 110.809 170.098 110.809 170.907L110.809 171.259C111.535 170.057 112.592 169.415 114.022 169.415C115.618 169.415 116.758 170.223 117.297 171.528C118.022 170.181 119.348 169.415 121.069 169.415C123.431 169.415 125.089 171.01 125.089 173.725L125.089 179.715C125.089 180.544 124.53 181.104 123.721 181.104C122.934 181.104 122.374 180.544 122.374 179.715L122.374 174.14C122.374 172.668 121.462 171.715 120.177 171.715C118.872 171.715 117.96 172.668 117.96 174.14L117.96 179.715C117.96 180.544 117.379 181.104 116.592 181.104C115.804 181.104 115.224 180.544 115.224 179.715L115.224 174.14C115.224 172.668 114.333 171.715 113.11 171.715C111.763 171.715 110.809 172.668 110.809 174.14L110.809 179.715C110.809 180.544 110.271 181.104 109.462 181.104ZM132.781 181.269C129.403 181.269 126.957 178.803 126.957 175.301C126.957 171.798 129.403 169.332 132.781 169.332C136.18 169.332 138.626 171.798 138.626 175.301C138.626 178.803 136.18 181.269 132.781 181.269ZM129.61 175.301C129.61 177.332 130.957 178.803 132.781 178.803C134.605 178.803 135.973 177.332 135.973 175.301C135.973 173.269 134.605 171.798 132.781 171.798C130.957 171.798 129.61 173.269 129.61 175.301ZM142.04 181.104C141.232 181.104 140.673 180.544 140.673 179.715L140.673 170.886C140.673 170.057 141.232 169.497 142.04 169.497C142.849 169.497 143.388 170.057 143.388 170.886L143.388 171.301C144.217 170.098 145.522 169.415 147.056 169.415C149.792 169.415 151.408 171.218 151.388 174.492L151.388 179.715C151.388 180.544 150.828 181.104 150.02 181.104C149.232 181.104 148.652 180.544 148.652 179.715L148.652 174.699C148.673 172.917 147.616 171.715 146.061 171.715C144.465 171.715 143.388 172.917 143.388 174.699L143.388 179.715C143.388 180.544 142.849 181.104 142.04 181.104ZM155.259 181.124C154.43 181.124 153.891 180.544 153.891 179.715L153.891 166.741C153.891 165.933 154.43 165.352 155.259 165.352C156.088 165.352 156.606 165.933 156.606 166.741L156.606 179.715C156.606 180.544 156.088 181.124 155.259 181.124ZM160.368 186.036C159.166 185.995 158.461 185.394 158.668 184.503C158.813 183.819 159.352 183.446 160.119 183.549C161.031 183.694 161.653 183.342 162.088 181.974L162.357 181.041L158.855 171.425C158.503 170.472 158.834 169.642 159.58 169.394C160.368 169.124 161.072 169.539 161.363 170.43L163.601 177.228L165.756 170.554C166.047 169.663 166.751 169.228 167.518 169.435C168.306 169.642 168.658 170.43 168.326 171.383L164.513 182.43C163.58 185.124 162.42 186.098 160.368 186.036ZM183.493 170.886C183.493 170.078 184.032 169.497 184.84 169.497C185.669 169.497 186.208 170.078 186.208 170.886L186.166 176.399C186.166 179.238 184.094 181.207 181.006 181.207C177.897 181.207 175.783 179.238 175.783 176.399L175.783 170.886C175.783 170.078 176.342 169.497 177.172 169.497C177.98 169.497 178.519 170.078 178.519 170.886L178.519 176.254C178.519 177.767 179.513 178.803 181.006 178.803C182.498 178.803 183.493 177.767 183.493 176.254L183.493 170.886ZM196.497 170.845C196.974 171.342 197.036 171.964 196.683 172.399C196.31 172.876 195.626 172.917 195.088 172.482C194.238 171.777 193.554 171.466 192.642 171.466C191.668 171.466 190.922 171.839 190.922 172.627C190.922 173.497 191.813 173.808 193.533 174.244C195.854 174.824 197.492 175.611 197.492 177.87C197.492 180.254 195.253 181.29 192.974 181.29C190.839 181.29 189.367 180.689 188.518 179.57C188.041 178.969 188.062 178.244 188.518 177.767C188.953 177.332 189.658 177.373 190.155 177.85C191.108 178.782 191.896 179.073 192.828 179.073C193.906 179.073 194.777 178.699 194.777 177.85C194.777 177.041 194.01 176.648 192.518 176.275C190.632 175.777 188.186 175.01 188.186 172.71C188.186 170.43 190.279 169.311 192.518 169.311C194.404 169.311 195.626 169.891 196.497 170.845ZM198.817 175.301C198.817 171.922 201.242 169.373 204.537 169.373C208.081 169.373 210.112 172.171 210.154 175.135C210.174 175.839 209.698 176.295 208.931 176.295L201.387 176.295C201.739 177.87 202.941 178.907 204.537 178.907C205.366 178.907 206.133 178.596 206.858 178.078C207.48 177.684 208.164 177.746 208.537 178.264C208.869 178.762 208.744 179.466 208.164 179.943C207.211 180.772 206.008 181.228 204.516 181.228C201.242 181.228 198.817 178.658 198.817 175.301ZM201.366 174.43L207.625 174.43C207.376 173 206.34 171.756 204.537 171.756C202.92 171.756 201.698 172.813 201.366 174.43ZM216.81 181.166C213.784 181.166 211.567 178.637 211.567 175.301C211.567 171.964 213.784 169.435 216.81 169.435C218.468 169.435 219.753 170.119 220.603 171.321L220.603 166.741C220.603 165.912 221.142 165.352 221.95 165.352C222.758 165.352 223.318 165.912 223.318 166.741L223.318 179.632C223.318 180.523 222.8 181.124 222.054 181.124C221.308 181.124 220.748 180.503 220.686 179.632L220.665 179.197C219.836 180.44 218.51 181.166 216.81 181.166ZM214.282 175.301C214.282 177.311 215.587 178.803 217.411 178.803C219.214 178.803 220.582 177.311 220.582 175.301C220.582 173.29 219.214 171.798 217.411 171.798C215.587 171.798 214.282 173.29 214.282 175.301ZM232.908 181.104C232.099 181.104 231.54 180.544 231.54 179.715L231.54 170.886C231.54 170.057 232.099 169.497 232.908 169.497C233.716 169.497 234.255 170.057 234.255 170.886L234.255 179.715C234.255 180.544 233.716 181.104 232.908 181.104ZM231.291 166.451C231.291 165.56 231.996 164.855 232.908 164.855C233.82 164.855 234.503 165.56 234.503 166.451C234.503 167.383 233.82 168.088 232.908 168.088C231.996 168.088 231.291 167.383 231.291 166.451ZM238.369 181.104C237.56 181.104 237.001 180.544 237.001 179.715L237.001 170.886C237.001 170.057 237.56 169.497 238.369 169.497C239.177 169.497 239.716 170.057 239.716 170.886L239.716 171.301C240.545 170.098 241.85 169.415 243.384 169.415C246.12 169.415 247.736 171.218 247.716 174.492L247.716 179.715C247.716 180.544 247.156 181.104 246.348 181.104C245.56 181.104 244.98 180.544 244.98 179.715L244.98 174.699C245.001 172.917 243.944 171.715 242.389 171.715C240.793 171.715 239.716 172.917 239.716 174.699L239.716 179.715C239.716 180.544 239.177 181.104 238.369 181.104ZM254.688 170.658C254.688 170.036 255.144 169.601 255.828 169.601L256.346 169.601L256.346 168.088C256.346 167.259 256.885 166.699 257.693 166.699C258.502 166.699 259.061 167.259 259.061 168.088L259.061 169.601L260.595 169.601C261.258 169.601 261.714 170.036 261.714 170.658C261.714 171.28 261.258 171.715 260.595 171.715L259.061 171.715L259.061 177.124C259.061 178.181 259.393 178.617 260.139 178.617C260.388 178.617 260.657 178.513 260.947 178.513C261.611 178.513 262.046 178.927 262.046 179.674C262.046 180.399 261.465 181.083 259.559 181.083C257.3 181.083 256.346 179.777 256.346 177.539L256.346 171.715L255.828 171.715C255.144 171.715 254.688 171.28 254.688 170.658ZM265.439 181.124C264.631 181.124 264.071 180.565 264.071 179.736L264.071 166.72C264.071 165.891 264.631 165.332 265.439 165.332C266.247 165.332 266.786 165.891 266.786 166.72L266.786 171.259C267.615 170.119 268.921 169.477 270.475 169.477C273.19 169.477 274.807 171.363 274.807 174.637L274.807 179.736C274.807 180.565 274.247 181.124 273.439 181.124C272.651 181.124 272.071 180.565 272.071 179.736L272.071 174.762C272.071 172.959 271.035 171.777 269.46 171.777C267.864 171.777 266.786 172.959 266.786 174.762L266.786 179.736C266.786 180.565 266.247 181.124 265.439 181.124ZM276.629 175.301C276.629 171.922 279.054 169.373 282.349 169.373C285.893 169.373 287.925 172.171 287.966 175.135C287.987 175.839 287.51 176.295 286.743 176.295L279.199 176.295C279.552 177.87 280.754 178.907 282.349 178.907C283.178 178.907 283.945 178.596 284.671 178.078C285.292 177.684 285.976 177.746 286.349 178.264C286.681 178.762 286.557 179.466 285.976 179.943C285.023 180.772 283.821 181.228 282.329 181.228C279.054 181.228 276.629 178.658 276.629 175.301ZM279.178 174.43L285.438 174.43C285.189 173 284.153 171.756 282.349 171.756C280.733 171.756 279.51 172.813 279.178 174.43ZM299.642 178.098C298.979 178.098 298.378 177.995 297.818 177.829C297.507 178.078 297.383 178.368 297.383 178.679C297.383 179.238 297.839 179.528 299.062 179.528L301.507 179.528C304.181 179.528 305.632 180.565 305.632 182.845C305.632 185.145 303.87 186.513 300.326 186.513C298.088 186.513 296.326 186.098 295.041 185.518C294.357 185.207 294.026 184.523 294.357 183.839C294.647 183.28 295.29 183.073 296.015 183.342C297.114 183.777 298.564 184.109 300.367 184.109C302.067 184.109 302.917 183.736 302.917 182.907C302.917 182.078 302.336 181.829 300.989 181.829L298.627 181.829C296.098 181.829 294.709 180.813 294.709 179.238C294.709 178.119 295.352 177.373 296.119 176.876C295.269 176.109 294.772 175.052 294.772 173.829C294.772 171.238 296.803 169.373 299.601 169.373C301.051 169.373 302.274 169.87 303.124 170.699C303.684 169.808 304.513 169.456 305.259 169.435C305.984 169.435 306.481 169.891 306.481 170.534C306.481 171.238 306.005 171.674 305.238 171.694C304.761 171.694 304.367 171.798 304.015 171.984C304.264 172.523 304.388 173.166 304.388 173.829C304.388 176.316 302.481 178.098 299.642 178.098ZM297.362 173.829C297.362 175.052 298.316 175.922 299.642 175.922C300.927 175.922 301.818 175.052 301.818 173.829C301.818 172.585 300.886 171.694 299.601 171.694C298.316 171.694 297.362 172.585 297.362 173.829ZM309.009 181.104C308.201 181.104 307.641 180.523 307.641 179.715L307.641 170.762C307.641 170.016 308.118 169.497 308.823 169.497C309.548 169.497 310.108 169.974 310.17 170.658L310.232 172.212C310.709 170.782 311.89 169.518 313.299 169.518C314.108 169.518 314.667 170.036 314.667 170.782C314.667 171.591 314.128 172.13 313.196 172.192C311.434 172.275 310.377 173.642 310.377 175.984L310.377 179.715C310.377 180.523 309.817 181.104 309.009 181.104ZM324.48 181.124C323.858 181.124 323.278 180.751 323.133 180.047C322.345 180.751 321.205 181.187 319.899 181.187C317.226 181.187 315.278 179.591 315.278 177.332C315.278 175.031 317.226 173.415 319.962 173.415C321.205 173.415 322.262 173.788 323.029 174.43C323.029 172.44 321.91 171.57 320.045 171.57C319.091 171.57 318.179 171.819 317.433 172.13C316.853 172.378 316.252 172.212 316.024 171.736C315.754 171.218 316.024 170.617 316.625 170.306C317.682 169.746 319.008 169.373 320.5 169.373C323.671 169.373 325.765 170.865 325.765 174.409L325.765 179.653C325.765 180.523 325.267 181.124 324.48 181.124ZM317.972 177.228C317.972 178.451 319.05 179.28 320.563 179.28C322.076 179.28 323.112 178.451 323.112 177.228C323.112 176.026 322.076 175.155 320.563 175.155C319.05 175.155 317.972 176.026 317.972 177.228ZM334.774 169.435C337.8 169.435 340.018 171.964 340.018 175.301C340.018 178.637 337.8 181.166 334.774 181.166C333.116 181.166 331.831 180.482 330.981 179.28L330.981 183.86C330.981 184.689 330.442 185.249 329.634 185.249C328.826 185.249 328.266 184.689 328.266 183.86L328.266 170.969C328.266 170.078 328.784 169.477 329.531 169.477C330.277 169.477 330.836 170.098 330.898 170.969L330.919 171.404C331.748 170.161 333.075 169.435 334.774 169.435ZM331.002 175.301C331.002 177.311 332.37 178.803 334.173 178.803C335.997 178.803 337.303 177.311 337.303 175.301C337.303 173.29 335.997 171.798 334.173 171.798C332.37 171.798 331.002 173.29 331.002 175.301ZM343.439 181.124C342.631 181.124 342.071 180.565 342.071 179.736L342.071 166.72C342.071 165.891 342.631 165.332 343.439 165.332C344.247 165.332 344.786 165.891 344.786 166.72L344.786 171.259C345.615 170.119 346.921 169.477 348.475 169.477C351.19 169.477 352.807 171.363 352.807 174.637L352.807 179.736C352.807 180.565 352.247 181.124 351.439 181.124C350.651 181.124 350.071 180.565 350.071 179.736L350.071 174.762C350.071 172.959 349.035 171.777 347.46 171.777C345.864 171.777 344.786 172.959 344.786 174.762L344.786 179.736C344.786 180.565 344.247 181.124 343.439 181.124ZM356.681 181.104C355.873 181.104 355.313 180.544 355.313 179.715L355.313 170.886C355.313 170.057 355.873 169.497 356.681 169.497C357.489 169.497 358.028 170.057 358.028 170.886L358.028 179.715C358.028 180.544 357.489 181.104 356.681 181.104ZM355.064 166.451C355.064 165.56 355.769 164.855 356.681 164.855C357.593 164.855 358.277 165.56 358.277 166.451C358.277 167.383 357.593 168.088 356.681 168.088C355.769 168.088 355.064 167.383 355.064 166.451ZM365.914 181.228C362.494 181.228 360.09 178.782 360.09 175.301C360.09 171.819 362.494 169.373 365.914 169.373C367.614 169.373 369.064 170.161 369.955 171.197C370.474 171.798 370.515 172.544 370.059 173C369.582 173.518 368.774 173.435 368.152 172.855C367.51 172.212 366.805 171.819 365.914 171.819C364.049 171.819 362.722 173.269 362.722 175.301C362.722 177.332 364.049 178.782 365.914 178.782C366.784 178.782 367.551 178.347 368.256 177.684C368.836 177.207 369.582 177.166 370.059 177.642C370.515 178.119 370.494 178.824 369.997 179.404C369.064 180.503 367.634 181.228 365.914 181.228ZM372.578 178.865C372.744 177.953 373.49 177.352 374.319 177.56C375.148 177.767 375.563 178.534 375.231 179.466L373.926 183.176C373.698 183.839 373.2 184.192 372.641 184.067C372.06 183.922 371.77 183.383 371.895 182.679L372.578 178.865ZM389.594 169.435C392.62 169.435 394.838 171.964 394.838 175.301C394.838 178.637 392.62 181.166 389.594 181.166C387.936 181.166 386.651 180.482 385.802 179.28L385.802 183.86C385.802 184.689 385.263 185.249 384.455 185.249C383.646 185.249 383.087 184.689 383.087 183.86L383.087 170.969C383.087 170.078 383.605 169.477 384.351 169.477C385.097 169.477 385.657 170.098 385.719 170.969L385.739 171.404C386.568 170.161 387.895 169.435 389.594 169.435ZM385.822 175.301C385.822 177.311 387.19 178.803 388.993 178.803C390.817 178.803 392.123 177.311 392.123 175.301C392.123 173.29 390.817 171.798 388.993 171.798C387.19 171.798 385.822 173.29 385.822 175.301ZM398.259 181.104C397.451 181.104 396.891 180.523 396.891 179.715L396.891 170.762C396.891 170.016 397.368 169.497 398.073 169.497C398.798 169.497 399.358 169.974 399.42 170.658L399.482 172.212C399.959 170.782 401.14 169.518 402.549 169.518C403.358 169.518 403.917 170.036 403.917 170.782C403.917 171.591 403.378 172.13 402.446 172.192C400.684 172.275 399.627 173.642 399.627 175.984L399.627 179.715C399.627 180.523 399.067 181.104 398.259 181.104ZM407.072 181.104C406.263 181.104 405.704 180.544 405.704 179.715L405.704 170.886C405.704 170.057 406.263 169.497 407.072 169.497C407.88 169.497 408.419 170.057 408.419 170.886L408.419 179.715C408.419 180.544 407.88 181.104 407.072 181.104ZM405.455 166.451C405.455 165.56 406.16 164.855 407.072 164.855C407.984 164.855 408.668 165.56 408.668 166.451C408.668 167.383 407.984 168.088 407.072 168.088C406.16 168.088 405.455 167.383 405.455 166.451ZM412.533 181.104C411.724 181.104 411.165 180.544 411.165 179.715L411.165 170.886C411.165 170.057 411.724 169.497 412.533 169.497C413.341 169.497 413.88 170.057 413.88 170.886L413.88 171.301C414.709 170.098 416.014 169.415 417.548 169.415C420.284 169.415 421.901 171.218 421.88 174.492L421.88 179.715C421.88 180.544 421.32 181.104 420.512 181.104C419.724 181.104 419.144 180.544 419.144 179.715L419.144 174.699C419.165 172.917 418.108 171.715 416.553 171.715C414.957 171.715 413.88 172.917 413.88 174.699L413.88 179.715C413.88 180.544 413.341 181.104 412.533 181.104ZM423.11 170.658C423.11 170.036 423.566 169.601 424.25 169.601L424.768 169.601L424.768 168.088C424.768 167.259 425.307 166.699 426.115 166.699C426.924 166.699 427.483 167.259 427.483 168.088L427.483 169.601L429.017 169.601C429.68 169.601 430.136 170.036 430.136 170.658C430.136 171.28 429.68 171.715 429.017 171.715L427.483 171.715L427.483 177.124C427.483 178.181 427.815 178.617 428.561 178.617C428.81 178.617 429.079 178.513 429.369 178.513C430.032 178.513 430.468 178.927 430.468 179.674C430.468 180.399 429.887 181.083 427.981 181.083C425.722 181.083 424.768 179.777 424.768 177.539L424.768 171.715L424.25 171.715C423.566 171.715 423.11 171.28 423.11 170.658ZM432.344 178.865C432.51 177.953 433.256 177.352 434.085 177.56C434.914 177.767 435.329 178.534 434.997 179.466L433.691 183.176C433.463 183.839 432.966 184.192 432.406 184.067C431.826 183.922 431.536 183.383 431.66 182.679L432.344 178.865ZM36.5969 223.124C35.9752 223.124 35.3949 222.751 35.2498 222.047C34.4622 222.751 33.3223 223.187 32.0166 223.187C29.3431 223.187 27.3949 221.591 27.3949 219.332C27.3949 217.031 29.3431 215.415 32.0788 215.415C33.3223 215.415 34.3793 215.788 35.1462 216.43C35.1462 214.44 34.027 213.57 32.1617 213.57C31.2083 213.57 30.2964 213.819 29.5503 214.13C28.97 214.378 28.369 214.212 28.141 213.736C27.8716 213.218 28.141 212.617 28.742 212.306C29.799 211.746 31.1254 211.373 32.6177 211.373C35.7887 211.373 37.8819 212.865 37.8819 216.409L37.8819 221.653C37.8819 222.523 37.3845 223.124 36.5969 223.124ZM30.0892 219.228C30.0892 220.451 31.1669 221.28 32.6798 221.28C34.1928 221.28 35.2291 220.451 35.2291 219.228C35.2291 218.026 34.1928 217.155 32.6798 217.155C31.1669 217.155 30.0892 218.026 30.0892 219.228ZM41.7514 223.104C40.9431 223.104 40.3835 222.544 40.3835 221.715L40.3835 212.886C40.3835 212.057 40.9431 211.497 41.7514 211.497C42.5597 211.497 43.0985 212.057 43.0985 212.886L43.0985 213.301C43.9275 212.098 45.2332 211.415 46.7669 211.415C49.5027 211.415 51.1193 213.218 51.0985 216.492L51.0985 221.715C51.0985 222.544 50.5389 223.104 49.7307 223.104C48.9431 223.104 48.3628 222.544 48.3628 221.715L48.3628 216.699C48.3835 214.917 47.3265 213.715 45.7721 213.715C44.1762 213.715 43.0985 214.917 43.0985 216.699L43.0985 221.715C43.0985 222.544 42.5597 223.104 41.7514 223.104ZM58.1618 223.166C55.1359 223.166 52.9183 220.637 52.9183 217.301C52.9183 213.964 55.1359 211.435 58.1618 211.435C59.8199 211.435 61.1048 212.119 61.9546 213.321L61.9546 208.741C61.9546 207.912 62.4934 207.352 63.3017 207.352C64.11 207.352 64.6696 207.912 64.6696 208.741L64.6696 221.632C64.6696 222.523 64.1515 223.124 63.4054 223.124C62.6592 223.124 62.0997 222.503 62.0375 221.632L62.0168 221.197C61.1877 222.44 59.8613 223.166 58.1618 223.166ZM55.6333 217.301C55.6333 219.311 56.939 220.803 58.7629 220.803C60.566 220.803 61.9339 219.311 61.9339 217.301C61.9339 215.29 60.566 213.798 58.7629 213.798C56.939 213.798 55.6333 215.29 55.6333 217.301ZM79.3991 211.435C82.425 211.435 84.6426 213.964 84.6426 217.301C84.6426 220.637 82.425 223.166 79.3991 223.166C77.7411 223.166 76.4561 222.482 75.6063 221.28L75.6063 225.86C75.6063 226.689 75.0675 227.249 74.2592 227.249C73.4509 227.249 72.8913 226.689 72.8913 225.86L72.8913 212.969C72.8913 212.078 73.4094 211.477 74.1556 211.477C74.9017 211.477 75.4613 212.098 75.5234 212.969L75.5442 213.404C76.3732 212.161 77.6996 211.435 79.3991 211.435ZM75.6271 217.301C75.6271 219.311 76.9949 220.803 78.798 220.803C80.6219 220.803 81.9276 219.311 81.9276 217.301C81.9276 215.29 80.6219 213.798 78.798 213.798C76.9949 213.798 75.6271 215.29 75.6271 217.301ZM94.149 212.886C94.149 212.078 94.6879 211.497 95.4962 211.497C96.3252 211.497 96.864 212.078 96.864 212.886L96.8226 218.399C96.8226 221.238 94.75 223.207 91.662 223.207C88.5531 223.207 86.4392 221.238 86.4392 218.399L86.4392 212.886C86.4392 212.078 86.9987 211.497 87.8278 211.497C88.6361 211.497 89.1749 212.078 89.1749 212.886L89.1749 218.254C89.1749 219.767 90.1697 220.803 91.662 220.803C93.1542 220.803 94.149 219.767 94.149 218.254L94.149 212.886ZM105.93 223.166C104.231 223.166 102.904 222.44 102.075 221.197L102.055 221.632C101.993 222.503 101.433 223.124 100.687 223.124C99.9407 223.124 99.4226 222.523 99.4226 221.632L99.4226 208.741C99.4226 207.912 99.9821 207.352 100.79 207.352C101.599 207.352 102.138 207.912 102.138 208.741L102.138 213.321C102.987 212.119 104.272 211.435 105.93 211.435C108.956 211.435 111.174 213.964 111.174 217.301C111.174 220.637 108.956 223.166 105.93 223.166ZM102.158 217.301C102.158 219.311 103.526 220.803 105.329 220.803C107.153 220.803 108.459 219.311 108.459 217.301C108.459 215.29 107.153 213.798 105.329 213.798C103.526 213.798 102.158 215.29 102.158 217.301ZM114.595 223.124C113.766 223.124 113.227 222.544 113.227 221.715L113.227 208.741C113.227 207.933 113.766 207.352 114.595 207.352C115.424 207.352 115.942 207.933 115.942 208.741L115.942 221.715C115.942 222.544 115.424 223.124 114.595 223.124ZM120.056 223.104C119.248 223.104 118.688 222.544 118.688 221.715L118.688 212.886C118.688 212.057 119.248 211.497 120.056 211.497C120.864 211.497 121.403 212.057 121.403 212.886L121.403 221.715C121.403 222.544 120.864 223.104 120.056 223.104ZM118.439 208.451C118.439 207.56 119.144 206.855 120.056 206.855C120.968 206.855 121.652 207.56 121.652 208.451C121.652 209.383 120.968 210.088 120.056 210.088C119.144 210.088 118.439 209.383 118.439 208.451ZM131.88 212.845C132.356 213.342 132.419 213.964 132.066 214.399C131.693 214.876 131.009 214.917 130.47 214.482C129.621 213.777 128.937 213.466 128.025 213.466C127.051 213.466 126.305 213.839 126.305 214.627C126.305 215.497 127.196 215.808 128.916 216.244C131.237 216.824 132.875 217.611 132.875 219.87C132.875 222.254 130.636 223.29 128.356 223.29C126.222 223.29 124.75 222.689 123.9 221.57C123.424 220.969 123.444 220.244 123.9 219.767C124.336 219.332 125.04 219.373 125.538 219.85C126.491 220.782 127.279 221.073 128.211 221.073C129.289 221.073 130.159 220.699 130.159 219.85C130.159 219.041 129.393 218.648 127.9 218.275C126.014 217.777 123.569 217.01 123.569 214.71C123.569 212.43 125.662 211.311 127.9 211.311C129.786 211.311 131.009 211.891 131.88 212.845ZM136.298 223.124C135.49 223.124 134.93 222.565 134.93 221.736L134.93 208.72C134.93 207.891 135.49 207.332 136.298 207.332C137.107 207.332 137.645 207.891 137.645 208.72L137.645 213.259C138.474 212.119 139.78 211.477 141.335 211.477C144.05 211.477 145.666 213.363 145.666 216.637L145.666 221.736C145.666 222.565 145.107 223.124 144.298 223.124C143.511 223.124 142.93 222.565 142.93 221.736L142.93 216.762C142.93 214.959 141.894 213.777 140.319 213.777C138.723 213.777 137.645 214.959 137.645 216.762L137.645 221.736C137.645 222.565 137.107 223.124 136.298 223.124ZM149.54 223.104C148.732 223.104 148.173 222.544 148.173 221.715L148.173 212.886C148.173 212.057 148.732 211.497 149.54 211.497C150.349 211.497 150.888 212.057 150.888 212.886L150.888 221.715C150.888 222.544 150.349 223.104 149.54 223.104ZM147.924 208.451C147.924 207.56 148.629 206.855 149.54 206.855C150.452 206.855 151.136 207.56 151.136 208.451C151.136 209.383 150.452 210.088 149.54 210.088C148.629 210.088 147.924 209.383 147.924 208.451ZM155.001 223.104C154.193 223.104 153.634 222.544 153.634 221.715L153.634 212.886C153.634 212.057 154.193 211.497 155.001 211.497C155.81 211.497 156.349 212.057 156.349 212.886L156.349 213.301C157.178 212.098 158.483 211.415 160.017 211.415C162.753 211.415 164.369 213.218 164.349 216.492L164.349 221.715C164.349 222.544 163.789 223.104 162.981 223.104C162.193 223.104 161.613 222.544 161.613 221.715L161.613 216.699C161.634 214.917 160.577 213.715 159.022 213.715C157.426 213.715 156.349 214.917 156.349 216.699L156.349 221.715C156.349 222.544 155.81 223.104 155.001 223.104ZM171.251 220.098C170.588 220.098 169.987 219.995 169.428 219.829C169.117 220.078 168.992 220.368 168.992 220.679C168.992 221.238 169.448 221.528 170.671 221.528L173.117 221.528C175.79 221.528 177.241 222.565 177.241 224.845C177.241 227.145 175.479 228.513 171.935 228.513C169.697 228.513 167.935 228.098 166.65 227.518C165.966 227.207 165.635 226.523 165.966 225.839C166.257 225.28 166.899 225.073 167.625 225.342C168.723 225.777 170.174 226.109 171.977 226.109C173.676 226.109 174.526 225.736 174.526 224.907C174.526 224.078 173.946 223.829 172.599 223.829L170.236 223.829C167.707 223.829 166.319 222.813 166.319 221.238C166.319 220.119 166.961 219.373 167.728 218.876C166.878 218.109 166.381 217.052 166.381 215.829C166.381 213.238 168.412 211.373 171.21 211.373C172.661 211.373 173.884 211.87 174.733 212.699C175.293 211.808 176.122 211.456 176.868 211.435C177.593 211.435 178.091 211.891 178.091 212.534C178.091 213.238 177.614 213.674 176.847 213.694C176.371 213.694 175.977 213.798 175.625 213.984C175.873 214.523 175.998 215.166 175.998 215.829C175.998 218.316 174.091 220.098 171.251 220.098ZM168.972 215.829C168.972 217.052 169.925 217.922 171.251 217.922C172.536 217.922 173.428 217.052 173.428 215.829C173.428 214.585 172.495 213.694 171.21 213.694C169.925 213.694 168.972 214.585 168.972 215.829ZM186.103 223.104C185.295 223.104 184.735 222.544 184.735 221.715L184.735 212.886C184.735 212.057 185.295 211.497 186.103 211.497C186.911 211.497 187.45 212.057 187.45 212.886L187.45 221.715C187.45 222.544 186.911 223.104 186.103 223.104ZM184.486 208.451C184.486 207.56 185.191 206.855 186.103 206.855C187.015 206.855 187.699 207.56 187.699 208.451C187.699 209.383 187.015 210.088 186.103 210.088C185.191 210.088 184.486 209.383 184.486 208.451ZM191.564 223.104C190.756 223.104 190.196 222.544 190.196 221.715L190.196 212.886C190.196 212.057 190.756 211.497 191.564 211.497C192.372 211.497 192.911 212.057 192.911 212.886L192.911 213.301C193.74 212.098 195.046 211.415 196.579 211.415C199.315 211.415 200.932 213.218 200.911 216.492L200.911 221.715C200.911 222.544 200.351 223.104 199.543 223.104C198.756 223.104 198.175 222.544 198.175 221.715L198.175 216.699C198.196 214.917 197.139 213.715 195.585 213.715C193.989 213.715 192.911 214.917 192.911 216.699L192.911 221.715C192.911 222.544 192.372 223.104 191.564 223.104ZM207.974 223.166C204.948 223.166 202.731 220.637 202.731 217.301C202.731 213.964 204.948 211.435 207.974 211.435C209.632 211.435 210.917 212.119 211.767 213.321L211.767 208.741C211.767 207.912 212.306 207.352 213.114 207.352C213.923 207.352 214.482 207.912 214.482 208.741L214.482 221.632C214.482 222.523 213.964 223.124 213.218 223.124C212.472 223.124 211.912 222.503 211.85 221.632L211.829 221.197C211 222.44 209.674 223.166 207.974 223.166ZM205.446 217.301C205.446 219.311 206.752 220.803 208.575 220.803C210.378 220.803 211.746 219.311 211.746 217.301C211.746 215.29 210.378 213.798 208.575 213.798C206.752 213.798 205.446 215.29 205.446 217.301ZM224.743 212.886C224.743 212.078 225.282 211.497 226.09 211.497C226.919 211.497 227.458 212.078 227.458 212.886L227.416 218.399C227.416 221.238 225.344 223.207 222.256 223.207C219.147 223.207 217.033 221.238 217.033 218.399L217.033 212.886C217.033 212.078 217.592 211.497 218.422 211.497C219.23 211.497 219.769 212.078 219.769 212.886L219.769 218.254C219.769 219.767 220.763 220.803 222.256 220.803C223.748 220.803 224.743 219.767 224.743 218.254L224.743 212.886ZM237.747 212.845C238.224 213.342 238.286 213.964 237.933 214.399C237.56 214.876 236.876 214.917 236.338 214.482C235.488 213.777 234.804 213.466 233.892 213.466C232.918 213.466 232.172 213.839 232.172 214.627C232.172 215.497 233.063 215.808 234.783 216.244C237.104 216.824 238.742 217.611 238.742 219.87C238.742 222.254 236.503 223.29 234.224 223.29C232.089 223.29 230.617 222.689 229.768 221.57C229.291 220.969 229.312 220.244 229.768 219.767C230.203 219.332 230.908 219.373 231.405 219.85C232.358 220.782 233.146 221.073 234.078 221.073C235.156 221.073 236.027 220.699 236.027 219.85C236.027 219.041 235.26 218.648 233.768 218.275C231.882 217.777 229.436 217.01 229.436 214.71C229.436 212.43 231.529 211.311 233.768 211.311C235.654 211.311 236.876 211.891 237.747 212.845ZM239.548 212.658C239.548 212.036 240.004 211.601 240.688 211.601L241.206 211.601L241.206 210.088C241.206 209.259 241.745 208.699 242.553 208.699C243.361 208.699 243.921 209.259 243.921 210.088L243.921 211.601L245.454 211.601C246.118 211.601 246.574 212.036 246.574 212.658C246.574 213.28 246.118 213.715 245.454 213.715L243.921 213.715L243.921 219.124C243.921 220.181 244.252 220.617 244.998 220.617C245.247 220.617 245.517 220.513 245.807 220.513C246.47 220.513 246.905 220.927 246.905 221.674C246.905 222.399 246.325 223.083 244.418 223.083C242.159 223.083 241.206 221.777 241.206 219.539L241.206 213.715L240.688 213.715C240.004 213.715 239.548 213.28 239.548 212.658ZM250.087 223.104C249.279 223.104 248.719 222.523 248.719 221.715L248.719 212.762C248.719 212.016 249.196 211.497 249.901 211.497C250.626 211.497 251.186 211.974 251.248 212.658L251.31 214.212C251.787 212.782 252.968 211.518 254.377 211.518C255.186 211.518 255.745 212.036 255.745 212.782C255.745 213.591 255.206 214.13 254.274 214.192C252.512 214.275 251.455 215.642 251.455 217.984L251.455 221.715C251.455 222.523 250.896 223.104 250.087 223.104ZM258.9 223.104C258.092 223.104 257.532 222.544 257.532 221.715L257.532 212.886C257.532 212.057 258.092 211.497 258.9 211.497C259.708 211.497 260.247 212.057 260.247 212.886L260.247 221.715C260.247 222.544 259.708 223.104 258.9 223.104ZM257.283 208.451C257.283 207.56 257.988 206.855 258.9 206.855C259.812 206.855 260.496 207.56 260.496 208.451C260.496 209.383 259.812 210.088 258.9 210.088C257.988 210.088 257.283 209.383 257.283 208.451ZM262.309 217.301C262.309 213.922 264.734 211.373 268.029 211.373C271.573 211.373 273.604 214.171 273.646 217.135C273.666 217.839 273.19 218.295 272.423 218.295L264.879 218.295C265.231 219.87 266.433 220.907 268.029 220.907C268.858 220.907 269.625 220.596 270.35 220.078C270.972 219.684 271.656 219.746 272.029 220.264C272.361 220.762 272.236 221.466 271.656 221.943C270.703 222.772 269.501 223.228 268.008 223.228C264.734 223.228 262.309 220.658 262.309 217.301ZM264.858 216.43L271.117 216.43C270.869 215 269.832 213.756 268.029 213.756C266.413 213.756 265.19 214.813 264.858 216.43ZM283.098 212.845C283.575 213.342 283.637 213.964 283.285 214.399C282.912 214.876 282.228 214.917 281.689 214.482C280.839 213.777 280.155 213.466 279.244 213.466C278.269 213.466 277.523 213.839 277.523 214.627C277.523 215.497 278.415 215.808 280.135 216.244C282.456 216.824 284.093 217.611 284.093 219.87C284.093 222.254 281.855 223.29 279.575 223.29C277.44 223.29 275.969 222.689 275.119 221.57C274.642 220.969 274.663 220.244 275.119 219.767C275.554 219.332 276.259 219.373 276.756 219.85C277.71 220.782 278.497 221.073 279.43 221.073C280.508 221.073 281.378 220.699 281.378 219.85C281.378 219.041 280.611 218.648 279.119 218.275C277.233 217.777 274.788 217.01 274.788 214.71C274.788 212.43 276.881 211.311 279.119 211.311C281.005 211.311 282.228 211.891 283.098 212.845ZM291.841 213.715C291.178 213.715 290.722 213.28 290.722 212.658C290.722 212.036 291.178 211.601 291.841 211.601L292.317 211.601L292.317 210.689C292.317 207.974 294.017 206.813 295.965 206.813C296.67 206.813 297.457 206.979 297.996 207.228C298.618 207.518 298.908 208.119 298.701 208.699C298.514 209.218 297.996 209.466 297.437 209.321C297.126 209.259 296.815 209.197 296.504 209.197C295.675 209.197 295.032 209.756 295.032 211.124L295.032 211.601L296.608 211.601C297.25 211.601 297.727 212.036 297.727 212.658C297.727 213.28 297.25 213.715 296.608 213.715L295.032 213.715L295.032 221.715C295.032 222.523 294.514 223.104 293.685 223.104C292.856 223.104 292.317 222.523 292.317 221.715L292.317 213.715L291.841 213.715ZM303.969 223.269C300.59 223.269 298.145 220.803 298.145 217.301C298.145 213.798 300.59 211.332 303.969 211.332C307.368 211.332 309.813 213.798 309.813 217.301C309.813 220.803 307.368 223.269 303.969 223.269ZM300.798 217.301C300.798 219.332 302.145 220.803 303.969 220.803C305.793 220.803 307.16 219.332 307.16 217.301C307.16 215.269 305.793 213.798 303.969 213.798C302.145 213.798 300.798 215.269 300.798 217.301ZM313.228 223.104C312.42 223.104 311.86 222.523 311.86 221.715L311.86 212.762C311.86 212.016 312.337 211.497 313.041 211.497C313.767 211.497 314.326 211.974 314.389 212.658L314.451 214.212C314.927 212.782 316.109 211.518 317.518 211.518C318.326 211.518 318.886 212.036 318.886 212.782C318.886 213.591 318.347 214.13 317.414 214.192C315.653 214.275 314.596 215.642 314.596 217.984L314.596 221.715C314.596 222.523 314.036 223.104 313.228 223.104ZM332.665 211.435C335.691 211.435 337.908 213.964 337.908 217.301C337.908 220.637 335.691 223.166 332.665 223.166C331.007 223.166 329.722 222.482 328.872 221.28L328.872 225.86C328.872 226.689 328.333 227.249 327.525 227.249C326.717 227.249 326.157 226.689 326.157 225.86L326.157 212.969C326.157 212.078 326.675 211.477 327.421 211.477C328.167 211.477 328.727 212.098 328.789 212.969L328.81 213.404C329.639 212.161 330.965 211.435 332.665 211.435ZM328.893 217.301C328.893 219.311 330.261 220.803 332.064 220.803C333.888 220.803 335.193 219.311 335.193 217.301C335.193 215.29 333.888 213.798 332.064 213.798C330.261 213.798 328.893 215.29 328.893 217.301ZM341.33 223.104C340.521 223.104 339.962 222.523 339.962 221.715L339.962 212.762C339.962 212.016 340.438 211.497 341.143 211.497C341.868 211.497 342.428 211.974 342.49 212.658L342.552 214.212C343.029 212.782 344.21 211.518 345.62 211.518C346.428 211.518 346.988 212.036 346.988 212.782C346.988 213.591 346.449 214.13 345.516 214.192C343.754 214.275 342.697 215.642 342.697 217.984L342.697 221.715C342.697 222.523 342.138 223.104 341.33 223.104ZM347.293 217.301C347.293 213.922 349.718 211.373 353.014 211.373C356.558 211.373 358.589 214.171 358.63 217.135C358.651 217.839 358.174 218.295 357.407 218.295L349.863 218.295C350.216 219.87 351.418 220.907 353.014 220.907C353.843 220.907 354.609 220.596 355.335 220.078C355.957 219.684 356.64 219.746 357.014 220.264C357.345 220.762 357.221 221.466 356.64 221.943C355.687 222.772 354.485 223.228 352.993 223.228C349.718 223.228 347.293 220.658 347.293 217.301ZM349.843 216.43L356.102 216.43C355.853 215 354.817 213.756 353.014 213.756C351.397 213.756 350.174 214.813 349.843 216.43ZM364.299 223.104C363.553 223.104 362.952 222.648 362.641 221.819L359.47 213.487C359.138 212.575 359.408 211.746 360.175 211.497C360.941 211.228 361.646 211.601 361.916 212.389L364.299 219.29L366.724 212.389C366.973 211.601 367.698 211.228 368.444 211.497C369.211 211.746 369.48 212.575 369.149 213.487L365.978 221.819C365.667 222.648 365.066 223.104 364.299 223.104ZM372.665 223.104C371.857 223.104 371.298 222.544 371.298 221.715L371.298 212.886C371.298 212.057 371.857 211.497 372.665 211.497C373.474 211.497 374.013 212.057 374.013 212.886L374.013 221.715C374.013 222.544 373.474 223.104 372.665 223.104ZM371.049 208.451C371.049 207.56 371.754 206.855 372.665 206.855C373.577 206.855 374.261 207.56 374.261 208.451C374.261 209.383 373.577 210.088 372.665 210.088C371.754 210.088 371.049 209.383 371.049 208.451ZM376.075 217.301C376.075 213.922 378.499 211.373 381.795 211.373C385.339 211.373 387.37 214.171 387.411 217.135C387.432 217.839 386.955 218.295 386.189 218.295L378.645 218.295C378.997 219.87 380.199 220.907 381.795 220.907C382.624 220.907 383.391 220.596 384.116 220.078C384.738 219.684 385.422 219.746 385.795 220.264C386.126 220.762 386.002 221.466 385.422 221.943C384.468 222.772 383.266 223.228 381.774 223.228C378.499 223.228 376.075 220.658 376.075 217.301ZM378.624 216.43L384.883 216.43C384.634 215 383.598 213.756 381.795 213.756C380.178 213.756 378.955 214.813 378.624 216.43ZM392.666 223.104C392.065 223.104 391.588 222.731 391.36 222.067L388.334 213.487C388.023 212.575 388.293 211.746 389.018 211.477C389.826 211.207 390.593 211.622 390.842 212.451L392.914 218.648L394.987 212.451C395.194 211.85 395.629 211.497 396.189 211.497C396.749 211.497 397.184 211.85 397.391 212.451L399.464 218.648L401.536 212.451C401.806 211.622 402.552 211.207 403.381 211.477C404.085 211.746 404.376 212.575 404.044 213.487L401.018 222.088C400.79 222.731 400.313 223.104 399.712 223.104C399.07 223.104 398.572 222.731 398.365 222.067L396.189 215.912L393.971 222.088C393.743 222.731 393.267 223.104 392.666 223.104ZM407.658 223.104C406.849 223.104 406.29 222.544 406.29 221.715L406.29 212.886C406.29 212.057 406.849 211.497 407.658 211.497C408.466 211.497 409.005 212.057 409.005 212.886L409.005 221.715C409.005 222.544 408.466 223.104 407.658 223.104ZM406.041 208.451C406.041 207.56 406.746 206.855 407.658 206.855C408.57 206.855 409.253 207.56 409.253 208.451C409.253 209.383 408.57 210.088 407.658 210.088C406.746 210.088 406.041 209.383 406.041 208.451ZM413.119 223.104C412.31 223.104 411.751 222.544 411.751 221.715L411.751 212.886C411.751 212.057 412.31 211.497 413.119 211.497C413.927 211.497 414.466 212.057 414.466 212.886L414.466 213.301C415.295 212.098 416.6 211.415 418.134 211.415C420.87 211.415 422.486 213.218 422.466 216.492L422.466 221.715C422.466 222.544 421.906 223.104 421.098 223.104C420.31 223.104 419.73 222.544 419.73 221.715L419.73 216.699C419.751 214.917 418.694 213.715 417.139 213.715C415.543 213.715 414.466 214.917 414.466 216.699L414.466 221.715C414.466 222.544 413.927 223.104 413.119 223.104ZM429.369 220.098C428.705 220.098 428.104 219.995 427.545 219.829C427.234 220.078 427.11 220.368 427.11 220.679C427.11 221.238 427.566 221.528 428.788 221.528L431.234 221.528C433.908 221.528 435.358 222.565 435.358 224.845C435.358 227.145 433.597 228.513 430.053 228.513C427.814 228.513 426.053 228.098 424.768 227.518C424.084 227.207 423.752 226.523 424.084 225.839C424.374 225.28 425.016 225.073 425.742 225.342C426.84 225.777 428.291 226.109 430.094 226.109C431.794 226.109 432.643 225.736 432.643 224.907C432.643 224.078 432.063 223.829 430.716 223.829L428.353 223.829C425.825 223.829 424.436 222.813 424.436 221.238C424.436 220.119 425.078 219.373 425.845 218.876C424.996 218.109 424.498 217.052 424.498 215.829C424.498 213.238 426.529 211.373 429.327 211.373C430.778 211.373 432.001 211.87 432.851 212.699C433.41 211.808 434.239 211.456 434.985 211.435C435.711 211.435 436.208 211.891 436.208 212.534C436.208 213.238 435.731 213.674 434.965 213.694C434.488 213.694 434.094 213.798 433.742 213.984C433.99 214.523 434.115 215.166 434.115 215.829C434.115 218.316 432.208 220.098 429.369 220.098ZM427.089 215.829C427.089 217.052 428.042 217.922 429.369 217.922C430.654 217.922 431.545 217.052 431.545 215.829C431.545 214.585 430.612 213.694 429.327 213.694C428.042 213.694 427.089 214.585 427.089 215.829ZM153.595 265.124C152.766 265.124 152.227 264.544 152.227 263.715L152.227 250.741C152.227 249.933 152.766 249.352 153.595 249.352C154.424 249.352 154.942 249.933 154.942 250.741L154.942 263.715C154.942 264.544 154.424 265.124 153.595 265.124ZM166.206 265.124C165.585 265.124 165.004 264.751 164.859 264.047C164.072 264.751 162.932 265.187 161.626 265.187C158.952 265.187 157.004 263.591 157.004 261.332C157.004 259.031 158.952 257.415 161.688 257.415C162.932 257.415 163.989 257.788 164.756 258.43C164.756 256.44 163.636 255.57 161.771 255.57C160.818 255.57 159.906 255.819 159.16 256.13C158.579 256.378 157.978 256.212 157.75 255.736C157.481 255.218 157.75 254.617 158.351 254.306C159.408 253.746 160.735 253.373 162.227 253.373C165.398 253.373 167.491 254.865 167.491 258.409L167.491 263.653C167.491 264.523 166.994 265.124 166.206 265.124ZM159.699 261.228C159.699 262.451 160.776 263.28 162.289 263.28C163.802 263.28 164.838 262.451 164.838 261.228C164.838 260.026 163.802 259.155 162.289 259.155C160.776 259.155 159.699 260.026 159.699 261.228ZM170.727 270.036C169.525 269.995 168.82 269.394 169.028 268.503C169.173 267.819 169.712 267.446 170.478 267.549C171.39 267.694 172.012 267.342 172.447 265.974L172.717 265.041L169.214 255.425C168.862 254.472 169.193 253.642 169.94 253.394C170.727 253.124 171.432 253.539 171.722 254.43L173.96 261.228L176.116 254.554C176.406 253.663 177.111 253.228 177.877 253.435C178.665 253.642 179.017 254.43 178.686 255.383L174.872 266.43C173.94 269.124 172.779 270.098 170.727 270.036ZM185.516 265.269C182.137 265.269 179.692 262.803 179.692 259.301C179.692 255.798 182.137 253.332 185.516 253.332C188.915 253.332 191.36 255.798 191.36 259.301C191.36 262.803 188.915 265.269 185.516 265.269ZM182.345 259.301C182.345 261.332 183.692 262.803 185.516 262.803C187.339 262.803 188.707 261.332 188.707 259.301C188.707 257.269 187.339 255.798 185.516 255.798C183.692 255.798 182.345 257.269 182.345 259.301ZM200.86 254.886C200.86 254.078 201.399 253.497 202.207 253.497C203.036 253.497 203.575 254.078 203.575 254.886L203.534 260.399C203.534 263.238 201.461 265.207 198.373 265.207C195.264 265.207 193.15 263.238 193.15 260.399L193.15 254.886C193.15 254.078 193.71 253.497 194.539 253.497C195.347 253.497 195.886 254.078 195.886 254.886L195.886 260.254C195.886 261.767 196.881 262.803 198.373 262.803C199.865 262.803 200.86 261.767 200.86 260.254L200.86 254.886ZM205.118 254.658C205.118 254.036 205.574 253.601 206.258 253.601L206.776 253.601L206.776 252.088C206.776 251.259 207.315 250.699 208.123 250.699C208.931 250.699 209.491 251.259 209.491 252.088L209.491 253.601L211.025 253.601C211.688 253.601 212.144 254.036 212.144 254.658C212.144 255.28 211.688 255.715 211.025 255.715L209.491 255.715L209.491 261.124C209.491 262.181 209.823 262.617 210.569 262.617C210.817 262.617 211.087 262.513 211.377 262.513C212.04 262.513 212.475 262.927 212.475 263.674C212.475 264.399 211.895 265.083 209.988 265.083C207.729 265.083 206.776 263.777 206.776 261.539L206.776 255.715L206.258 255.715C205.574 255.715 205.118 255.28 205.118 254.658ZM222.044 254.845C222.52 255.342 222.583 255.964 222.23 256.399C221.857 256.876 221.173 256.917 220.634 256.482C219.785 255.777 219.101 255.466 218.189 255.466C217.215 255.466 216.469 255.839 216.469 256.627C216.469 257.497 217.36 257.808 219.08 258.244C221.401 258.824 223.039 259.611 223.039 261.87C223.039 264.254 220.8 265.29 218.52 265.29C216.386 265.29 214.914 264.689 214.064 263.57C213.588 262.969 213.609 262.244 214.064 261.767C214.5 261.332 215.204 261.373 215.702 261.85C216.655 262.782 217.443 263.073 218.375 263.073C219.453 263.073 220.324 262.699 220.324 261.85C220.324 261.041 219.557 260.648 218.064 260.275C216.178 259.777 213.733 259.01 213.733 256.71C213.733 254.43 215.826 253.311 218.064 253.311C219.95 253.311 221.173 253.891 222.044 254.845ZM239.097 265.124C238.475 265.124 237.895 264.751 237.75 264.047C236.962 264.751 235.822 265.187 234.517 265.187C231.843 265.187 229.895 263.591 229.895 261.332C229.895 259.031 231.843 257.415 234.579 257.415C235.822 257.415 236.879 257.788 237.646 258.43C237.646 256.44 236.527 255.57 234.662 255.57C233.708 255.57 232.796 255.819 232.05 256.13C231.47 256.378 230.869 256.212 230.641 255.736C230.372 255.218 230.641 254.617 231.242 254.306C232.299 253.746 233.625 253.373 235.118 253.373C238.289 253.373 240.382 254.865 240.382 258.409L240.382 263.653C240.382 264.523 239.885 265.124 239.097 265.124ZM232.589 261.228C232.589 262.451 233.667 263.28 235.18 263.28C236.693 263.28 237.729 262.451 237.729 261.228C237.729 260.026 236.693 259.155 235.18 259.155C233.667 259.155 232.589 260.026 232.589 261.228ZM244.251 265.104C243.443 265.104 242.884 264.544 242.884 263.715L242.884 254.886C242.884 254.057 243.443 253.497 244.251 253.497C245.06 253.497 245.599 254.057 245.599 254.886L245.599 255.301C246.428 254.098 247.733 253.415 249.267 253.415C252.003 253.415 253.619 255.218 253.599 258.492L253.599 263.715C253.599 264.544 253.039 265.104 252.231 265.104C251.443 265.104 250.863 264.544 250.863 263.715L250.863 258.699C250.884 256.917 249.827 255.715 248.272 255.715C246.676 255.715 245.599 256.917 245.599 258.699L245.599 263.715C245.599 264.544 245.06 265.104 244.251 265.104ZM260.662 265.166C257.636 265.166 255.418 262.637 255.418 259.301C255.418 255.964 257.636 253.435 260.662 253.435C262.32 253.435 263.605 254.119 264.455 255.321L264.455 250.741C264.455 249.912 264.993 249.352 265.802 249.352C266.61 249.352 267.17 249.912 267.17 250.741L267.17 263.632C267.17 264.523 266.651 265.124 265.905 265.124C265.159 265.124 264.6 264.503 264.537 263.632L264.517 263.197C263.688 264.44 262.361 265.166 260.662 265.166ZM258.133 259.301C258.133 261.311 259.439 262.803 261.263 262.803C263.066 262.803 264.434 261.311 264.434 259.301C264.434 257.29 263.066 255.798 261.263 255.798C259.439 255.798 258.133 257.29 258.133 259.301ZM279.619 265.104C278.873 265.104 278.272 264.648 277.961 263.819L274.79 255.487C274.459 254.575 274.728 253.746 275.495 253.497C276.262 253.228 276.966 253.601 277.236 254.389L279.619 261.29L282.044 254.389C282.293 253.601 283.018 253.228 283.764 253.497C284.531 253.746 284.801 254.575 284.469 255.487L281.298 263.819C280.987 264.648 280.386 265.104 279.619 265.104ZM287.986 265.104C287.177 265.104 286.618 264.544 286.618 263.715L286.618 254.886C286.618 254.057 287.177 253.497 287.986 253.497C288.794 253.497 289.333 254.057 289.333 254.886L289.333 263.715C289.333 264.544 288.794 265.104 287.986 265.104ZM286.369 250.451C286.369 249.56 287.074 248.855 287.986 248.855C288.898 248.855 289.582 249.56 289.582 250.451C289.582 251.383 288.898 252.088 287.986 252.088C287.074 252.088 286.369 251.383 286.369 250.451ZM299.809 254.845C300.286 255.342 300.348 255.964 299.996 256.399C299.623 256.876 298.939 256.917 298.4 256.482C297.55 255.777 296.866 255.466 295.954 255.466C294.98 255.466 294.234 255.839 294.234 256.627C294.234 257.497 295.125 257.808 296.846 258.244C299.167 258.824 300.804 259.611 300.804 261.87C300.804 264.254 298.566 265.29 296.286 265.29C294.151 265.29 292.68 264.689 291.83 263.57C291.353 262.969 291.374 262.244 291.83 261.767C292.265 261.332 292.97 261.373 293.467 261.85C294.421 262.782 295.208 263.073 296.141 263.073C297.219 263.073 298.089 262.699 298.089 261.85C298.089 261.041 297.322 260.648 295.83 260.275C293.944 259.777 291.499 259.01 291.499 256.71C291.499 254.43 293.592 253.311 295.83 253.311C297.716 253.311 298.939 253.891 299.809 254.845ZM310.383 254.886C310.383 254.078 310.922 253.497 311.731 253.497C312.56 253.497 313.098 254.078 313.098 254.886L313.057 260.399C313.057 263.238 310.984 265.207 307.896 265.207C304.788 265.207 302.674 263.238 302.674 260.399L302.674 254.886C302.674 254.078 303.233 253.497 304.062 253.497C304.87 253.497 305.409 254.078 305.409 254.886L305.409 260.254C305.409 261.767 306.404 262.803 307.896 262.803C309.389 262.803 310.383 261.767 310.383 260.254L310.383 254.886ZM324.175 265.124C323.553 265.124 322.973 264.751 322.828 264.047C322.04 264.751 320.9 265.187 319.595 265.187C316.921 265.187 314.973 263.591 314.973 261.332C314.973 259.031 316.921 257.415 319.657 257.415C320.9 257.415 321.957 257.788 322.724 258.43C322.724 256.44 321.605 255.57 319.74 255.57C318.786 255.57 317.875 255.819 317.128 256.13C316.548 256.378 315.947 256.212 315.719 255.736C315.45 255.218 315.719 254.617 316.32 254.306C317.377 253.746 318.704 253.373 320.196 253.373C323.367 253.373 325.46 254.865 325.46 258.409L325.46 263.653C325.46 264.523 324.963 265.124 324.175 265.124ZM317.667 261.228C317.667 262.451 318.745 263.28 320.258 263.28C321.771 263.28 322.807 262.451 322.807 261.228C322.807 260.026 321.771 259.155 320.258 259.155C318.745 259.155 317.667 260.026 317.667 261.228ZM329.33 265.124C328.5 265.124 327.962 264.544 327.962 263.715L327.962 250.741C327.962 249.933 328.5 249.352 329.33 249.352C330.159 249.352 330.677 249.933 330.677 250.741L330.677 263.715C330.677 264.544 330.159 265.124 329.33 265.124ZM340.275 265.104C339.467 265.104 338.907 264.544 338.907 263.715L338.907 254.907C338.907 254.098 339.467 253.497 340.275 253.497C341.083 253.497 341.622 254.098 341.622 254.907L341.622 255.259C342.347 254.057 343.404 253.415 344.834 253.415C346.43 253.415 347.57 254.223 348.109 255.528C348.834 254.181 350.161 253.415 351.881 253.415C354.244 253.415 355.902 255.01 355.902 257.725L355.902 263.715C355.902 264.544 355.342 265.104 354.534 265.104C353.746 265.104 353.187 264.544 353.187 263.715L353.187 258.14C353.187 256.668 352.275 255.715 350.99 255.715C349.684 255.715 348.772 256.668 348.772 258.14L348.772 263.715C348.772 264.544 348.192 265.104 347.404 265.104C346.617 265.104 346.036 264.544 346.036 263.715L346.036 258.14C346.036 256.668 345.145 255.715 343.922 255.715C342.575 255.715 341.622 256.668 341.622 258.14L341.622 263.715C341.622 264.544 341.083 265.104 340.275 265.104ZM363.594 265.269C360.215 265.269 357.77 262.803 357.77 259.301C357.77 255.798 360.215 253.332 363.594 253.332C366.993 253.332 369.438 255.798 369.438 259.301C369.438 262.803 366.993 265.269 363.594 265.269ZM360.423 259.301C360.423 261.332 361.77 262.803 363.594 262.803C365.418 262.803 366.785 261.332 366.785 259.301C366.785 257.269 365.418 255.798 363.594 255.798C361.77 255.798 360.423 257.269 360.423 259.301ZM376.883 265.228C373.463 265.228 371.059 262.782 371.059 259.301C371.059 255.819 373.463 253.373 376.883 253.373C378.582 253.373 380.033 254.161 380.924 255.197C381.442 255.798 381.484 256.544 381.028 257C380.551 257.518 379.743 257.435 379.121 256.855C378.479 256.212 377.774 255.819 376.883 255.819C375.017 255.819 373.691 257.269 373.691 259.301C373.691 261.332 375.017 262.782 376.883 262.782C377.753 262.782 378.52 262.347 379.225 261.684C379.805 261.207 380.551 261.166 381.028 261.642C381.484 262.119 381.463 262.824 380.966 263.404C380.033 264.503 378.603 265.228 376.883 265.228ZM384.853 265.124C384.045 265.124 383.485 264.565 383.485 263.736L383.485 250.741C383.485 249.912 384.045 249.352 384.853 249.352C385.661 249.352 386.2 249.912 386.2 250.741L386.2 258.057L390.117 253.953C390.718 253.311 391.527 253.207 392.065 253.705C392.625 254.202 392.521 255.031 391.858 255.694L388.729 258.72L392.314 262.803C392.894 263.508 392.957 264.316 392.438 264.813C391.817 265.415 390.967 265.29 390.345 264.523L386.2 259.466L386.2 263.736C386.2 264.565 385.661 265.124 384.853 265.124ZM402.071 254.886C402.071 254.078 402.61 253.497 403.418 253.497C404.247 253.497 404.786 254.078 404.786 254.886L404.744 260.399C404.744 263.238 402.672 265.207 399.584 265.207C396.475 265.207 394.361 263.238 394.361 260.399L394.361 254.886C394.361 254.078 394.921 253.497 395.75 253.497C396.558 253.497 397.097 254.078 397.097 254.886L397.097 260.254C397.097 261.767 398.092 262.803 399.584 262.803C401.076 262.803 402.071 261.767 402.071 260.254L402.071 254.886ZM413.852 253.435C416.878 253.435 419.096 255.964 419.096 259.301C419.096 262.637 416.878 265.166 413.852 265.166C412.194 265.166 410.909 264.482 410.059 263.28L410.059 267.86C410.059 268.689 409.521 269.249 408.712 269.249C407.904 269.249 407.344 268.689 407.344 267.86L407.344 254.969C407.344 254.078 407.863 253.477 408.609 253.477C409.355 253.477 409.914 254.098 409.977 254.969L409.997 255.404C410.826 254.161 412.153 253.435 413.852 253.435ZM410.08 259.301C410.08 261.311 411.448 262.803 413.251 262.803C415.075 262.803 416.381 261.311 416.381 259.301C416.381 257.29 415.075 255.798 413.251 255.798C411.448 255.798 410.08 257.29 410.08 259.301ZM428.763 254.845C429.239 255.342 429.301 255.964 428.949 256.399C428.576 256.876 427.892 256.917 427.353 256.482C426.503 255.777 425.82 255.466 424.908 255.466C423.933 255.466 423.187 255.839 423.187 256.627C423.187 257.497 424.079 257.808 425.799 258.244C428.12 258.824 429.757 259.611 429.757 261.87C429.757 264.254 427.519 265.29 425.239 265.29C423.104 265.29 421.633 264.689 420.783 263.57C420.307 262.969 420.327 262.244 420.783 261.767C421.218 261.332 421.923 261.373 422.421 261.85C423.374 262.782 424.161 263.073 425.094 263.073C426.172 263.073 427.042 262.699 427.042 261.85C427.042 261.041 426.275 260.648 424.783 260.275C422.897 259.777 420.452 259.01 420.452 256.71C420.452 254.43 422.545 253.311 424.783 253.311C426.669 253.311 427.892 253.891 428.763 254.845ZM433.223 265.124C432.186 265.124 431.357 264.295 431.357 263.259C431.357 262.223 432.186 261.394 433.223 261.394C434.259 261.394 435.088 262.223 435.088 263.259C435.088 264.295 434.259 265.124 433.223 265.124Z" fill="black"/>
</g>
<defs>
<linearGradient id="paint0_linear_770_314" x1="247.125" y1="1.77993" x2="245.793" y2="224.045" gradientUnits="userSpaceOnUse">
<stop stop-color="#191923"/>
<stop offset="0.5" stop-color="#1B1C30"/>
<stop offset="1" stop-color="#5B5D6E"/>
</linearGradient>
<linearGradient id="paint1_linear_770_314" x1="245.022" y1="109.014" x2="243.653" y2="337.399" gradientUnits="userSpaceOnUse">
<stop stop-color="#191923"/>
<stop offset="0.5" stop-color="#1B1C30"/>
<stop offset="1" stop-color="#5B5D6E"/>
</linearGradient>
<linearGradient id="paint2_linear_770_314" x1="544.494" y1="271.914" x2="544.357" y2="294.813" gradientUnits="userSpaceOnUse">
<stop stop-color="#191923"/>
<stop offset="0.5" stop-color="#1B1C30"/>
<stop offset="1" stop-color="#5B5D6E"/>
</linearGradient>
<linearGradient id="paint3_linear_770_314" x1="546.789" y1="218.709" x2="546.424" y2="279.714" gradientUnits="userSpaceOnUse">
<stop stop-color="#191923"/>
<stop offset="0.5" stop-color="#1B1C30"/>
<stop offset="1" stop-color="#5B5D6E"/>
</linearGradient>
<clipPath id="clip0_770_314">
<rect width="604.963" height="335.691" fill="white" transform="matrix(-0.999982 -0.00599313 -0.00599313 0.999982 606.964 3.94073)"/>
</clipPath>
</defs>
</svg>
