<svg width="607" height="340" viewBox="0 0 607 340" fill="none" xmlns="http://www.w3.org/2000/svg">
<g clip-path="url(#clip0_770_354)">
<path d="M599.738 127.756C599.707 129.804 599.677 131.975 599.647 134.27C599.318 151.64 599.338 176.71 598.614 207.642C598.23 223.087 597.638 240.05 596.403 258.163C595.851 267.178 594.996 276.4 592.277 285.347C589.6 294.252 584.842 302.76 577.516 309.44C570.102 316.038 560.862 321.337 550.567 324.266C540.229 327.319 528.926 328.329 517.359 328.644C493.831 328.744 469.437 328.89 444.48 329.039C394.566 329.421 346.948 329.788 303.66 329.474C260.415 329.2 221.455 328.164 188.776 326.721C172.611 326.245 157.952 324.039 146.399 319.52C143.576 318.349 140.967 316.972 138.791 315.346C136.658 313.68 134.739 311.602 133.081 309.687C129.765 305.774 127.616 301.527 126.206 297.562C123.471 289.549 123.3 282.75 122.927 278.246C122.829 276.363 122.733 274.807 122.553 273.661C123.367 272.222 123.318 271.157 123.058 271.2C122.884 271.16 122.669 271.366 122.281 271.778C122.236 271.41 122.191 271.246 122.105 271.247C122.018 271.247 121.847 271.658 121.765 272.396C121.292 272.931 120.516 273.632 119.481 274.417C116.978 276.152 112.874 278.225 107.556 280.141C96.8335 284.056 81.1702 287.754 63.6724 289.006C46.132 290.381 30.1327 288.634 19.1951 285.545C11.1222 283.3 5.68946 280.547 3.25717 279.578C6.11857 279.848 12.8328 279.521 22.0524 277.909C34.5182 275.704 51.2995 270.565 68.4941 262.105C76.961 257.794 84.7759 253.16 91.5505 248.449C98.1944 243.617 103.973 238.994 108.192 234.422C110.476 232.319 112.108 230.015 113.701 228.162C115.119 226.187 116.278 224.378 117.179 222.98C118.634 219.858 119.273 218.052 118.925 217.931C119.229 217.929 119.385 215.061 119.482 209.571C119.493 204.123 119.531 196.094 119.643 185.77C119.667 175.447 119.765 162.789 120.024 148.122C120.153 140.789 120.409 132.923 120.75 124.646C121.09 116.41 121.687 107.517 121.761 98.2182C121.966 88.9592 121.995 79.3736 123.019 69.4542C123.552 64.5354 124.346 59.5741 125.66 54.6915C126.975 49.9728 129.068 44.9627 131.38 40.279C133.735 35.595 136.698 31.2351 140.708 27.8111C144.673 24.3464 149.641 21.8178 155.088 19.778C166.201 15.9018 178.361 13.2482 190.917 11.7392C216.203 8.5973 243.246 9.41835 271.414 9.90496C299.667 10.2272 328.739 9.8891 358.549 9.71044C388.359 9.53178 417.476 9.39824 445.6 9.88511C459.597 10.088 473.422 10.4557 486.9 10.9075C500.379 11.5231 513.684 11.853 526.129 13.4579C538.617 15.0625 550.552 18.2681 560.81 23.5319C571.153 28.6723 579.303 36.4885 584.729 45.427C595.887 63.548 595.406 84.5652 597.682 102.78C598.514 111.501 599.171 119.812 599.695 127.715L599.738 127.756Z" fill="#0A9BB5"/>
<g style="mix-blend-mode:multiply" opacity="0.37">
<path d="M591.937 272.077C567.897 302.411 523.636 313.245 485.786 316.708C437.11 321.178 386.359 319.352 337.601 317.268C309.429 316.085 281.252 314.042 253.202 311.343C227.796 308.914 201.139 307.517 176.277 301.89C166.255 299.616 156.266 295.825 150.84 287.05C144.452 276.725 143.807 263.006 142.003 251.219C128.685 255.764 116.396 265.915 102.092 265.017C99.6648 264.868 98.8684 262.128 100.854 260.805C154.889 225.13 147.67 155.74 156.268 100.92C159.188 82.1 166.18 63.092 182.269 50.7884C195.122 40.9211 211.52 36.8903 227.626 34.8275C254.254 31.3908 281.596 31.6366 308.413 30.8614C343.461 29.8321 378.554 29.2121 413.614 30.1899C440.657 30.9291 467.954 30.8474 494.96 32.7747C518.108 34.4384 542.697 37.7729 562.785 49.491C582.352 60.8845 591.634 76.9276 596.898 94.8381C595.371 78.6666 594.312 61.0176 584.773 45.5496C579.347 36.6111 571.197 28.7949 560.854 23.6545C550.596 18.3498 538.661 15.1852 526.173 13.5805C513.684 11.9758 500.423 11.6457 486.944 11.0301C473.465 10.5783 459.641 10.2106 445.644 10.0077C417.52 9.56182 388.403 9.6544 358.593 9.83306C328.783 10.0117 299.711 10.3498 271.458 10.0276C243.247 9.58219 216.247 8.71992 190.961 11.8618C178.405 13.3708 166.245 16.0653 155.132 19.9006C149.685 21.9405 144.717 24.469 140.752 27.9337C136.742 31.3577 133.779 35.7176 131.424 40.4016C129.112 45.0853 127.019 50.0954 125.704 54.8141C124.39 59.6557 123.596 64.658 123.062 69.5769C122.038 79.4552 121.966 89.0821 121.805 98.3409C121.774 107.64 121.134 116.533 120.793 124.768C120.453 133.086 120.24 140.911 120.068 148.245C119.765 162.912 119.711 175.529 119.687 185.893C119.618 196.216 119.537 204.245 119.526 209.694C119.429 215.183 119.229 218.052 118.969 218.054C119.317 218.174 118.677 219.94 117.223 223.103C116.322 224.501 115.163 226.351 113.744 228.285C112.109 230.097 110.52 232.442 108.236 234.544C103.973 239.117 98.238 243.698 91.5944 248.572C84.8631 253.282 77.0048 257.917 68.538 262.228C51.3867 270.687 34.5621 275.827 22.0962 278.031C12.8766 279.643 6.2055 279.929 3.30102 279.701C5.73331 280.669 11.2094 283.422 19.2389 285.668C30.1763 288.715 46.1758 290.504 63.7163 289.129C81.2138 287.836 96.8774 284.178 107.6 280.264C112.918 278.347 117.022 276.275 119.525 274.539C120.56 273.755 121.336 273.095 121.809 272.518C121.891 271.78 122.062 271.37 122.149 271.369C122.235 271.369 122.28 271.532 122.325 271.901C122.713 271.489 122.885 271.283 123.102 271.323C123.361 271.28 123.411 272.304 122.596 273.783C122.733 274.93 122.872 276.444 122.971 278.369C123.344 282.873 123.515 289.672 126.249 297.684C127.66 301.608 129.808 305.856 133.125 309.809C134.783 311.766 136.702 313.843 138.835 315.469C141.011 317.094 143.619 318.472 146.443 319.643C158.039 324.161 172.654 326.326 188.819 326.844C221.499 328.287 260.459 329.323 303.704 329.596C346.949 329.911 394.61 329.543 444.524 329.162C469.524 329.012 493.875 328.866 517.403 328.766C528.97 328.451 540.273 327.441 550.61 324.389C560.905 321.46 570.19 316.202 577.559 309.562C584.886 302.882 589.644 294.374 592.321 285.469C594.147 279.355 595.107 273.164 595.719 266.933C594.517 268.702 593.314 270.471 591.981 272.158L591.937 272.077Z" fill="#0A9BB5"/>
</g>
<path d="M605.528 190.191C605.187 198.304 604.751 205.024 604.305 210.147C604.183 211.541 604.018 212.853 603.895 214.041C603.321 219.493 602.688 222.282 602.471 222.284C602.167 222.244 602.194 219.377 602.291 213.928C602.345 208.48 602.513 200.45 602.408 190.127C602.27 174.357 601.667 153.183 599.781 127.715C599.257 119.812 598.601 111.5 597.768 102.78C595.493 84.5647 595.93 63.5067 584.816 45.4265C579.389 36.4879 571.24 28.6718 560.896 23.5314C550.638 18.2266 538.704 15.062 526.215 13.4574C513.726 11.8527 500.465 11.5225 486.986 10.9069C473.508 10.4552 459.683 10.0874 445.686 9.88458C417.563 9.43868 388.445 9.53126 358.635 9.70991C328.825 9.88857 299.753 10.2267 271.5 9.90443C243.289 9.45905 216.29 8.59677 191.004 11.7387C178.447 13.2476 166.287 15.9422 155.175 19.7774C149.727 21.8173 144.759 24.3459 140.794 27.8106C136.785 31.2346 133.821 35.5945 131.466 40.2785C129.154 44.9622 127.061 49.9723 125.746 54.691C124.432 59.5326 123.639 64.5349 123.105 69.4537C122.081 79.3321 122.008 88.959 121.847 98.2177C121.816 107.517 121.176 116.41 120.836 124.645C120.496 132.963 120.283 140.788 120.11 148.122C119.808 162.789 119.753 175.406 119.729 185.77C119.661 196.093 119.579 204.122 119.568 209.571C119.471 215.06 119.272 217.929 119.012 217.93C118.752 217.932 118.388 215.067 117.965 209.621C117.499 204.176 117.018 196.15 116.566 185.83C116.114 175.509 115.778 162.813 115.603 148.067C115.559 140.735 115.555 132.829 115.722 124.471C115.845 116.073 116.269 107.386 116.127 98.1701C116.115 88.9124 116.014 79.1636 116.905 68.9174C117.395 63.794 118.143 58.5462 119.498 53.2128C120.938 47.7969 122.944 42.7054 125.384 37.5704C127.909 32.4348 131.258 27.2123 136.085 23.0051C140.826 18.7574 146.658 15.8141 152.581 13.5665C164.384 9.27653 176.933 6.45675 189.965 4.78107C216.03 1.42969 243.462 2.16648 271.542 2.53072C299.535 2.73163 328.693 2.31109 358.547 2.13218C388.4 1.95326 417.604 1.86016 445.772 2.42869C459.855 2.67199 473.68 3.12166 487.246 3.69578C500.769 4.35207 514.074 4.7639 527.213 6.52851C540.31 8.29339 553.026 11.781 564.241 17.6945C575.585 23.4843 584.694 32.3598 590.517 42.32C596.469 52.3204 599.307 63.0359 600.668 73.2686C601.986 83.5016 602.607 93.0834 603.399 102.377C606.134 139.392 606.314 169.458 605.528 190.191Z" fill="url(#paint0_linear_770_354)"/>
<path d="M604.29 207.69L604.305 210.147C604.264 225.017 603.971 241.2 603.078 258.533C602.656 267.629 601.891 277.342 599.134 287.149C596.376 296.915 591.062 306.737 582.745 314.406C574.514 321.993 564.28 327.789 552.861 331.175C541.529 334.561 529.49 335.658 517.533 336.016C494.006 336.198 469.525 336.386 444.525 336.577C394.568 336.958 346.862 337.121 303.572 336.438C260.194 335.756 221.144 334.147 188.461 332.049C171.947 331.164 156.896 328.592 144.515 323.341C141.431 321.967 138.561 320.345 136.079 318.312C133.553 316.197 131.72 314.037 130.017 311.835C126.525 307.432 124.503 302.651 123.221 298.399C120.785 289.688 121.177 282.763 121.323 278.215C121.36 277.068 121.44 276.084 121.478 275.183C121.558 273.953 121.639 273.052 121.765 272.355C121.847 271.617 122.018 271.206 122.105 271.206C122.191 271.205 122.235 271.369 122.281 271.737C122.37 272.105 122.46 272.719 122.552 273.579C122.689 274.725 122.828 276.24 122.926 278.164C123.3 282.668 123.471 289.467 126.205 297.48C127.615 301.404 129.764 305.651 133.08 309.605C134.739 311.561 136.658 313.639 138.791 315.264C140.967 316.89 143.575 318.267 146.398 319.438C157.995 323.956 172.61 326.122 188.775 326.639C221.454 328.082 260.414 329.119 303.659 329.392C346.905 329.706 394.565 329.339 444.479 328.958C469.48 328.808 493.83 328.662 517.358 328.562C528.925 328.247 540.228 327.237 550.566 324.184C560.861 321.255 570.145 315.997 577.515 309.358C584.841 302.678 589.6 294.17 592.276 285.265C594.952 276.319 595.807 267.097 596.403 258.081C597.638 239.968 598.186 223.006 598.613 207.56C599.338 176.628 599.318 151.558 599.647 134.188C599.676 131.894 599.706 129.681 599.738 127.674C599.878 122.102 600.024 117.595 600.177 114.235C600.41 109.646 600.655 107.269 600.959 107.267C601.262 107.265 601.493 109.68 601.824 114.225C602.154 118.77 602.411 125.528 602.766 134.169C603.39 151.493 604.277 176.598 604.29 207.608L604.29 207.69Z" fill="url(#paint1_linear_770_354)"/>
<path d="M122.553 273.661C122.296 274.154 121.995 274.647 121.522 275.224C121.35 275.47 121.135 275.635 120.962 275.841C118.637 278.313 114.537 281 109.179 283.49C98.3765 288.471 82.3272 292.827 64.1797 294.124C46.0332 295.584 29.2498 293.145 18.0458 288.993C6.75511 284.841 1.30811 279.713 1.7387 279.259C1.8677 279.095 2.34505 279.215 3.21383 279.578C3.21408 279.619 3.2574 279.619 3.30049 279.578C5.73277 280.546 11.2089 283.299 19.2384 285.545C30.1758 288.593 46.1753 290.381 63.7157 289.006C81.2133 287.713 96.8768 284.056 107.599 280.141C112.917 278.224 117.021 276.152 119.524 274.416C120.559 273.632 121.335 272.972 121.808 272.395C122.067 272.148 122.196 271.983 122.325 271.819C122.712 271.407 122.884 271.201 123.101 271.241C123.361 271.198 123.411 272.222 122.596 273.701L122.553 273.661Z" fill="url(#paint2_linear_770_354)"/>
<path d="M117.179 223.062C116.277 224.46 115.119 226.31 113.7 228.244C112.065 230.056 110.476 232.401 108.192 234.504C103.929 239.076 98.1939 243.657 91.5503 248.531C84.8191 253.241 76.9608 257.876 68.4939 262.187C51.3426 270.647 34.518 275.786 22.0522 277.991C12.8326 279.603 6.16146 279.888 3.25698 279.66C3.2139 279.701 3.17057 279.701 3.17033 279.661C2.21685 279.625 1.69618 279.505 1.69519 279.342C1.69028 278.522 9.35353 277.493 21.1645 274.473C33.1486 271.411 49.2341 265.866 65.9103 257.656C74.1612 253.469 81.891 249.08 88.5812 244.739C95.1839 240.276 101.052 236.062 105.447 231.98C107.819 230.123 109.54 228.105 111.35 226.497C112.943 224.726 114.233 223.202 115.396 221.967C117.33 219.374 118.578 217.892 118.926 218.054C119.273 218.175 118.634 219.94 117.179 223.103L117.179 223.062Z" fill="url(#paint3_linear_770_354)"/>
<path d="M425.885 82.5337C426.652 82.5337 427.191 83.0311 427.191 83.7565C427.191 84.5026 426.652 85 425.885 85L418.942 85C418.03 85 417.512 84.4611 417.512 83.5907L417.512 71.8808C417.512 70.9689 418.113 70.3886 418.963 70.3886C419.813 70.3886 420.414 70.9689 420.414 71.8808L420.414 82.5337L425.885 82.5337ZM433.82 85.2694C430.442 85.2694 427.996 82.8031 427.996 79.3005C427.996 75.7979 430.442 73.3316 433.82 73.3316C437.219 73.3316 439.665 75.7979 439.665 79.3005C439.665 82.8031 437.219 85.2694 433.82 85.2694ZM430.649 79.3005C430.649 81.3316 431.996 82.8031 433.82 82.8031C435.644 82.8031 437.012 81.3316 437.012 79.3005C437.012 77.2694 435.644 75.7979 433.82 75.7979C431.996 75.7979 430.649 77.2694 430.649 79.3005ZM443.08 85.1036C442.271 85.1036 441.712 84.5233 441.712 83.715L441.712 74.7617C441.712 74.0155 442.188 73.4974 442.893 73.4974C443.618 73.4974 444.178 73.9741 444.24 74.658L444.302 76.2124C444.779 74.7824 445.96 73.5181 447.37 73.5181C448.178 73.5181 448.738 74.0363 448.738 74.7824C448.738 75.5907 448.199 76.1295 447.266 76.1917C445.504 76.2746 444.447 77.6425 444.447 79.9845L444.447 83.715C444.447 84.5233 443.888 85.1036 443.08 85.1036ZM449.043 79.3005C449.043 75.9223 451.468 73.3731 454.764 73.3731C458.308 73.3731 460.339 76.171 460.38 79.1347C460.401 79.8394 459.924 80.2953 459.157 80.2953L451.613 80.2953C451.966 81.8705 453.168 82.9067 454.764 82.9067C455.593 82.9067 456.359 82.5959 457.085 82.0777C457.707 81.6839 458.39 81.7461 458.764 82.2642C459.095 82.7617 458.971 83.4663 458.39 83.943C457.437 84.772 456.235 85.228 454.743 85.228C451.468 85.228 449.043 82.658 449.043 79.3005ZM451.593 78.4301L457.852 78.4301C457.603 77 456.567 75.7565 454.764 75.7565C453.147 75.7565 451.924 76.8135 451.593 78.4301ZM463.587 85.1036C462.779 85.1036 462.219 84.544 462.219 83.715L462.219 74.9067C462.219 74.0984 462.779 73.4974 463.587 73.4974C464.396 73.4974 464.934 74.0984 464.934 74.9067L464.934 75.2591C465.66 74.057 466.717 73.4145 468.147 73.4145C469.743 73.4145 470.883 74.2228 471.422 75.5285C472.147 74.1813 473.473 73.4145 475.194 73.4145C477.556 73.4145 479.214 75.0104 479.214 77.7254L479.214 83.715C479.214 84.544 478.655 85.1036 477.846 85.1036C477.059 85.1036 476.499 84.544 476.499 83.715L476.499 78.1399C476.499 76.6684 475.587 75.715 474.302 75.715C472.997 75.715 472.085 76.6684 472.085 78.1399L472.085 83.715C472.085 84.544 471.504 85.1036 470.717 85.1036C469.929 85.1036 469.349 84.544 469.349 83.715L469.349 78.1399C469.349 76.6684 468.458 75.715 467.235 75.715C465.888 75.715 464.934 76.6684 464.934 78.1399L464.934 83.715C464.934 84.544 464.396 85.1036 463.587 85.1036ZM487.52 71.8601C487.52 70.9896 488.1 70.3886 488.971 70.3886C489.862 70.3886 490.422 70.9896 490.422 71.8601L490.422 83.6321C490.422 84.5026 489.862 85.1036 488.971 85.1036C488.1 85.1036 487.52 84.5026 487.52 83.6321L487.52 71.8601ZM499.594 73.4352C502.62 73.4352 504.838 75.9637 504.838 79.3005C504.838 82.6373 502.62 85.1658 499.594 85.1658C497.936 85.1658 496.651 84.4819 495.802 83.2798L495.802 87.8601C495.802 88.6891 495.263 89.2487 494.455 89.2487C493.646 89.2487 493.087 88.6891 493.087 87.8601L493.087 74.9689C493.087 74.0777 493.605 73.4767 494.351 73.4767C495.097 73.4767 495.657 74.0984 495.719 74.9689L495.739 75.4041C496.568 74.1606 497.895 73.4352 499.594 73.4352ZM495.822 79.3005C495.822 81.3109 497.19 82.8031 498.993 82.8031C500.817 82.8031 502.123 81.3109 502.123 79.3005C502.123 77.2902 500.817 75.7979 498.993 75.7979C497.19 75.7979 495.822 77.2902 495.822 79.3005ZM514.505 74.8446C514.981 75.342 515.044 75.9637 514.691 76.399C514.318 76.8756 513.634 76.9171 513.095 76.4819C512.246 75.7772 511.562 75.4663 510.65 75.4663C509.676 75.4663 508.93 75.8394 508.93 76.6269C508.93 77.4974 509.821 77.8083 511.541 78.2435C513.862 78.8238 515.5 79.6114 515.5 81.8705C515.5 84.2539 513.261 85.2902 510.981 85.2902C508.847 85.2902 507.375 84.6891 506.525 83.5699C506.049 82.9689 506.069 82.2435 506.525 81.7668C506.961 81.3316 507.665 81.3731 508.163 81.8497C509.116 82.7824 509.904 83.0725 510.836 83.0725C511.914 83.0725 512.784 82.6995 512.784 81.8497C512.784 81.0415 512.018 80.6477 510.525 80.2746C508.639 79.7772 506.194 79.0104 506.194 76.7098C506.194 74.4301 508.287 73.3109 510.525 73.3109C512.411 73.3109 513.634 73.8912 514.505 74.8446ZM525.079 74.886C525.079 74.0777 525.618 73.4974 526.426 73.4974C527.255 73.4974 527.794 74.0777 527.794 74.886L527.752 80.399C527.752 83.2383 525.68 85.2073 522.592 85.2073C519.483 85.2073 517.369 83.2383 517.369 80.399L517.369 74.886C517.369 74.0777 517.928 73.4974 518.757 73.4974C519.566 73.4974 520.105 74.0777 520.105 74.886L520.105 80.2539C520.105 81.7668 521.099 82.8031 522.592 82.8031C524.084 82.8031 525.079 81.7668 525.079 80.2539L525.079 74.886ZM531.72 85.1036C530.912 85.1036 530.352 84.544 530.352 83.715L530.352 74.9067C530.352 74.0984 530.912 73.4974 531.72 73.4974C532.528 73.4974 533.067 74.0984 533.067 74.9067L533.067 75.2591C533.793 74.057 534.85 73.4145 536.28 73.4145C537.876 73.4145 539.015 74.2228 539.554 75.5285C540.28 74.1813 541.606 73.4145 543.326 73.4145C545.689 73.4145 547.347 75.0104 547.347 77.7254L547.347 83.715C547.347 84.544 546.787 85.1036 545.979 85.1036C545.192 85.1036 544.632 84.544 544.632 83.715L544.632 78.1399C544.632 76.6684 543.72 75.715 542.435 75.715C541.129 75.715 540.218 76.6684 540.218 78.1399L540.218 83.715C540.218 84.544 539.637 85.1036 538.85 85.1036C538.062 85.1036 537.482 84.544 537.482 83.715L537.482 78.1399C537.482 76.6684 536.591 75.715 535.368 75.715C534.021 75.715 533.067 76.6684 533.067 78.1399L533.067 83.715C533.067 84.544 532.528 85.1036 531.72 85.1036ZM244.549 124.534C245.316 124.534 245.855 125.031 245.855 125.756C245.855 126.503 245.316 127 244.549 127L237.606 127C236.695 127 236.176 126.461 236.176 125.591L236.176 113.881C236.176 112.969 236.777 112.389 237.627 112.389C238.477 112.389 239.078 112.969 239.078 113.881L239.078 124.534L244.549 124.534ZM252.484 127.269C249.106 127.269 246.661 124.803 246.661 121.301C246.661 117.798 249.106 115.332 252.484 115.332C255.883 115.332 258.329 117.798 258.329 121.301C258.329 124.803 255.883 127.269 252.484 127.269ZM249.313 121.301C249.313 123.332 250.661 124.803 252.484 124.803C254.308 124.803 255.676 123.332 255.676 121.301C255.676 119.269 254.308 117.798 252.484 117.798C250.661 117.798 249.313 119.269 249.313 121.301ZM261.744 127.104C260.935 127.104 260.376 126.523 260.376 125.715L260.376 116.762C260.376 116.016 260.852 115.497 261.557 115.497C262.282 115.497 262.842 115.974 262.904 116.658L262.966 118.212C263.443 116.782 264.624 115.518 266.034 115.518C266.842 115.518 267.402 116.036 267.402 116.782C267.402 117.591 266.863 118.13 265.93 118.192C264.168 118.275 263.111 119.642 263.111 121.984L263.111 125.715C263.111 126.523 262.552 127.104 261.744 127.104ZM267.707 121.301C267.707 117.922 270.132 115.373 273.428 115.373C276.972 115.373 279.003 118.171 279.044 121.135C279.065 121.839 278.588 122.295 277.821 122.295L270.277 122.295C270.63 123.87 271.832 124.907 273.428 124.907C274.257 124.907 275.023 124.596 275.749 124.078C276.371 123.684 277.055 123.746 277.428 124.264C277.759 124.762 277.635 125.466 277.055 125.943C276.101 126.772 274.899 127.228 273.407 127.228C270.132 127.228 267.707 124.658 267.707 121.301ZM270.257 120.43L276.516 120.43C276.267 119 275.231 117.756 273.428 117.756C271.811 117.756 270.588 118.813 270.257 120.43ZM282.251 127.104C281.443 127.104 280.884 126.544 280.884 125.715L280.884 116.907C280.884 116.098 281.443 115.497 282.251 115.497C283.06 115.497 283.599 116.098 283.599 116.907L283.599 117.259C284.324 116.057 285.381 115.415 286.811 115.415C288.407 115.415 289.547 116.223 290.086 117.528C290.811 116.181 292.137 115.415 293.858 115.415C296.22 115.415 297.878 117.01 297.878 119.725L297.878 125.715C297.878 126.544 297.319 127.104 296.51 127.104C295.723 127.104 295.163 126.544 295.163 125.715L295.163 120.14C295.163 118.668 294.251 117.715 292.966 117.715C291.661 117.715 290.749 118.668 290.749 120.14L290.749 125.715C290.749 126.544 290.168 127.104 289.381 127.104C288.593 127.104 288.013 126.544 288.013 125.715L288.013 120.14C288.013 118.668 287.122 117.715 285.899 117.715C284.552 117.715 283.599 118.668 283.599 120.14L283.599 125.715C283.599 126.544 283.06 127.104 282.251 127.104ZM307.283 127.104C306.474 127.104 305.915 126.544 305.915 125.715L305.915 116.886C305.915 116.057 306.474 115.497 307.283 115.497C308.091 115.497 308.63 116.057 308.63 116.886L308.63 125.715C308.63 126.544 308.091 127.104 307.283 127.104ZM305.666 112.451C305.666 111.56 306.371 110.855 307.283 110.855C308.195 110.855 308.878 111.56 308.878 112.451C308.878 113.383 308.195 114.088 307.283 114.088C306.371 114.088 305.666 113.383 305.666 112.451ZM317.883 115.435C320.909 115.435 323.127 117.964 323.127 121.301C323.127 124.637 320.909 127.166 317.883 127.166C316.225 127.166 314.94 126.482 314.091 125.28L314.091 129.86C314.091 130.689 313.552 131.249 312.744 131.249C311.935 131.249 311.376 130.689 311.376 129.86L311.376 116.969C311.376 116.078 311.894 115.477 312.64 115.477C313.386 115.477 313.946 116.098 314.008 116.969L314.029 117.404C314.858 116.161 316.184 115.435 317.883 115.435ZM314.111 121.301C314.111 123.311 315.479 124.803 317.282 124.803C319.106 124.803 320.412 123.311 320.412 121.301C320.412 119.29 319.106 117.798 317.282 117.798C315.479 117.798 314.111 119.29 314.111 121.301ZM332.794 116.845C333.27 117.342 333.333 117.964 332.98 118.399C332.607 118.876 331.923 118.917 331.384 118.482C330.535 117.777 329.851 117.466 328.939 117.466C327.965 117.466 327.219 117.839 327.219 118.627C327.219 119.497 328.11 119.808 329.83 120.244C332.151 120.824 333.789 121.611 333.789 123.87C333.789 126.254 331.55 127.29 329.27 127.29C327.136 127.29 325.664 126.689 324.814 125.57C324.338 124.969 324.359 124.244 324.814 123.767C325.25 123.332 325.954 123.373 326.452 123.85C327.405 124.782 328.193 125.073 329.125 125.073C330.203 125.073 331.074 124.699 331.074 123.85C331.074 123.041 330.307 122.648 328.814 122.275C326.928 121.777 324.483 121.01 324.483 118.71C324.483 116.43 326.576 115.311 328.814 115.311C330.7 115.311 331.923 115.891 332.794 116.845ZM343.368 116.886C343.368 116.078 343.907 115.497 344.715 115.497C345.544 115.497 346.083 116.078 346.083 116.886L346.041 122.399C346.041 125.238 343.969 127.207 340.881 127.207C337.772 127.207 335.658 125.238 335.658 122.399L335.658 116.886C335.658 116.078 336.217 115.497 337.047 115.497C337.855 115.497 338.394 116.078 338.394 116.886L338.394 122.254C338.394 123.767 339.388 124.803 340.881 124.803C342.373 124.803 343.368 123.767 343.368 122.254L343.368 116.886ZM350.009 127.104C349.201 127.104 348.641 126.544 348.641 125.715L348.641 116.907C348.641 116.098 349.201 115.497 350.009 115.497C350.817 115.497 351.356 116.098 351.356 116.907L351.356 117.259C352.082 116.057 353.139 115.415 354.569 115.415C356.165 115.415 357.305 116.223 357.843 117.528C358.569 116.181 359.895 115.415 361.615 115.415C363.978 115.415 365.636 117.01 365.636 119.725L365.636 125.715C365.636 126.544 365.077 127.104 364.268 127.104C363.481 127.104 362.921 126.544 362.921 125.715L362.921 120.14C362.921 118.668 362.009 117.715 360.724 117.715C359.419 117.715 358.507 118.668 358.507 120.14L358.507 125.715C358.507 126.544 357.926 127.104 357.139 127.104C356.351 127.104 355.771 126.544 355.771 125.715L355.771 120.14C355.771 118.668 354.88 117.715 353.657 117.715C352.31 117.715 351.356 118.668 351.356 120.14L351.356 125.715C351.356 126.544 350.817 127.104 350.009 127.104ZM375.04 127.104C374.232 127.104 373.673 126.544 373.673 125.715L373.673 116.886C373.673 116.057 374.232 115.497 375.04 115.497C375.849 115.497 376.388 116.057 376.388 116.886L376.388 125.715C376.388 126.544 375.849 127.104 375.04 127.104ZM373.424 112.451C373.424 111.56 374.129 110.855 375.04 110.855C375.952 110.855 376.636 111.56 376.636 112.451C376.636 113.383 375.952 114.088 375.04 114.088C374.129 114.088 373.424 113.383 373.424 112.451ZM386.864 116.845C387.341 117.342 387.403 117.964 387.051 118.399C386.678 118.876 385.994 118.917 385.455 118.482C384.605 117.777 383.921 117.466 383.009 117.466C382.035 117.466 381.289 117.839 381.289 118.627C381.289 119.497 382.18 119.808 383.9 120.244C386.222 120.824 387.859 121.611 387.859 123.87C387.859 126.254 385.621 127.29 383.341 127.29C381.206 127.29 379.735 126.689 378.885 125.57C378.408 124.969 378.429 124.244 378.885 123.767C379.32 123.332 380.025 123.373 380.522 123.85C381.475 124.782 382.263 125.073 383.196 125.073C384.273 125.073 385.144 124.699 385.144 123.85C385.144 123.041 384.377 122.648 382.885 122.275C380.999 121.777 378.553 121.01 378.553 118.71C378.553 116.43 380.646 115.311 382.885 115.311C384.771 115.311 385.994 115.891 386.864 116.845ZM401.907 115.435C404.933 115.435 407.15 117.964 407.15 121.301C407.15 124.637 404.933 127.166 401.907 127.166C400.249 127.166 398.964 126.482 398.114 125.28L398.114 129.86C398.114 130.689 397.575 131.249 396.767 131.249C395.959 131.249 395.399 130.689 395.399 129.86L395.399 116.969C395.399 116.078 395.917 115.477 396.663 115.477C397.409 115.477 397.969 116.098 398.031 116.969L398.052 117.404C398.881 116.161 400.207 115.435 401.907 115.435ZM398.135 121.301C398.135 123.311 399.503 124.803 401.306 124.803C403.13 124.803 404.435 123.311 404.435 121.301C404.435 119.29 403.13 117.798 401.306 117.798C399.503 117.798 398.135 119.29 398.135 121.301ZM410.572 127.124C409.743 127.124 409.204 126.544 409.204 125.715L409.204 112.741C409.204 111.933 409.743 111.352 410.572 111.352C411.401 111.352 411.919 111.933 411.919 112.741L411.919 125.715C411.919 126.544 411.401 127.124 410.572 127.124ZM423.183 127.124C422.561 127.124 421.981 126.751 421.836 126.047C421.048 126.751 419.908 127.187 418.603 127.187C415.929 127.187 413.981 125.591 413.981 123.332C413.981 121.031 415.929 119.415 418.665 119.415C419.908 119.415 420.965 119.788 421.732 120.43C421.732 118.44 420.613 117.57 418.748 117.57C417.794 117.57 416.882 117.819 416.136 118.13C415.556 118.378 414.955 118.212 414.727 117.736C414.457 117.218 414.727 116.617 415.328 116.306C416.385 115.746 417.711 115.373 419.204 115.373C422.375 115.373 424.468 116.865 424.468 120.409L424.468 125.653C424.468 126.523 423.97 127.124 423.183 127.124ZM416.675 123.228C416.675 124.451 417.753 125.28 419.266 125.28C420.779 125.28 421.815 124.451 421.815 123.228C421.815 122.026 420.779 121.155 419.266 121.155C417.753 121.155 416.675 122.026 416.675 123.228ZM432.109 127.228C428.69 127.228 426.286 124.782 426.286 121.301C426.286 117.819 428.69 115.373 432.109 115.373C433.809 115.373 435.26 116.161 436.151 117.197C436.669 117.798 436.71 118.544 436.254 119C435.778 119.518 434.969 119.435 434.348 118.855C433.705 118.212 433.001 117.819 432.109 117.819C430.244 117.819 428.918 119.269 428.918 121.301C428.918 123.332 430.244 124.782 432.109 124.782C432.98 124.782 433.747 124.347 434.451 123.684C435.032 123.207 435.778 123.166 436.254 123.642C436.71 124.119 436.69 124.824 436.192 125.404C435.26 126.503 433.83 127.228 432.109 127.228ZM437.746 121.301C437.746 117.922 440.171 115.373 443.467 115.373C447.011 115.373 449.042 118.171 449.083 121.135C449.104 121.839 448.627 122.295 447.86 122.295L440.316 122.295C440.669 123.87 441.871 124.907 443.467 124.907C444.296 124.907 445.063 124.596 445.788 124.078C446.41 123.684 447.094 123.746 447.467 124.264C447.798 124.762 447.674 125.466 447.094 125.943C446.14 126.772 444.938 127.228 443.446 127.228C440.171 127.228 437.746 124.658 437.746 121.301ZM440.296 120.43L446.555 120.43C446.306 119 445.27 117.756 443.467 117.756C441.85 117.756 440.627 118.813 440.296 120.43ZM452.29 127.124C451.482 127.124 450.923 126.565 450.923 125.736L450.923 112.72C450.923 111.891 451.482 111.332 452.29 111.332C453.099 111.332 453.638 111.891 453.638 112.72L453.638 117.259C454.467 116.119 455.772 115.477 457.327 115.477C460.042 115.477 461.658 117.363 461.658 120.637L461.658 125.736C461.658 126.565 461.099 127.124 460.29 127.124C459.503 127.124 458.923 126.565 458.923 125.736L458.923 120.762C458.923 118.959 457.886 117.777 456.311 117.777C454.715 117.777 453.638 118.959 453.638 120.762L453.638 125.736C453.638 126.565 453.099 127.124 452.29 127.124ZM469.305 127.269C465.926 127.269 463.481 124.803 463.481 121.301C463.481 117.798 465.926 115.332 469.305 115.332C472.704 115.332 475.149 117.798 475.149 121.301C475.149 124.803 472.704 127.269 469.305 127.269ZM466.134 121.301C466.134 123.332 467.481 124.803 469.305 124.803C471.128 124.803 472.496 123.332 472.496 121.301C472.496 119.269 471.128 117.798 469.305 117.798C467.481 117.798 466.134 119.269 466.134 121.301ZM478.564 127.124C477.735 127.124 477.196 126.544 477.196 125.715L477.196 112.741C477.196 111.933 477.735 111.352 478.564 111.352C479.393 111.352 479.911 111.933 479.911 112.741L479.911 125.715C479.911 126.544 479.393 127.124 478.564 127.124ZM487.217 127.166C484.191 127.166 481.973 124.637 481.973 121.301C481.973 117.964 484.191 115.435 487.217 115.435C488.875 115.435 490.16 116.119 491.009 117.321L491.009 112.741C491.009 111.912 491.548 111.352 492.356 111.352C493.165 111.352 493.724 111.912 493.724 112.741L493.724 125.632C493.724 126.523 493.206 127.124 492.46 127.124C491.714 127.124 491.154 126.503 491.092 125.632L491.071 125.197C490.242 126.44 488.916 127.166 487.217 127.166ZM484.688 121.301C484.688 123.311 485.994 124.803 487.818 124.803C489.621 124.803 490.989 123.311 490.989 121.301C490.989 119.29 489.621 117.798 487.818 117.798C485.994 117.798 484.688 119.29 484.688 121.301ZM495.778 121.301C495.778 117.922 498.203 115.373 501.498 115.373C505.042 115.373 507.073 118.171 507.114 121.135C507.135 121.839 506.659 122.295 505.892 122.295L498.348 122.295C498.7 123.87 499.902 124.907 501.498 124.907C502.327 124.907 503.094 124.596 503.819 124.078C504.441 123.684 505.125 123.746 505.498 124.264C505.83 124.762 505.705 125.466 505.125 125.943C504.171 126.772 502.969 127.228 501.477 127.228C498.203 127.228 495.778 124.658 495.778 121.301ZM498.327 120.43L504.586 120.43C504.337 119 503.301 117.756 501.498 117.756C499.881 117.756 498.659 118.813 498.327 120.43ZM510.322 127.104C509.513 127.104 508.954 126.523 508.954 125.715L508.954 116.762C508.954 116.016 509.43 115.497 510.135 115.497C510.861 115.497 511.42 115.974 511.482 116.658L511.544 118.212C512.021 116.782 513.203 115.518 514.612 115.518C515.42 115.518 515.98 116.036 515.98 116.782C515.98 117.591 515.441 118.13 514.508 118.192C512.747 118.275 511.69 119.642 511.69 121.984L511.69 125.715C511.69 126.523 511.13 127.104 510.322 127.104ZM522.235 116.658C522.235 116.036 522.691 115.601 523.375 115.601L523.893 115.601L523.893 114.088C523.893 113.259 524.432 112.699 525.24 112.699C526.049 112.699 526.608 113.259 526.608 114.088L526.608 115.601L528.142 115.601C528.805 115.601 529.261 116.036 529.261 116.658C529.261 117.28 528.805 117.715 528.142 117.715L526.608 117.715L526.608 123.124C526.608 124.181 526.94 124.617 527.686 124.617C527.935 124.617 528.204 124.513 528.494 124.513C529.157 124.513 529.593 124.927 529.593 125.674C529.593 126.399 529.012 127.083 527.106 127.083C524.847 127.083 523.893 125.777 523.893 123.539L523.893 117.715L523.375 117.715C522.691 117.715 522.235 117.28 522.235 116.658ZM530.207 121.301C530.207 117.922 532.632 115.373 535.928 115.373C539.472 115.373 541.503 118.171 541.544 121.135C541.565 121.839 541.088 122.295 540.321 122.295L532.777 122.295C533.13 123.87 534.332 124.907 535.928 124.907C536.757 124.907 537.523 124.596 538.249 124.078C538.871 123.684 539.555 123.746 539.928 124.264C540.259 124.762 540.135 125.466 539.555 125.943C538.601 126.772 537.399 127.228 535.907 127.228C532.632 127.228 530.207 124.658 530.207 121.301ZM532.757 120.43L539.016 120.43C538.767 119 537.731 117.756 535.928 117.756C534.311 117.756 533.088 118.813 532.757 120.43ZM542.521 126.917C541.982 126.482 541.941 125.694 542.459 125.01L545.423 121.135L542.811 117.674C542.293 116.969 542.355 116.161 542.956 115.684C543.578 115.207 544.345 115.394 544.842 116.119L547.205 119.415L549.588 116.119C550.086 115.394 550.853 115.207 551.474 115.684C552.096 116.14 552.158 116.969 551.619 117.674L548.967 121.135L551.91 125.01C552.428 125.694 552.386 126.482 551.847 126.917C551.226 127.415 550.397 127.249 549.878 126.523L547.205 123.021L544.511 126.523C543.992 127.228 543.163 127.415 542.521 126.917ZM553.196 116.658C553.196 116.036 553.652 115.601 554.336 115.601L554.854 115.601L554.854 114.088C554.854 113.259 555.393 112.699 556.201 112.699C557.01 112.699 557.569 113.259 557.569 114.088L557.569 115.601L559.103 115.601C559.766 115.601 560.222 116.036 560.222 116.658C560.222 117.28 559.766 117.715 559.103 117.715L557.569 117.715L557.569 123.124C557.569 124.181 557.901 124.617 558.647 124.617C558.896 124.617 559.165 124.513 559.455 124.513C560.118 124.513 560.554 124.927 560.554 125.674C560.554 126.399 559.973 127.083 558.067 127.083C555.807 127.083 554.854 125.777 554.854 123.539L554.854 117.715L554.336 117.715C553.652 117.715 553.196 117.28 553.196 116.658ZM194.195 169.228C190.776 169.228 188.371 166.782 188.371 163.301C188.371 159.819 190.776 157.373 194.195 157.373C195.895 157.373 197.346 158.161 198.237 159.197C198.755 159.798 198.796 160.544 198.34 161C197.864 161.518 197.055 161.435 196.434 160.855C195.791 160.212 195.086 159.819 194.195 159.819C192.33 159.819 191.004 161.269 191.004 163.301C191.004 165.332 192.33 166.782 194.195 166.782C195.066 166.782 195.833 166.347 196.537 165.684C197.118 165.207 197.864 165.166 198.34 165.642C198.796 166.119 198.776 166.824 198.278 167.404C197.346 168.503 195.915 169.228 194.195 169.228ZM205.656 169.269C202.278 169.269 199.832 166.803 199.832 163.301C199.832 159.798 202.278 157.332 205.656 157.332C209.055 157.332 211.501 159.798 211.501 163.301C211.501 166.803 209.055 169.269 205.656 169.269ZM202.485 163.301C202.485 165.332 203.832 166.803 205.656 166.803C207.48 166.803 208.848 165.332 208.848 163.301C208.848 161.269 207.48 159.798 205.656 159.798C203.832 159.798 202.485 161.269 202.485 163.301ZM214.915 169.104C214.107 169.104 213.548 168.544 213.548 167.715L213.548 158.907C213.548 158.098 214.107 157.497 214.915 157.497C215.724 157.497 216.263 158.098 216.263 158.907L216.263 159.259C216.988 158.057 218.045 157.415 219.475 157.415C221.071 157.415 222.211 158.223 222.75 159.528C223.475 158.181 224.801 157.415 226.522 157.415C228.884 157.415 230.542 159.01 230.542 161.725L230.542 167.715C230.542 168.544 229.983 169.104 229.175 169.104C228.387 169.104 227.827 168.544 227.827 167.715L227.827 162.14C227.827 160.668 226.915 159.715 225.63 159.715C224.325 159.715 223.413 160.668 223.413 162.14L223.413 167.715C223.413 168.544 222.833 169.104 222.045 169.104C221.257 169.104 220.677 168.544 220.677 167.715L220.677 162.14C220.677 160.668 219.786 159.715 218.563 159.715C217.216 159.715 216.263 160.668 216.263 162.14L216.263 167.715C216.263 168.544 215.724 169.104 214.915 169.104ZM234.462 169.104C233.654 169.104 233.094 168.544 233.094 167.715L233.094 158.907C233.094 158.098 233.654 157.497 234.462 157.497C235.271 157.497 235.809 158.098 235.809 158.907L235.809 159.259C236.535 158.057 237.592 157.415 239.022 157.415C240.618 157.415 241.758 158.223 242.297 159.528C243.022 158.181 244.348 157.415 246.069 157.415C248.431 157.415 250.089 159.01 250.089 161.725L250.089 167.715C250.089 168.544 249.53 169.104 248.721 169.104C247.934 169.104 247.374 168.544 247.374 167.715L247.374 162.14C247.374 160.668 246.462 159.715 245.177 159.715C243.872 159.715 242.96 160.668 242.96 162.14L242.96 167.715C242.96 168.544 242.379 169.104 241.592 169.104C240.804 169.104 240.224 168.544 240.224 167.715L240.224 162.14C240.224 160.668 239.333 159.715 238.11 159.715C236.763 159.715 235.809 160.668 235.809 162.14L235.809 167.715C235.809 168.544 235.271 169.104 234.462 169.104ZM257.781 169.269C254.403 169.269 251.957 166.803 251.957 163.301C251.957 159.798 254.403 157.332 257.781 157.332C261.18 157.332 263.626 159.798 263.626 163.301C263.626 166.803 261.18 169.269 257.781 169.269ZM254.61 163.301C254.61 165.332 255.957 166.803 257.781 166.803C259.605 166.803 260.973 165.332 260.973 163.301C260.973 161.269 259.605 159.798 257.781 159.798C255.957 159.798 254.61 161.269 254.61 163.301ZM267.04 169.104C266.232 169.104 265.673 168.544 265.673 167.715L265.673 158.886C265.673 158.057 266.232 157.497 267.04 157.497C267.849 157.497 268.388 158.057 268.388 158.886L268.388 159.301C269.217 158.098 270.522 157.415 272.056 157.415C274.792 157.415 276.408 159.218 276.388 162.492L276.388 167.715C276.388 168.544 275.828 169.104 275.02 169.104C274.232 169.104 273.652 168.544 273.652 167.715L273.652 162.699C273.673 160.917 272.616 159.715 271.061 159.715C269.465 159.715 268.388 160.917 268.388 162.699L268.388 167.715C268.388 168.544 267.849 169.104 267.04 169.104ZM280.259 169.124C279.43 169.124 278.891 168.544 278.891 167.715L278.891 154.741C278.891 153.933 279.43 153.352 280.259 153.352C281.088 153.352 281.606 153.933 281.606 154.741L281.606 167.715C281.606 168.544 281.088 169.124 280.259 169.124ZM285.368 174.036C284.166 173.995 283.461 173.394 283.668 172.503C283.813 171.819 284.352 171.446 285.119 171.549C286.031 171.694 286.653 171.342 287.088 169.974L287.357 169.041L283.855 159.425C283.503 158.472 283.834 157.642 284.58 157.394C285.368 157.124 286.072 157.539 286.363 158.43L288.601 165.228L290.756 158.554C291.047 157.663 291.751 157.228 292.518 157.435C293.306 157.642 293.658 158.43 293.326 159.383L289.513 170.43C288.58 173.124 287.42 174.098 285.368 174.036ZM308.493 158.886C308.493 158.078 309.032 157.497 309.84 157.497C310.669 157.497 311.208 158.078 311.208 158.886L311.166 164.399C311.166 167.238 309.094 169.207 306.006 169.207C302.897 169.207 300.783 167.238 300.783 164.399L300.783 158.886C300.783 158.078 301.342 157.497 302.172 157.497C302.98 157.497 303.519 158.078 303.519 158.886L303.519 164.254C303.519 165.767 304.513 166.803 306.006 166.803C307.498 166.803 308.493 165.767 308.493 164.254L308.493 158.886ZM321.497 158.845C321.974 159.342 322.036 159.964 321.683 160.399C321.31 160.876 320.626 160.917 320.088 160.482C319.238 159.777 318.554 159.466 317.642 159.466C316.668 159.466 315.922 159.839 315.922 160.627C315.922 161.497 316.813 161.808 318.533 162.244C320.854 162.824 322.492 163.611 322.492 165.87C322.492 168.254 320.253 169.29 317.974 169.29C315.839 169.29 314.367 168.689 313.518 167.57C313.041 166.969 313.062 166.244 313.518 165.767C313.953 165.332 314.658 165.373 315.155 165.85C316.108 166.782 316.896 167.073 317.828 167.073C318.906 167.073 319.777 166.699 319.777 165.85C319.777 165.041 319.01 164.648 317.518 164.275C315.632 163.777 313.186 163.01 313.186 160.71C313.186 158.43 315.279 157.311 317.518 157.311C319.404 157.311 320.626 157.891 321.497 158.845ZM323.817 163.301C323.817 159.922 326.242 157.373 329.537 157.373C333.081 157.373 335.112 160.171 335.154 163.135C335.174 163.839 334.698 164.295 333.931 164.295L326.387 164.295C326.739 165.87 327.941 166.907 329.537 166.907C330.366 166.907 331.133 166.596 331.858 166.078C332.48 165.684 333.164 165.746 333.537 166.264C333.869 166.762 333.744 167.466 333.164 167.943C332.211 168.772 331.008 169.228 329.516 169.228C326.242 169.228 323.817 166.658 323.817 163.301ZM326.366 162.43L332.625 162.43C332.376 161 331.34 159.756 329.537 159.756C327.92 159.756 326.698 160.813 326.366 162.43ZM341.81 169.166C338.784 169.166 336.567 166.637 336.567 163.301C336.567 159.964 338.784 157.435 341.81 157.435C343.468 157.435 344.753 158.119 345.603 159.321L345.603 154.741C345.603 153.912 346.142 153.352 346.95 153.352C347.758 153.352 348.318 153.912 348.318 154.741L348.318 167.632C348.318 168.523 347.8 169.124 347.054 169.124C346.308 169.124 345.748 168.503 345.686 167.632L345.665 167.197C344.836 168.44 343.51 169.166 341.81 169.166ZM339.282 163.301C339.282 165.311 340.587 166.803 342.411 166.803C344.214 166.803 345.582 165.311 345.582 163.301C345.582 161.29 344.214 159.798 342.411 159.798C340.587 159.798 339.282 161.29 339.282 163.301ZM357.908 169.104C357.099 169.104 356.54 168.544 356.54 167.715L356.54 158.886C356.54 158.057 357.099 157.497 357.908 157.497C358.716 157.497 359.255 158.057 359.255 158.886L359.255 167.715C359.255 168.544 358.716 169.104 357.908 169.104ZM356.291 154.451C356.291 153.56 356.996 152.855 357.908 152.855C358.82 152.855 359.503 153.56 359.503 154.451C359.503 155.383 358.82 156.088 357.908 156.088C356.996 156.088 356.291 155.383 356.291 154.451ZM363.369 169.104C362.56 169.104 362.001 168.544 362.001 167.715L362.001 158.886C362.001 158.057 362.56 157.497 363.369 157.497C364.177 157.497 364.716 158.057 364.716 158.886L364.716 159.301C365.545 158.098 366.85 157.415 368.384 157.415C371.12 157.415 372.736 159.218 372.716 162.492L372.716 167.715C372.716 168.544 372.156 169.104 371.348 169.104C370.56 169.104 369.98 168.544 369.98 167.715L369.98 162.699C370.001 160.917 368.944 159.715 367.389 159.715C365.793 159.715 364.716 160.917 364.716 162.699L364.716 167.715C364.716 168.544 364.177 169.104 363.369 169.104ZM379.688 158.658C379.688 158.036 380.144 157.601 380.828 157.601L381.346 157.601L381.346 156.088C381.346 155.259 381.885 154.699 382.693 154.699C383.502 154.699 384.061 155.259 384.061 156.088L384.061 157.601L385.595 157.601C386.258 157.601 386.714 158.036 386.714 158.658C386.714 159.28 386.258 159.715 385.595 159.715L384.061 159.715L384.061 165.124C384.061 166.181 384.393 166.617 385.139 166.617C385.388 166.617 385.657 166.513 385.947 166.513C386.611 166.513 387.046 166.927 387.046 167.674C387.046 168.399 386.465 169.083 384.559 169.083C382.3 169.083 381.346 167.777 381.346 165.539L381.346 159.715L380.828 159.715C380.144 159.715 379.688 159.28 379.688 158.658ZM390.439 169.124C389.631 169.124 389.071 168.565 389.071 167.736L389.071 154.72C389.071 153.891 389.631 153.332 390.439 153.332C391.247 153.332 391.786 153.891 391.786 154.72L391.786 159.259C392.615 158.119 393.921 157.477 395.475 157.477C398.19 157.477 399.807 159.363 399.807 162.637L399.807 167.736C399.807 168.565 399.247 169.124 398.439 169.124C397.651 169.124 397.071 168.565 397.071 167.736L397.071 162.762C397.071 160.959 396.035 159.777 394.46 159.777C392.864 159.777 391.786 160.959 391.786 162.762L391.786 167.736C391.786 168.565 391.247 169.124 390.439 169.124ZM401.629 163.301C401.629 159.922 404.054 157.373 407.349 157.373C410.893 157.373 412.925 160.171 412.966 163.135C412.987 163.839 412.51 164.295 411.743 164.295L404.199 164.295C404.552 165.87 405.754 166.907 407.349 166.907C408.178 166.907 408.945 166.596 409.671 166.078C410.292 165.684 410.976 165.746 411.349 166.264C411.681 166.762 411.557 167.466 410.976 167.943C410.023 168.772 408.821 169.228 407.329 169.228C404.054 169.228 401.629 166.658 401.629 163.301ZM404.178 162.43L410.438 162.43C410.189 161 409.153 159.756 407.349 159.756C405.733 159.756 404.51 160.813 404.178 162.43ZM424.642 166.098C423.979 166.098 423.378 165.995 422.818 165.829C422.507 166.078 422.383 166.368 422.383 166.679C422.383 167.238 422.839 167.528 424.062 167.528L426.507 167.528C429.181 167.528 430.632 168.565 430.632 170.845C430.632 173.145 428.87 174.513 425.326 174.513C423.088 174.513 421.326 174.098 420.041 173.518C419.357 173.207 419.026 172.523 419.357 171.839C419.647 171.28 420.29 171.073 421.015 171.342C422.114 171.777 423.564 172.109 425.367 172.109C427.067 172.109 427.917 171.736 427.917 170.907C427.917 170.078 427.336 169.829 425.989 169.829L423.627 169.829C421.098 169.829 419.709 168.813 419.709 167.238C419.709 166.119 420.352 165.373 421.119 164.876C420.269 164.109 419.772 163.052 419.772 161.829C419.772 159.238 421.803 157.373 424.601 157.373C426.051 157.373 427.274 157.87 428.124 158.699C428.684 157.808 429.513 157.456 430.259 157.435C430.984 157.435 431.481 157.891 431.481 158.534C431.481 159.238 431.005 159.674 430.238 159.694C429.761 159.694 429.367 159.798 429.015 159.984C429.264 160.523 429.388 161.166 429.388 161.829C429.388 164.316 427.481 166.098 424.642 166.098ZM422.362 161.829C422.362 163.052 423.316 163.922 424.642 163.922C425.927 163.922 426.818 163.052 426.818 161.829C426.818 160.585 425.886 159.694 424.601 159.694C423.316 159.694 422.362 160.585 422.362 161.829ZM434.009 169.104C433.201 169.104 432.641 168.523 432.641 167.715L432.641 158.762C432.641 158.016 433.118 157.497 433.823 157.497C434.548 157.497 435.108 157.974 435.17 158.658L435.232 160.212C435.709 158.782 436.89 157.518 438.299 157.518C439.108 157.518 439.667 158.036 439.667 158.782C439.667 159.591 439.128 160.13 438.196 160.192C436.434 160.275 435.377 161.642 435.377 163.984L435.377 167.715C435.377 168.523 434.817 169.104 434.009 169.104ZM449.48 169.124C448.858 169.124 448.278 168.751 448.133 168.047C447.345 168.751 446.205 169.187 444.899 169.187C442.226 169.187 440.278 167.591 440.278 165.332C440.278 163.031 442.226 161.415 444.962 161.415C446.205 161.415 447.262 161.788 448.029 162.43C448.029 160.44 446.91 159.57 445.045 159.57C444.091 159.57 443.179 159.819 442.433 160.13C441.853 160.378 441.252 160.212 441.024 159.736C440.754 159.218 441.024 158.617 441.625 158.306C442.682 157.746 444.008 157.373 445.5 157.373C448.671 157.373 450.765 158.865 450.765 162.409L450.765 167.653C450.765 168.523 450.267 169.124 449.48 169.124ZM442.972 165.228C442.972 166.451 444.05 167.28 445.563 167.28C447.076 167.28 448.112 166.451 448.112 165.228C448.112 164.026 447.076 163.155 445.563 163.155C444.05 163.155 442.972 164.026 442.972 165.228ZM459.774 157.435C462.8 157.435 465.018 159.964 465.018 163.301C465.018 166.637 462.8 169.166 459.774 169.166C458.116 169.166 456.831 168.482 455.981 167.28L455.981 171.86C455.981 172.689 455.442 173.249 454.634 173.249C453.826 173.249 453.266 172.689 453.266 171.86L453.266 158.969C453.266 158.078 453.784 157.477 454.531 157.477C455.277 157.477 455.836 158.098 455.898 158.969L455.919 159.404C456.748 158.161 458.075 157.435 459.774 157.435ZM456.002 163.301C456.002 165.311 457.37 166.803 459.173 166.803C460.997 166.803 462.303 165.311 462.303 163.301C462.303 161.29 460.997 159.798 459.173 159.798C457.37 159.798 456.002 161.29 456.002 163.301ZM468.439 169.124C467.631 169.124 467.071 168.565 467.071 167.736L467.071 154.72C467.071 153.891 467.631 153.332 468.439 153.332C469.247 153.332 469.786 153.891 469.786 154.72L469.786 159.259C470.615 158.119 471.921 157.477 473.475 157.477C476.19 157.477 477.807 159.363 477.807 162.637L477.807 167.736C477.807 168.565 477.247 169.124 476.439 169.124C475.651 169.124 475.071 168.565 475.071 167.736L475.071 162.762C475.071 160.959 474.035 159.777 472.46 159.777C470.864 159.777 469.786 160.959 469.786 162.762L469.786 167.736C469.786 168.565 469.247 169.124 468.439 169.124ZM481.681 169.104C480.873 169.104 480.313 168.544 480.313 167.715L480.313 158.886C480.313 158.057 480.873 157.497 481.681 157.497C482.489 157.497 483.028 158.057 483.028 158.886L483.028 167.715C483.028 168.544 482.489 169.104 481.681 169.104ZM480.064 154.451C480.064 153.56 480.769 152.855 481.681 152.855C482.593 152.855 483.277 153.56 483.277 154.451C483.277 155.383 482.593 156.088 481.681 156.088C480.769 156.088 480.064 155.383 480.064 154.451ZM490.914 169.228C487.494 169.228 485.09 166.782 485.09 163.301C485.09 159.819 487.494 157.373 490.914 157.373C492.614 157.373 494.064 158.161 494.955 159.197C495.474 159.798 495.515 160.544 495.059 161C494.582 161.518 493.774 161.435 493.152 160.855C492.51 160.212 491.805 159.819 490.914 159.819C489.049 159.819 487.722 161.269 487.722 163.301C487.722 165.332 489.049 166.782 490.914 166.782C491.784 166.782 492.551 166.347 493.256 165.684C493.836 165.207 494.582 165.166 495.059 165.642C495.515 166.119 495.494 166.824 494.997 167.404C494.064 168.503 492.634 169.228 490.914 169.228ZM497.578 166.865C497.744 165.953 498.49 165.352 499.319 165.56C500.148 165.767 500.563 166.534 500.231 167.466L498.926 171.176C498.698 171.839 498.2 172.192 497.641 172.067C497.06 171.922 496.77 171.383 496.895 170.679L497.578 166.865ZM514.594 157.435C517.62 157.435 519.838 159.964 519.838 163.301C519.838 166.637 517.62 169.166 514.594 169.166C512.936 169.166 511.651 168.482 510.802 167.28L510.802 171.86C510.802 172.689 510.263 173.249 509.455 173.249C508.646 173.249 508.087 172.689 508.087 171.86L508.087 158.969C508.087 158.078 508.605 157.477 509.351 157.477C510.097 157.477 510.657 158.098 510.719 158.969L510.739 159.404C511.568 158.161 512.895 157.435 514.594 157.435ZM510.822 163.301C510.822 165.311 512.19 166.803 513.993 166.803C515.817 166.803 517.123 165.311 517.123 163.301C517.123 161.29 515.817 159.798 513.993 159.798C512.19 159.798 510.822 161.29 510.822 163.301ZM523.259 169.104C522.451 169.104 521.891 168.523 521.891 167.715L521.891 158.762C521.891 158.016 522.368 157.497 523.073 157.497C523.798 157.497 524.358 157.974 524.42 158.658L524.482 160.212C524.959 158.782 526.14 157.518 527.549 157.518C528.358 157.518 528.917 158.036 528.917 158.782C528.917 159.591 528.378 160.13 527.446 160.192C525.684 160.275 524.627 161.642 524.627 163.984L524.627 167.715C524.627 168.523 524.067 169.104 523.259 169.104ZM532.072 169.104C531.263 169.104 530.704 168.544 530.704 167.715L530.704 158.886C530.704 158.057 531.263 157.497 532.072 157.497C532.88 157.497 533.419 158.057 533.419 158.886L533.419 167.715C533.419 168.544 532.88 169.104 532.072 169.104ZM530.455 154.451C530.455 153.56 531.16 152.855 532.072 152.855C532.984 152.855 533.668 153.56 533.668 154.451C533.668 155.383 532.984 156.088 532.072 156.088C531.16 156.088 530.455 155.383 530.455 154.451ZM537.533 169.104C536.724 169.104 536.165 168.544 536.165 167.715L536.165 158.886C536.165 158.057 536.724 157.497 537.533 157.497C538.341 157.497 538.88 158.057 538.88 158.886L538.88 159.301C539.709 158.098 541.014 157.415 542.548 157.415C545.284 157.415 546.901 159.218 546.88 162.492L546.88 167.715C546.88 168.544 546.32 169.104 545.512 169.104C544.724 169.104 544.144 168.544 544.144 167.715L544.144 162.699C544.165 160.917 543.108 159.715 541.553 159.715C539.957 159.715 538.88 160.917 538.88 162.699L538.88 167.715C538.88 168.544 538.341 169.104 537.533 169.104ZM548.11 158.658C548.11 158.036 548.566 157.601 549.25 157.601L549.768 157.601L549.768 156.088C549.768 155.259 550.307 154.699 551.115 154.699C551.924 154.699 552.483 155.259 552.483 156.088L552.483 157.601L554.017 157.601C554.68 157.601 555.136 158.036 555.136 158.658C555.136 159.28 554.68 159.715 554.017 159.715L552.483 159.715L552.483 165.124C552.483 166.181 552.815 166.617 553.561 166.617C553.81 166.617 554.079 166.513 554.369 166.513C555.032 166.513 555.468 166.927 555.468 167.674C555.468 168.399 554.887 169.083 552.981 169.083C550.722 169.083 549.768 167.777 549.768 165.539L549.768 159.715L549.25 159.715C548.566 159.715 548.11 159.28 548.11 158.658ZM557.344 166.865C557.51 165.953 558.256 165.352 559.085 165.56C559.914 165.767 560.329 166.534 559.997 167.466L558.691 171.176C558.463 171.839 557.966 172.192 557.406 172.067C556.826 171.922 556.536 171.383 556.66 170.679L557.344 166.865ZM161.597 211.124C160.975 211.124 160.395 210.751 160.25 210.047C159.462 210.751 158.322 211.187 157.017 211.187C154.343 211.187 152.395 209.591 152.395 207.332C152.395 205.031 154.343 203.415 157.079 203.415C158.322 203.415 159.379 203.788 160.146 204.43C160.146 202.44 159.027 201.57 157.162 201.57C156.208 201.57 155.296 201.819 154.55 202.13C153.97 202.378 153.369 202.212 153.141 201.736C152.872 201.218 153.141 200.617 153.742 200.306C154.799 199.746 156.125 199.373 157.618 199.373C160.789 199.373 162.882 200.865 162.882 204.409L162.882 209.653C162.882 210.523 162.385 211.124 161.597 211.124ZM155.089 207.228C155.089 208.451 156.167 209.28 157.68 209.28C159.193 209.28 160.229 208.451 160.229 207.228C160.229 206.026 159.193 205.155 157.68 205.155C156.167 205.155 155.089 206.026 155.089 207.228ZM166.751 211.104C165.943 211.104 165.384 210.544 165.384 209.715L165.384 200.886C165.384 200.057 165.943 199.497 166.751 199.497C167.56 199.497 168.099 200.057 168.099 200.886L168.099 201.301C168.928 200.098 170.233 199.415 171.767 199.415C174.503 199.415 176.119 201.218 176.099 204.492L176.099 209.715C176.099 210.544 175.539 211.104 174.731 211.104C173.943 211.104 173.363 210.544 173.363 209.715L173.363 204.699C173.384 202.917 172.327 201.715 170.772 201.715C169.176 201.715 168.099 202.917 168.099 204.699L168.099 209.715C168.099 210.544 167.56 211.104 166.751 211.104ZM183.162 211.166C180.136 211.166 177.918 208.637 177.918 205.301C177.918 201.964 180.136 199.435 183.162 199.435C184.82 199.435 186.105 200.119 186.955 201.321L186.955 196.741C186.955 195.912 187.493 195.352 188.302 195.352C189.11 195.352 189.67 195.912 189.67 196.741L189.67 209.632C189.67 210.523 189.151 211.124 188.405 211.124C187.659 211.124 187.1 210.503 187.037 209.632L187.017 209.197C186.188 210.44 184.861 211.166 183.162 211.166ZM180.633 205.301C180.633 207.311 181.939 208.803 183.763 208.803C185.566 208.803 186.934 207.311 186.934 205.301C186.934 203.29 185.566 201.798 183.763 201.798C181.939 201.798 180.633 203.29 180.633 205.301ZM204.399 199.435C207.425 199.435 209.643 201.964 209.643 205.301C209.643 208.637 207.425 211.166 204.399 211.166C202.741 211.166 201.456 210.482 200.606 209.28L200.606 213.86C200.606 214.689 200.067 215.249 199.259 215.249C198.451 215.249 197.891 214.689 197.891 213.86L197.891 200.969C197.891 200.078 198.409 199.477 199.156 199.477C199.902 199.477 200.461 200.098 200.523 200.969L200.544 201.404C201.373 200.161 202.7 199.435 204.399 199.435ZM200.627 205.301C200.627 207.311 201.995 208.803 203.798 208.803C205.622 208.803 206.928 207.311 206.928 205.301C206.928 203.29 205.622 201.798 203.798 201.798C201.995 201.798 200.627 203.29 200.627 205.301ZM219.149 200.886C219.149 200.078 219.688 199.497 220.496 199.497C221.325 199.497 221.864 200.078 221.864 200.886L221.823 206.399C221.823 209.238 219.75 211.207 216.662 211.207C213.553 211.207 211.439 209.238 211.439 206.399L211.439 200.886C211.439 200.078 211.999 199.497 212.828 199.497C213.636 199.497 214.175 200.078 214.175 200.886L214.175 206.254C214.175 207.767 215.17 208.803 216.662 208.803C218.154 208.803 219.149 207.767 219.149 206.254L219.149 200.886ZM230.93 211.166C229.231 211.166 227.904 210.44 227.075 209.197L227.055 209.632C226.993 210.503 226.433 211.124 225.687 211.124C224.941 211.124 224.423 210.523 224.423 209.632L224.423 196.741C224.423 195.912 224.982 195.352 225.79 195.352C226.599 195.352 227.138 195.912 227.138 196.741L227.138 201.321C227.987 200.119 229.272 199.435 230.93 199.435C233.956 199.435 236.174 201.964 236.174 205.301C236.174 208.637 233.956 211.166 230.93 211.166ZM227.158 205.301C227.158 207.311 228.526 208.803 230.329 208.803C232.153 208.803 233.459 207.311 233.459 205.301C233.459 203.29 232.153 201.798 230.329 201.798C228.526 201.798 227.158 203.29 227.158 205.301ZM239.595 211.124C238.766 211.124 238.227 210.544 238.227 209.715L238.227 196.741C238.227 195.933 238.766 195.352 239.595 195.352C240.424 195.352 240.942 195.933 240.942 196.741L240.942 209.715C240.942 210.544 240.424 211.124 239.595 211.124ZM245.056 211.104C244.248 211.104 243.688 210.544 243.688 209.715L243.688 200.886C243.688 200.057 244.248 199.497 245.056 199.497C245.864 199.497 246.403 200.057 246.403 200.886L246.403 209.715C246.403 210.544 245.864 211.104 245.056 211.104ZM243.439 196.451C243.439 195.56 244.144 194.855 245.056 194.855C245.968 194.855 246.652 195.56 246.652 196.451C246.652 197.383 245.968 198.088 245.056 198.088C244.144 198.088 243.439 197.383 243.439 196.451ZM256.88 200.845C257.356 201.342 257.419 201.964 257.066 202.399C256.693 202.876 256.009 202.917 255.47 202.482C254.621 201.777 253.937 201.466 253.025 201.466C252.051 201.466 251.305 201.839 251.305 202.627C251.305 203.497 252.196 203.808 253.916 204.244C256.237 204.824 257.875 205.611 257.875 207.87C257.875 210.254 255.636 211.29 253.356 211.29C251.222 211.29 249.75 210.689 248.9 209.57C248.424 208.969 248.444 208.244 248.9 207.767C249.336 207.332 250.04 207.373 250.538 207.85C251.491 208.782 252.279 209.073 253.211 209.073C254.289 209.073 255.159 208.699 255.159 207.85C255.159 207.041 254.393 206.648 252.9 206.275C251.014 205.777 248.569 205.01 248.569 202.71C248.569 200.43 250.662 199.311 252.9 199.311C254.786 199.311 256.009 199.891 256.88 200.845ZM261.298 211.124C260.49 211.124 259.93 210.565 259.93 209.736L259.93 196.72C259.93 195.891 260.49 195.332 261.298 195.332C262.107 195.332 262.645 195.891 262.645 196.72L262.645 201.259C263.474 200.119 264.78 199.477 266.335 199.477C269.05 199.477 270.666 201.363 270.666 204.637L270.666 209.736C270.666 210.565 270.107 211.124 269.298 211.124C268.511 211.124 267.93 210.565 267.93 209.736L267.93 204.762C267.93 202.959 266.894 201.777 265.319 201.777C263.723 201.777 262.645 202.959 262.645 204.762L262.645 209.736C262.645 210.565 262.107 211.124 261.298 211.124ZM274.54 211.104C273.732 211.104 273.173 210.544 273.173 209.715L273.173 200.886C273.173 200.057 273.732 199.497 274.54 199.497C275.349 199.497 275.888 200.057 275.888 200.886L275.888 209.715C275.888 210.544 275.349 211.104 274.54 211.104ZM272.924 196.451C272.924 195.56 273.629 194.855 274.54 194.855C275.452 194.855 276.136 195.56 276.136 196.451C276.136 197.383 275.452 198.088 274.54 198.088C273.629 198.088 272.924 197.383 272.924 196.451ZM280.001 211.104C279.193 211.104 278.634 210.544 278.634 209.715L278.634 200.886C278.634 200.057 279.193 199.497 280.001 199.497C280.81 199.497 281.349 200.057 281.349 200.886L281.349 201.301C282.178 200.098 283.483 199.415 285.017 199.415C287.753 199.415 289.369 201.218 289.349 204.492L289.349 209.715C289.349 210.544 288.789 211.104 287.981 211.104C287.193 211.104 286.613 210.544 286.613 209.715L286.613 204.699C286.634 202.917 285.577 201.715 284.022 201.715C282.426 201.715 281.349 202.917 281.349 204.699L281.349 209.715C281.349 210.544 280.81 211.104 280.001 211.104ZM296.251 208.098C295.588 208.098 294.987 207.995 294.428 207.829C294.117 208.078 293.992 208.368 293.992 208.679C293.992 209.238 294.448 209.528 295.671 209.528L298.117 209.528C300.79 209.528 302.241 210.565 302.241 212.845C302.241 215.145 300.479 216.513 296.935 216.513C294.697 216.513 292.935 216.098 291.65 215.518C290.966 215.207 290.635 214.523 290.966 213.839C291.257 213.28 291.899 213.073 292.625 213.342C293.723 213.777 295.174 214.109 296.977 214.109C298.676 214.109 299.526 213.736 299.526 212.907C299.526 212.078 298.946 211.829 297.599 211.829L295.236 211.829C292.707 211.829 291.319 210.813 291.319 209.238C291.319 208.119 291.961 207.373 292.728 206.876C291.878 206.109 291.381 205.052 291.381 203.829C291.381 201.238 293.412 199.373 296.21 199.373C297.661 199.373 298.884 199.87 299.733 200.699C300.293 199.808 301.122 199.456 301.868 199.435C302.593 199.435 303.091 199.891 303.091 200.534C303.091 201.238 302.614 201.674 301.847 201.694C301.371 201.694 300.977 201.798 300.625 201.984C300.873 202.523 300.998 203.166 300.998 203.829C300.998 206.316 299.091 208.098 296.251 208.098ZM293.972 203.829C293.972 205.052 294.925 205.922 296.251 205.922C297.536 205.922 298.428 205.052 298.428 203.829C298.428 202.585 297.495 201.694 296.21 201.694C294.925 201.694 293.972 202.585 293.972 203.829ZM311.103 211.104C310.295 211.104 309.735 210.544 309.735 209.715L309.735 200.886C309.735 200.057 310.295 199.497 311.103 199.497C311.911 199.497 312.45 200.057 312.45 200.886L312.45 209.715C312.45 210.544 311.911 211.104 311.103 211.104ZM309.486 196.451C309.486 195.56 310.191 194.855 311.103 194.855C312.015 194.855 312.699 195.56 312.699 196.451C312.699 197.383 312.015 198.088 311.103 198.088C310.191 198.088 309.486 197.383 309.486 196.451ZM316.564 211.104C315.756 211.104 315.196 210.544 315.196 209.715L315.196 200.886C315.196 200.057 315.756 199.497 316.564 199.497C317.372 199.497 317.911 200.057 317.911 200.886L317.911 201.301C318.74 200.098 320.046 199.415 321.579 199.415C324.315 199.415 325.932 201.218 325.911 204.492L325.911 209.715C325.911 210.544 325.351 211.104 324.543 211.104C323.756 211.104 323.175 210.544 323.175 209.715L323.175 204.699C323.196 202.917 322.139 201.715 320.585 201.715C318.989 201.715 317.911 202.917 317.911 204.699L317.911 209.715C317.911 210.544 317.372 211.104 316.564 211.104ZM332.974 211.166C329.948 211.166 327.731 208.637 327.731 205.301C327.731 201.964 329.948 199.435 332.974 199.435C334.632 199.435 335.917 200.119 336.767 201.321L336.767 196.741C336.767 195.912 337.306 195.352 338.114 195.352C338.923 195.352 339.482 195.912 339.482 196.741L339.482 209.632C339.482 210.523 338.964 211.124 338.218 211.124C337.472 211.124 336.912 210.503 336.85 209.632L336.829 209.197C336 210.44 334.674 211.166 332.974 211.166ZM330.446 205.301C330.446 207.311 331.752 208.803 333.575 208.803C335.378 208.803 336.746 207.311 336.746 205.301C336.746 203.29 335.378 201.798 333.575 201.798C331.752 201.798 330.446 203.29 330.446 205.301ZM349.743 200.886C349.743 200.078 350.282 199.497 351.09 199.497C351.919 199.497 352.458 200.078 352.458 200.886L352.416 206.399C352.416 209.238 350.344 211.207 347.256 211.207C344.147 211.207 342.033 209.238 342.033 206.399L342.033 200.886C342.033 200.078 342.592 199.497 343.422 199.497C344.23 199.497 344.769 200.078 344.769 200.886L344.769 206.254C344.769 207.767 345.763 208.803 347.256 208.803C348.748 208.803 349.743 207.767 349.743 206.254L349.743 200.886ZM362.747 200.845C363.224 201.342 363.286 201.964 362.933 202.399C362.56 202.876 361.876 202.917 361.338 202.482C360.488 201.777 359.804 201.466 358.892 201.466C357.918 201.466 357.172 201.839 357.172 202.627C357.172 203.497 358.063 203.808 359.783 204.244C362.104 204.824 363.742 205.611 363.742 207.87C363.742 210.254 361.503 211.29 359.224 211.29C357.089 211.29 355.617 210.689 354.768 209.57C354.291 208.969 354.312 208.244 354.768 207.767C355.203 207.332 355.908 207.373 356.405 207.85C357.358 208.782 358.146 209.073 359.078 209.073C360.156 209.073 361.027 208.699 361.027 207.85C361.027 207.041 360.26 206.648 358.768 206.275C356.882 205.777 354.436 205.01 354.436 202.71C354.436 200.43 356.529 199.311 358.768 199.311C360.654 199.311 361.876 199.891 362.747 200.845ZM364.548 200.658C364.548 200.036 365.004 199.601 365.688 199.601L366.206 199.601L366.206 198.088C366.206 197.259 366.745 196.699 367.553 196.699C368.361 196.699 368.921 197.259 368.921 198.088L368.921 199.601L370.454 199.601C371.118 199.601 371.574 200.036 371.574 200.658C371.574 201.28 371.118 201.715 370.454 201.715L368.921 201.715L368.921 207.124C368.921 208.181 369.252 208.617 369.998 208.617C370.247 208.617 370.517 208.513 370.807 208.513C371.47 208.513 371.905 208.927 371.905 209.674C371.905 210.399 371.325 211.083 369.418 211.083C367.159 211.083 366.206 209.777 366.206 207.539L366.206 201.715L365.688 201.715C365.004 201.715 364.548 201.28 364.548 200.658ZM375.087 211.104C374.279 211.104 373.719 210.523 373.719 209.715L373.719 200.762C373.719 200.016 374.196 199.497 374.901 199.497C375.626 199.497 376.186 199.974 376.248 200.658L376.31 202.212C376.787 200.782 377.968 199.518 379.377 199.518C380.186 199.518 380.745 200.036 380.745 200.782C380.745 201.591 380.206 202.13 379.274 202.192C377.512 202.275 376.455 203.642 376.455 205.984L376.455 209.715C376.455 210.523 375.896 211.104 375.087 211.104ZM383.9 211.104C383.092 211.104 382.532 210.544 382.532 209.715L382.532 200.886C382.532 200.057 383.092 199.497 383.9 199.497C384.708 199.497 385.247 200.057 385.247 200.886L385.247 209.715C385.247 210.544 384.708 211.104 383.9 211.104ZM382.283 196.451C382.283 195.56 382.988 194.855 383.9 194.855C384.812 194.855 385.496 195.56 385.496 196.451C385.496 197.383 384.812 198.088 383.9 198.088C382.988 198.088 382.283 197.383 382.283 196.451ZM387.309 205.301C387.309 201.922 389.734 199.373 393.029 199.373C396.573 199.373 398.604 202.171 398.646 205.135C398.666 205.839 398.19 206.295 397.423 206.295L389.879 206.295C390.231 207.87 391.433 208.907 393.029 208.907C393.858 208.907 394.625 208.596 395.35 208.078C395.972 207.684 396.656 207.746 397.029 208.264C397.361 208.762 397.236 209.466 396.656 209.943C395.703 210.772 394.501 211.228 393.008 211.228C389.734 211.228 387.309 208.658 387.309 205.301ZM389.858 204.43L396.117 204.43C395.869 203 394.832 201.756 393.029 201.756C391.413 201.756 390.19 202.813 389.858 204.43ZM408.098 200.845C408.575 201.342 408.637 201.964 408.285 202.399C407.912 202.876 407.228 202.917 406.689 202.482C405.839 201.777 405.155 201.466 404.244 201.466C403.269 201.466 402.523 201.839 402.523 202.627C402.523 203.497 403.415 203.808 405.135 204.244C407.456 204.824 409.093 205.611 409.093 207.87C409.093 210.254 406.855 211.29 404.575 211.29C402.44 211.29 400.969 210.689 400.119 209.57C399.642 208.969 399.663 208.244 400.119 207.767C400.554 207.332 401.259 207.373 401.756 207.85C402.71 208.782 403.497 209.073 404.43 209.073C405.508 209.073 406.378 208.699 406.378 207.85C406.378 207.041 405.611 206.648 404.119 206.275C402.233 205.777 399.788 205.01 399.788 202.71C399.788 200.43 401.881 199.311 404.119 199.311C406.005 199.311 407.228 199.891 408.098 200.845ZM416.841 201.715C416.178 201.715 415.722 201.28 415.722 200.658C415.722 200.036 416.178 199.601 416.841 199.601L417.317 199.601L417.317 198.689C417.317 195.974 419.017 194.813 420.965 194.813C421.67 194.813 422.457 194.979 422.996 195.228C423.618 195.518 423.908 196.119 423.701 196.699C423.514 197.218 422.996 197.466 422.437 197.321C422.126 197.259 421.815 197.197 421.504 197.197C420.675 197.197 420.032 197.756 420.032 199.124L420.032 199.601L421.608 199.601C422.25 199.601 422.727 200.036 422.727 200.658C422.727 201.28 422.25 201.715 421.608 201.715L420.032 201.715L420.032 209.715C420.032 210.523 419.514 211.104 418.685 211.104C417.856 211.104 417.317 210.523 417.317 209.715L417.317 201.715L416.841 201.715ZM428.969 211.269C425.59 211.269 423.145 208.803 423.145 205.301C423.145 201.798 425.59 199.332 428.969 199.332C432.368 199.332 434.813 201.798 434.813 205.301C434.813 208.803 432.368 211.269 428.969 211.269ZM425.798 205.301C425.798 207.332 427.145 208.803 428.969 208.803C430.793 208.803 432.16 207.332 432.16 205.301C432.16 203.269 430.793 201.798 428.969 201.798C427.145 201.798 425.798 203.269 425.798 205.301ZM438.228 211.104C437.42 211.104 436.86 210.523 436.86 209.715L436.86 200.762C436.86 200.016 437.337 199.497 438.041 199.497C438.767 199.497 439.326 199.974 439.389 200.658L439.451 202.212C439.927 200.782 441.109 199.518 442.518 199.518C443.326 199.518 443.886 200.036 443.886 200.782C443.886 201.591 443.347 202.13 442.414 202.192C440.653 202.275 439.596 203.642 439.596 205.984L439.596 209.715C439.596 210.523 439.036 211.104 438.228 211.104ZM457.665 199.435C460.691 199.435 462.908 201.964 462.908 205.301C462.908 208.637 460.691 211.166 457.665 211.166C456.007 211.166 454.722 210.482 453.872 209.28L453.872 213.86C453.872 214.689 453.333 215.249 452.525 215.249C451.717 215.249 451.157 214.689 451.157 213.86L451.157 200.969C451.157 200.078 451.675 199.477 452.421 199.477C453.167 199.477 453.727 200.098 453.789 200.969L453.81 201.404C454.639 200.161 455.965 199.435 457.665 199.435ZM453.893 205.301C453.893 207.311 455.261 208.803 457.064 208.803C458.888 208.803 460.193 207.311 460.193 205.301C460.193 203.29 458.888 201.798 457.064 201.798C455.261 201.798 453.893 203.29 453.893 205.301ZM466.33 211.104C465.521 211.104 464.962 210.523 464.962 209.715L464.962 200.762C464.962 200.016 465.438 199.497 466.143 199.497C466.868 199.497 467.428 199.974 467.49 200.658L467.552 202.212C468.029 200.782 469.21 199.518 470.62 199.518C471.428 199.518 471.988 200.036 471.988 200.782C471.988 201.591 471.449 202.13 470.516 202.192C468.754 202.275 467.697 203.642 467.697 205.984L467.697 209.715C467.697 210.523 467.138 211.104 466.33 211.104ZM472.293 205.301C472.293 201.922 474.718 199.373 478.014 199.373C481.558 199.373 483.589 202.171 483.63 205.135C483.651 205.839 483.174 206.295 482.407 206.295L474.863 206.295C475.216 207.87 476.418 208.907 478.014 208.907C478.843 208.907 479.609 208.596 480.335 208.078C480.957 207.684 481.64 207.746 482.014 208.264C482.345 208.762 482.221 209.466 481.64 209.943C480.687 210.772 479.485 211.228 477.993 211.228C474.718 211.228 472.293 208.658 472.293 205.301ZM474.843 204.43L481.102 204.43C480.853 203 479.817 201.756 478.014 201.756C476.397 201.756 475.174 202.813 474.843 204.43ZM489.299 211.104C488.553 211.104 487.952 210.648 487.641 209.819L484.47 201.487C484.138 200.575 484.408 199.746 485.175 199.497C485.941 199.228 486.646 199.601 486.916 200.389L489.299 207.29L491.724 200.389C491.973 199.601 492.698 199.228 493.444 199.497C494.211 199.746 494.48 200.575 494.149 201.487L490.978 209.819C490.667 210.648 490.066 211.104 489.299 211.104ZM497.665 211.104C496.857 211.104 496.298 210.544 496.298 209.715L496.298 200.886C496.298 200.057 496.857 199.497 497.665 199.497C498.474 199.497 499.013 200.057 499.013 200.886L499.013 209.715C499.013 210.544 498.474 211.104 497.665 211.104ZM496.049 196.451C496.049 195.56 496.754 194.855 497.665 194.855C498.577 194.855 499.261 195.56 499.261 196.451C499.261 197.383 498.577 198.088 497.665 198.088C496.754 198.088 496.049 197.383 496.049 196.451ZM501.075 205.301C501.075 201.922 503.499 199.373 506.795 199.373C510.339 199.373 512.37 202.171 512.411 205.135C512.432 205.839 511.955 206.295 511.189 206.295L503.645 206.295C503.997 207.87 505.199 208.907 506.795 208.907C507.624 208.907 508.391 208.596 509.116 208.078C509.738 207.684 510.422 207.746 510.795 208.264C511.126 208.762 511.002 209.466 510.422 209.943C509.468 210.772 508.266 211.228 506.774 211.228C503.499 211.228 501.075 208.658 501.075 205.301ZM503.624 204.43L509.883 204.43C509.634 203 508.598 201.756 506.795 201.756C505.178 201.756 503.955 202.813 503.624 204.43ZM517.666 211.104C517.065 211.104 516.588 210.731 516.36 210.067L513.334 201.487C513.023 200.575 513.293 199.746 514.018 199.477C514.826 199.207 515.593 199.622 515.842 200.451L517.914 206.648L519.987 200.451C520.194 199.85 520.629 199.497 521.189 199.497C521.749 199.497 522.184 199.85 522.391 200.451L524.464 206.648L526.536 200.451C526.806 199.622 527.552 199.207 528.381 199.477C529.085 199.746 529.376 200.575 529.044 201.487L526.018 210.088C525.79 210.731 525.313 211.104 524.712 211.104C524.07 211.104 523.572 210.731 523.365 210.067L521.189 203.912L518.971 210.088C518.743 210.731 518.267 211.104 517.666 211.104ZM532.658 211.104C531.849 211.104 531.29 210.544 531.29 209.715L531.29 200.886C531.29 200.057 531.849 199.497 532.658 199.497C533.466 199.497 534.005 200.057 534.005 200.886L534.005 209.715C534.005 210.544 533.466 211.104 532.658 211.104ZM531.041 196.451C531.041 195.56 531.746 194.855 532.658 194.855C533.57 194.855 534.253 195.56 534.253 196.451C534.253 197.383 533.57 198.088 532.658 198.088C531.746 198.088 531.041 197.383 531.041 196.451ZM538.119 211.104C537.31 211.104 536.751 210.544 536.751 209.715L536.751 200.886C536.751 200.057 537.31 199.497 538.119 199.497C538.927 199.497 539.466 200.057 539.466 200.886L539.466 201.301C540.295 200.098 541.6 199.415 543.134 199.415C545.87 199.415 547.486 201.218 547.466 204.492L547.466 209.715C547.466 210.544 546.906 211.104 546.098 211.104C545.31 211.104 544.73 210.544 544.73 209.715L544.73 204.699C544.751 202.917 543.694 201.715 542.139 201.715C540.543 201.715 539.466 202.917 539.466 204.699L539.466 209.715C539.466 210.544 538.927 211.104 538.119 211.104ZM554.369 208.098C553.705 208.098 553.104 207.995 552.545 207.829C552.234 208.078 552.11 208.368 552.11 208.679C552.11 209.238 552.566 209.528 553.788 209.528L556.234 209.528C558.908 209.528 560.358 210.565 560.358 212.845C560.358 215.145 558.597 216.513 555.053 216.513C552.814 216.513 551.053 216.098 549.768 215.518C549.084 215.207 548.752 214.523 549.084 213.839C549.374 213.28 550.016 213.073 550.742 213.342C551.84 213.777 553.291 214.109 555.094 214.109C556.794 214.109 557.643 213.736 557.643 212.907C557.643 212.078 557.063 211.829 555.716 211.829L553.353 211.829C550.825 211.829 549.436 210.813 549.436 209.238C549.436 208.119 550.078 207.373 550.845 206.876C549.996 206.109 549.498 205.052 549.498 203.829C549.498 201.238 551.529 199.373 554.327 199.373C555.778 199.373 557.001 199.87 557.851 200.699C558.41 199.808 559.239 199.456 559.985 199.435C560.711 199.435 561.208 199.891 561.208 200.534C561.208 201.238 560.731 201.674 559.964 201.694C559.488 201.694 559.094 201.798 558.742 201.984C558.99 202.523 559.115 203.166 559.115 203.829C559.115 206.316 557.208 208.098 554.369 208.098ZM552.089 203.829C552.089 205.052 553.042 205.922 554.369 205.922C555.654 205.922 556.545 205.052 556.545 203.829C556.545 202.585 555.612 201.694 554.327 201.694C553.042 201.694 552.089 202.585 552.089 203.829ZM278.595 253.124C277.766 253.124 277.227 252.544 277.227 251.715L277.227 238.741C277.227 237.933 277.766 237.352 278.595 237.352C279.424 237.352 279.942 237.933 279.942 238.741L279.942 251.715C279.942 252.544 279.424 253.124 278.595 253.124ZM291.206 253.124C290.585 253.124 290.004 252.751 289.859 252.047C289.072 252.751 287.932 253.187 286.626 253.187C283.952 253.187 282.004 251.591 282.004 249.332C282.004 247.031 283.952 245.415 286.688 245.415C287.932 245.415 288.989 245.788 289.756 246.43C289.756 244.44 288.636 243.57 286.771 243.57C285.818 243.57 284.906 243.819 284.16 244.13C283.579 244.378 282.978 244.212 282.75 243.736C282.481 243.218 282.75 242.617 283.351 242.306C284.408 241.746 285.735 241.373 287.227 241.373C290.398 241.373 292.491 242.865 292.491 246.409L292.491 251.653C292.491 252.523 291.994 253.124 291.206 253.124ZM284.699 249.228C284.699 250.451 285.776 251.28 287.289 251.28C288.802 251.28 289.838 250.451 289.838 249.228C289.838 248.026 288.802 247.155 287.289 247.155C285.776 247.155 284.699 248.026 284.699 249.228ZM295.727 258.036C294.525 257.995 293.82 257.394 294.028 256.503C294.173 255.819 294.712 255.446 295.478 255.549C296.39 255.694 297.012 255.342 297.447 253.974L297.717 253.041L294.214 243.425C293.862 242.472 294.193 241.642 294.94 241.394C295.727 241.124 296.432 241.539 296.722 242.43L298.96 249.228L301.116 242.554C301.406 241.663 302.111 241.228 302.877 241.435C303.665 241.642 304.017 242.43 303.686 243.383L299.872 254.43C298.94 257.124 297.779 258.098 295.727 258.036ZM310.516 253.269C307.137 253.269 304.692 250.803 304.692 247.301C304.692 243.798 307.137 241.332 310.516 241.332C313.915 241.332 316.36 243.798 316.36 247.301C316.36 250.803 313.915 253.269 310.516 253.269ZM307.345 247.301C307.345 249.332 308.692 250.803 310.516 250.803C312.339 250.803 313.707 249.332 313.707 247.301C313.707 245.269 312.339 243.798 310.516 243.798C308.692 243.798 307.345 245.269 307.345 247.301ZM325.86 242.886C325.86 242.078 326.399 241.497 327.207 241.497C328.036 241.497 328.575 242.078 328.575 242.886L328.534 248.399C328.534 251.238 326.461 253.207 323.373 253.207C320.264 253.207 318.15 251.238 318.15 248.399L318.15 242.886C318.15 242.078 318.71 241.497 319.539 241.497C320.347 241.497 320.886 242.078 320.886 242.886L320.886 248.254C320.886 249.767 321.881 250.803 323.373 250.803C324.865 250.803 325.86 249.767 325.86 248.254L325.86 242.886ZM330.118 242.658C330.118 242.036 330.574 241.601 331.258 241.601L331.776 241.601L331.776 240.088C331.776 239.259 332.315 238.699 333.123 238.699C333.931 238.699 334.491 239.259 334.491 240.088L334.491 241.601L336.025 241.601C336.688 241.601 337.144 242.036 337.144 242.658C337.144 243.28 336.688 243.715 336.025 243.715L334.491 243.715L334.491 249.124C334.491 250.181 334.823 250.617 335.569 250.617C335.817 250.617 336.087 250.513 336.377 250.513C337.04 250.513 337.475 250.927 337.475 251.674C337.475 252.399 336.895 253.083 334.988 253.083C332.729 253.083 331.776 251.777 331.776 249.539L331.776 243.715L331.258 243.715C330.574 243.715 330.118 243.28 330.118 242.658ZM347.044 242.845C347.52 243.342 347.583 243.964 347.23 244.399C346.857 244.876 346.173 244.917 345.634 244.482C344.785 243.777 344.101 243.466 343.189 243.466C342.215 243.466 341.469 243.839 341.469 244.627C341.469 245.497 342.36 245.808 344.08 246.244C346.401 246.824 348.039 247.611 348.039 249.87C348.039 252.254 345.8 253.29 343.52 253.29C341.386 253.29 339.914 252.689 339.064 251.57C338.588 250.969 338.609 250.244 339.064 249.767C339.5 249.332 340.204 249.373 340.702 249.85C341.655 250.782 342.443 251.073 343.375 251.073C344.453 251.073 345.324 250.699 345.324 249.85C345.324 249.041 344.557 248.648 343.064 248.275C341.178 247.777 338.733 247.01 338.733 244.71C338.733 242.43 340.826 241.311 343.064 241.311C344.95 241.311 346.173 241.891 347.044 242.845ZM364.097 253.124C363.475 253.124 362.895 252.751 362.75 252.047C361.962 252.751 360.822 253.187 359.517 253.187C356.843 253.187 354.895 251.591 354.895 249.332C354.895 247.031 356.843 245.415 359.579 245.415C360.822 245.415 361.879 245.788 362.646 246.43C362.646 244.44 361.527 243.57 359.662 243.57C358.708 243.57 357.796 243.819 357.05 244.13C356.47 244.378 355.869 244.212 355.641 243.736C355.372 243.218 355.641 242.617 356.242 242.306C357.299 241.746 358.625 241.373 360.118 241.373C363.289 241.373 365.382 242.865 365.382 246.409L365.382 251.653C365.382 252.523 364.885 253.124 364.097 253.124ZM357.589 249.228C357.589 250.451 358.667 251.28 360.18 251.28C361.693 251.28 362.729 250.451 362.729 249.228C362.729 248.026 361.693 247.155 360.18 247.155C358.667 247.155 357.589 248.026 357.589 249.228ZM369.251 253.104C368.443 253.104 367.884 252.544 367.884 251.715L367.884 242.886C367.884 242.057 368.443 241.497 369.251 241.497C370.06 241.497 370.599 242.057 370.599 242.886L370.599 243.301C371.428 242.098 372.733 241.415 374.267 241.415C377.003 241.415 378.619 243.218 378.599 246.492L378.599 251.715C378.599 252.544 378.039 253.104 377.231 253.104C376.443 253.104 375.863 252.544 375.863 251.715L375.863 246.699C375.884 244.917 374.827 243.715 373.272 243.715C371.676 243.715 370.599 244.917 370.599 246.699L370.599 251.715C370.599 252.544 370.06 253.104 369.251 253.104ZM385.662 253.166C382.636 253.166 380.418 250.637 380.418 247.301C380.418 243.964 382.636 241.435 385.662 241.435C387.32 241.435 388.605 242.119 389.455 243.321L389.455 238.741C389.455 237.912 389.993 237.352 390.802 237.352C391.61 237.352 392.17 237.912 392.17 238.741L392.17 251.632C392.17 252.523 391.651 253.124 390.905 253.124C390.159 253.124 389.6 252.503 389.537 251.632L389.517 251.197C388.688 252.44 387.361 253.166 385.662 253.166ZM383.133 247.301C383.133 249.311 384.439 250.803 386.263 250.803C388.066 250.803 389.434 249.311 389.434 247.301C389.434 245.29 388.066 243.798 386.263 243.798C384.439 243.798 383.133 245.29 383.133 247.301ZM404.619 253.104C403.873 253.104 403.272 252.648 402.961 251.819L399.79 243.487C399.459 242.575 399.728 241.746 400.495 241.497C401.262 241.228 401.966 241.601 402.236 242.389L404.619 249.29L407.044 242.389C407.293 241.601 408.018 241.228 408.764 241.497C409.531 241.746 409.801 242.575 409.469 243.487L406.298 251.819C405.987 252.648 405.386 253.104 404.619 253.104ZM412.986 253.104C412.177 253.104 411.618 252.544 411.618 251.715L411.618 242.886C411.618 242.057 412.177 241.497 412.986 241.497C413.794 241.497 414.333 242.057 414.333 242.886L414.333 251.715C414.333 252.544 413.794 253.104 412.986 253.104ZM411.369 238.451C411.369 237.56 412.074 236.855 412.986 236.855C413.898 236.855 414.582 237.56 414.582 238.451C414.582 239.383 413.898 240.088 412.986 240.088C412.074 240.088 411.369 239.383 411.369 238.451ZM424.809 242.845C425.286 243.342 425.348 243.964 424.996 244.399C424.623 244.876 423.939 244.917 423.4 244.482C422.55 243.777 421.866 243.466 420.954 243.466C419.98 243.466 419.234 243.839 419.234 244.627C419.234 245.497 420.125 245.808 421.846 246.244C424.167 246.824 425.804 247.611 425.804 249.87C425.804 252.254 423.566 253.29 421.286 253.29C419.151 253.29 417.68 252.689 416.83 251.57C416.353 250.969 416.374 250.244 416.83 249.767C417.265 249.332 417.97 249.373 418.467 249.85C419.421 250.782 420.208 251.073 421.141 251.073C422.219 251.073 423.089 250.699 423.089 249.85C423.089 249.041 422.322 248.648 420.83 248.275C418.944 247.777 416.499 247.01 416.499 244.71C416.499 242.43 418.592 241.311 420.83 241.311C422.716 241.311 423.939 241.891 424.809 242.845ZM435.383 242.886C435.383 242.078 435.922 241.497 436.731 241.497C437.56 241.497 438.098 242.078 438.098 242.886L438.057 248.399C438.057 251.238 435.984 253.207 432.896 253.207C429.788 253.207 427.674 251.238 427.674 248.399L427.674 242.886C427.674 242.078 428.233 241.497 429.062 241.497C429.87 241.497 430.409 242.078 430.409 242.886L430.409 248.254C430.409 249.767 431.404 250.803 432.896 250.803C434.389 250.803 435.383 249.767 435.383 248.254L435.383 242.886ZM449.175 253.124C448.553 253.124 447.973 252.751 447.828 252.047C447.04 252.751 445.9 253.187 444.595 253.187C441.921 253.187 439.973 251.591 439.973 249.332C439.973 247.031 441.921 245.415 444.657 245.415C445.9 245.415 446.957 245.788 447.724 246.43C447.724 244.44 446.605 243.57 444.74 243.57C443.786 243.57 442.875 243.819 442.128 244.13C441.548 244.378 440.947 244.212 440.719 243.736C440.45 243.218 440.719 242.617 441.32 242.306C442.377 241.746 443.704 241.373 445.196 241.373C448.367 241.373 450.46 242.865 450.46 246.409L450.46 251.653C450.46 252.523 449.963 253.124 449.175 253.124ZM442.667 249.228C442.667 250.451 443.745 251.28 445.258 251.28C446.771 251.28 447.807 250.451 447.807 249.228C447.807 248.026 446.771 247.155 445.258 247.155C443.745 247.155 442.667 248.026 442.667 249.228ZM454.33 253.124C453.5 253.124 452.962 252.544 452.962 251.715L452.962 238.741C452.962 237.933 453.5 237.352 454.33 237.352C455.159 237.352 455.677 237.933 455.677 238.741L455.677 251.715C455.677 252.544 455.159 253.124 454.33 253.124ZM465.275 253.104C464.467 253.104 463.907 252.544 463.907 251.715L463.907 242.907C463.907 242.098 464.467 241.497 465.275 241.497C466.083 241.497 466.622 242.098 466.622 242.907L466.622 243.259C467.347 242.057 468.404 241.415 469.834 241.415C471.43 241.415 472.57 242.223 473.109 243.528C473.834 242.181 475.161 241.415 476.881 241.415C479.244 241.415 480.902 243.01 480.902 245.725L480.902 251.715C480.902 252.544 480.342 253.104 479.534 253.104C478.746 253.104 478.187 252.544 478.187 251.715L478.187 246.14C478.187 244.668 477.275 243.715 475.99 243.715C474.684 243.715 473.772 244.668 473.772 246.14L473.772 251.715C473.772 252.544 473.192 253.104 472.404 253.104C471.617 253.104 471.036 252.544 471.036 251.715L471.036 246.14C471.036 244.668 470.145 243.715 468.922 243.715C467.575 243.715 466.622 244.668 466.622 246.14L466.622 251.715C466.622 252.544 466.083 253.104 465.275 253.104ZM488.594 253.269C485.215 253.269 482.77 250.803 482.77 247.301C482.77 243.798 485.215 241.332 488.594 241.332C491.993 241.332 494.438 243.798 494.438 247.301C494.438 250.803 491.993 253.269 488.594 253.269ZM485.423 247.301C485.423 249.332 486.77 250.803 488.594 250.803C490.418 250.803 491.785 249.332 491.785 247.301C491.785 245.269 490.418 243.798 488.594 243.798C486.77 243.798 485.423 245.269 485.423 247.301ZM501.883 253.228C498.463 253.228 496.059 250.782 496.059 247.301C496.059 243.819 498.463 241.373 501.883 241.373C503.582 241.373 505.033 242.161 505.924 243.197C506.442 243.798 506.484 244.544 506.028 245C505.551 245.518 504.743 245.435 504.121 244.855C503.479 244.212 502.774 243.819 501.883 243.819C500.017 243.819 498.691 245.269 498.691 247.301C498.691 249.332 500.017 250.782 501.883 250.782C502.753 250.782 503.52 250.347 504.225 249.684C504.805 249.207 505.551 249.166 506.028 249.642C506.484 250.119 506.463 250.824 505.966 251.404C505.033 252.503 503.603 253.228 501.883 253.228ZM509.853 253.124C509.045 253.124 508.485 252.565 508.485 251.736L508.485 238.741C508.485 237.912 509.045 237.352 509.853 237.352C510.661 237.352 511.2 237.912 511.2 238.741L511.2 246.057L515.117 241.953C515.718 241.311 516.527 241.207 517.065 241.705C517.625 242.202 517.521 243.031 516.858 243.694L513.729 246.72L517.314 250.803C517.894 251.508 517.957 252.316 517.438 252.813C516.817 253.415 515.967 253.29 515.345 252.523L511.2 247.466L511.2 251.736C511.2 252.565 510.661 253.124 509.853 253.124ZM527.071 242.886C527.071 242.078 527.61 241.497 528.418 241.497C529.247 241.497 529.786 242.078 529.786 242.886L529.744 248.399C529.744 251.238 527.672 253.207 524.584 253.207C521.475 253.207 519.361 251.238 519.361 248.399L519.361 242.886C519.361 242.078 519.921 241.497 520.75 241.497C521.558 241.497 522.097 242.078 522.097 242.886L522.097 248.254C522.097 249.767 523.092 250.803 524.584 250.803C526.076 250.803 527.071 249.767 527.071 248.254L527.071 242.886ZM538.852 241.435C541.878 241.435 544.096 243.964 544.096 247.301C544.096 250.637 541.878 253.166 538.852 253.166C537.194 253.166 535.909 252.482 535.059 251.28L535.059 255.86C535.059 256.689 534.521 257.249 533.712 257.249C532.904 257.249 532.344 256.689 532.344 255.86L532.344 242.969C532.344 242.078 532.863 241.477 533.609 241.477C534.355 241.477 534.914 242.098 534.977 242.969L534.997 243.404C535.826 242.161 537.153 241.435 538.852 241.435ZM535.08 247.301C535.08 249.311 536.448 250.803 538.251 250.803C540.075 250.803 541.381 249.311 541.381 247.301C541.381 245.29 540.075 243.798 538.251 243.798C536.448 243.798 535.08 245.29 535.08 247.301ZM553.763 242.845C554.239 243.342 554.301 243.964 553.949 244.399C553.576 244.876 552.892 244.917 552.353 244.482C551.503 243.777 550.82 243.466 549.908 243.466C548.933 243.466 548.187 243.839 548.187 244.627C548.187 245.497 549.079 245.808 550.799 246.244C553.12 246.824 554.757 247.611 554.757 249.87C554.757 252.254 552.519 253.29 550.239 253.29C548.104 253.29 546.633 252.689 545.783 251.57C545.307 250.969 545.327 250.244 545.783 249.767C546.218 249.332 546.923 249.373 547.421 249.85C548.374 250.782 549.161 251.073 550.094 251.073C551.172 251.073 552.042 250.699 552.042 249.85C552.042 249.041 551.275 248.648 549.783 248.275C547.897 247.777 545.452 247.01 545.452 244.71C545.452 242.43 547.545 241.311 549.783 241.311C551.669 241.311 552.892 241.891 553.763 242.845ZM558.223 253.124C557.186 253.124 556.357 252.295 556.357 251.259C556.357 250.223 557.186 249.394 558.223 249.394C559.259 249.394 560.088 250.223 560.088 251.259C560.088 252.295 559.259 253.124 558.223 253.124Z" fill="black"/>
</g>
<defs>
<linearGradient id="paint0_linear_770_354" x1="359.839" y1="1.4648" x2="361.171" y2="223.73" gradientUnits="userSpaceOnUse">
<stop stop-color="#191923"/>
<stop offset="0.5" stop-color="#1B1C30"/>
<stop offset="1" stop-color="#5B5D6E"/>
</linearGradient>
<linearGradient id="paint1_linear_770_354" x1="361.942" y1="108.699" x2="363.311" y2="337.084" gradientUnits="userSpaceOnUse">
<stop stop-color="#191923"/>
<stop offset="0.5" stop-color="#1B1C30"/>
<stop offset="1" stop-color="#5B5D6E"/>
</linearGradient>
<linearGradient id="paint2_linear_770_354" x1="62.4695" y1="271.599" x2="62.6068" y2="294.498" gradientUnits="userSpaceOnUse">
<stop stop-color="#191923"/>
<stop offset="0.5" stop-color="#1B1C30"/>
<stop offset="1" stop-color="#5B5D6E"/>
</linearGradient>
<linearGradient id="paint3_linear_770_354" x1="60.1744" y1="218.394" x2="60.5401" y2="279.399" gradientUnits="userSpaceOnUse">
<stop stop-color="#191923"/>
<stop offset="0.5" stop-color="#1B1C30"/>
<stop offset="1" stop-color="#5B5D6E"/>
</linearGradient>
<clipPath id="clip0_770_354">
<rect width="604.963" height="335.691" fill="white" transform="translate(0 3.62561) rotate(-0.343383)"/>
</clipPath>
</defs>
</svg>
